{"glyphs":{"0":{"ha":780,"x_min":78,"x_max":701,"o":"m 701 421 q 626 94 701 200 q 391 -13 551 -13 q 157 91 232 -13 q 78 404 81 196 l 78 572 q 153 895 78 789 q 389 1001 228 1001 q 624 899 549 1001 q 701 584 699 797 l 701 421 m 575 593 q 531 825 575 752 q 389 898 486 898 q 249 825 293 898 q 204 602 205 753 l 204 402 q 250 165 204 242 q 391 89 296 89 q 529 161 484 89 q 575 387 574 232 l 575 593 z "},"1":{"ha":780,"x_min":115,"x_max":495,"o":"m 495 0 l 368 0 l 368 836 l 115 743 l 115 857 l 475 992 l 495 992 l 495 0 z "},"2":{"ha":780,"x_min":63,"x_max":729,"o":"m 729 0 l 82 0 l 82 90 l 424 470 q 529 610 500 556 q 557 722 557 664 q 511 848 557 799 q 386 898 464 898 q 240 845 292 898 q 188 696 188 792 l 63 696 q 151 917 63 833 q 386 1001 239 1001 q 604 929 524 1001 q 684 737 684 856 q 498 389 684 591 l 233 103 l 729 103 l 729 0 z "},"3":{"ha":780,"x_min":64,"x_max":690,"o":"m 264 555 l 359 555 q 498 601 447 556 q 550 724 550 647 q 376 898 550 898 q 247 851 295 898 q 198 728 198 805 l 72 728 q 158 923 72 845 q 376 1001 244 1001 q 595 927 516 1001 q 675 722 675 853 q 633 597 675 657 q 519 507 591 536 q 645 421 601 481 q 690 275 690 362 q 603 65 690 143 q 377 -13 516 -13 q 151 62 238 -13 q 64 260 64 137 l 190 260 q 241 136 190 182 q 377 89 292 89 q 516 136 468 89 q 564 272 564 184 q 511 405 564 359 q 359 452 458 451 l 264 452 l 264 555 z "},"4":{"ha":780,"x_min":36,"x_max":749,"o":"m 612 332 l 749 332 l 749 229 l 612 229 l 612 0 l 486 0 l 486 229 l 36 229 l 36 303 l 478 987 l 612 987 l 612 332 m 178 332 l 486 332 l 486 816 l 470 789 l 178 332 z "},"5":{"ha":780,"x_min":104,"x_max":725,"o":"m 139 495 l 190 987 l 696 987 l 696 871 l 296 871 l 266 602 q 431 645 339 645 q 646 556 566 645 q 725 315 725 467 q 643 74 725 162 q 412 -13 560 -13 q 199 59 281 -13 q 104 260 116 132 l 223 260 q 284 132 235 175 q 412 89 332 89 q 550 149 500 89 q 600 313 600 208 q 546 473 600 412 q 402 533 492 533 q 274 496 320 533 l 240 469 l 139 495 z "},"6":{"ha":780,"x_min":89,"x_max":713,"o":"m 574 988 l 574 882 l 551 882 q 318 795 405 879 q 217 558 231 711 q 431 648 296 648 q 636 557 560 648 q 713 322 713 466 q 630 78 713 170 q 408 -13 547 -13 q 178 95 266 -13 q 89 376 89 204 l 89 424 q 206 841 89 696 q 552 988 322 985 l 574 988 m 409 543 q 291 505 345 543 q 216 408 237 466 l 216 362 q 271 165 216 239 q 408 90 325 90 q 541 152 492 90 q 589 316 589 215 q 540 481 589 418 q 409 543 491 543 z "},"7":{"ha":780,"x_min":52,"x_max":720,"o":"m 720 917 l 310 0 l 179 0 l 586 884 l 52 884 l 52 987 l 720 987 l 720 917 z "},"8":{"ha":780,"x_min":76,"x_max":704,"o":"m 681 729 q 642 598 681 656 q 536 508 603 540 q 659 411 614 475 q 704 266 704 347 q 617 63 704 138 q 390 -13 531 -13 q 162 63 248 -13 q 76 266 76 139 q 120 411 76 347 q 241 508 164 475 q 137 599 175 541 q 99 729 99 656 q 179 928 99 854 q 390 1001 259 1001 q 601 928 520 1001 q 681 729 681 854 m 579 269 q 526 404 579 352 q 389 457 473 457 q 253 405 304 457 q 202 269 202 353 q 252 137 202 185 q 390 89 301 89 q 528 137 478 89 q 579 269 579 186 m 390 898 q 270 852 316 898 q 225 728 225 806 q 270 606 225 652 q 390 560 315 560 q 510 606 465 560 q 556 728 556 652 q 509 851 556 803 q 390 898 462 898 z "},"9":{"ha":780,"x_min":68,"x_max":689,"o":"m 563 434 q 469 359 524 387 q 349 330 414 330 q 200 372 264 330 q 102 491 137 414 q 68 659 68 567 q 105 838 68 758 q 212 959 143 917 q 374 1001 281 1001 q 604 892 520 1001 q 689 593 689 782 l 689 556 q 575 135 689 268 q 231 -1 461 2 l 207 -1 l 207 105 l 233 105 q 472 186 389 108 q 563 434 556 264 m 370 434 q 486 473 433 434 q 563 568 539 511 l 563 618 q 510 819 563 742 q 374 897 457 897 q 242 833 292 897 q 191 666 191 770 q 240 499 191 565 q 370 434 288 434 z "},"\u001d":{"ha":742,"x_min":62,"x_max":680,"o":"m 62 -219 l 62 872 l 680 872 l 680 -219 l 62 -219 m 131 -150 l 611 -150 l 611 803 l 131 803 l 131 -150 z "},"\u0000":{"ha":0,"x_min":0,"x_max":0,"o":""},"﻿":{"ha":0,"x_min":0,"x_max":0,"o":""}," ":{"ha":420,"x_min":0,"x_max":0,"o":""}," ":{"ha":420,"x_min":0,"x_max":0,"o":""},"ء":{"ha":615,"x_min":78,"x_max":548,"o":"m 450 304 q 439 309 445 307 q 428 313 434 311 q 403 321 417 317 q 375 327 389 325 q 345 330 360 330 q 317 327 330 330 q 282 311 298 322 q 256 284 266 300 q 242 251 246 269 q 240 234 240 243 q 243 213 240 223 q 256 183 246 197 q 278 157 265 168 q 308 137 292 145 q 342 126 324 129 q 360 125 351 125 q 390 128 373 125 q 430 138 408 131 q 473 155 452 146 q 512 173 495 165 l 548 96 q 501 76 524 86 q 451 56 478 66 q 394 33 425 45 q 323 6 363 21 l 108 -74 l 78 8 l 247 72 q 190 124 214 92 q 158 193 167 156 q 153 233 153 213 q 158 274 153 249 q 182 329 163 300 q 231 380 202 358 q 297 410 261 401 q 347 415 322 415 q 391 411 363 415 q 456 394 418 407 q 472 388 464 391 q 487 381 479 384 l 450 304 z "},"ﺀ":{"ha":615,"x_min":78,"x_max":548,"o":"m 450 304 q 439 309 445 307 q 428 313 434 311 q 403 321 417 317 q 375 327 389 325 q 345 330 360 330 q 317 327 330 330 q 282 311 298 322 q 256 284 266 300 q 242 251 246 269 q 240 234 240 243 q 243 213 240 223 q 256 183 246 197 q 278 157 265 168 q 308 137 292 145 q 342 126 324 129 q 360 125 351 125 q 390 128 373 125 q 430 138 408 131 q 473 155 452 146 q 512 173 495 165 l 548 96 q 501 76 524 86 q 451 56 478 66 q 394 33 425 45 q 323 6 363 21 l 108 -74 l 78 8 l 247 72 q 190 124 214 92 q 158 193 167 156 q 153 233 153 213 q 158 274 153 249 q 182 329 163 300 q 231 380 202 358 q 297 410 261 401 q 347 415 322 415 q 391 411 363 415 q 456 394 418 407 q 472 388 464 391 q 487 381 479 384 l 450 304 z "},"ا":{"ha":324,"x_min":91,"x_max":242,"o":"m 210 954 q 240 514 236 708 q 242 325 242 414 q 241 184 242 272 q 231 -5 239 95 l 112 1 q 124 249 121 136 q 126 346 126 300 q 124 452 126 402 q 91 935 112 745 l 210 954 z "},"ﺍ":{"ha":324,"x_min":91,"x_max":242,"o":"m 210 954 q 240 514 236 708 q 242 325 242 414 q 241 184 242 272 q 231 -5 239 95 l 112 1 q 124 249 121 136 q 126 346 126 300 q 124 452 126 402 q 91 935 112 745 l 210 954 z "},"ﺎ":{"ha":377,"x_min":112,"x_max":389,"o":"m 377 0 q 264 16 310 0 q 184 64 217 31 q 154 107 164 84 q 138 152 143 130 q 132 195 133 175 q 132 229 132 215 q 132 258 132 234 q 133 319 132 282 q 133 405 133 357 q 133 506 133 453 q 132 614 133 558 q 128 723 130 670 q 121 820 125 775 q 112 893 117 864 l 230 914 q 239 839 236 883 q 246 742 243 794 q 250 632 249 689 q 252 521 252 575 l 252 217 q 254 179 252 197 q 270 148 256 161 q 311 126 284 134 q 377 118 339 118 l 389 118 l 389 0 l 377 0 z "},"ح":{"ha":995,"x_min":57,"x_max":938,"o":"m 524 -354 q 687 -329 611 -354 q 838 -251 763 -304 l 906 -348 q 716 -444 816 -410 q 501 -478 616 -478 q 327 -452 408 -478 q 186 -379 246 -427 q 91 -260 126 -330 q 57 -99 57 -189 q 82 33 57 -29 q 152 145 107 94 q 258 236 196 196 q 392 304 319 276 q 546 346 465 332 q 713 361 628 361 q 675 380 693 370 q 639 400 656 389 q 604 420 621 410 q 572 438 587 430 q 522 465 545 452 q 477 488 499 478 q 429 505 454 499 q 373 513 405 512 q 322 502 348 513 q 272 474 296 492 q 227 436 248 457 q 191 392 206 414 q 165 409 177 401 q 141 424 153 417 q 118 439 130 432 q 94 455 106 447 q 143 522 115 492 q 205 576 171 553 q 282 614 240 600 q 374 632 324 628 q 511 606 445 630 q 641 540 577 582 q 729 485 689 508 q 803 444 768 461 q 871 415 839 426 q 938 396 904 403 q 928 358 932 375 q 918 324 923 341 q 908 290 913 307 q 898 254 903 274 q 858 254 873 254 q 828 255 844 255 l 813 255 q 685 246 754 255 q 545 217 616 237 q 409 167 474 197 q 294 100 344 138 q 212 15 243 62 q 176 -84 181 -31 l 176 -89 q 204 -205 176 -155 q 281 -288 232 -255 q 393 -338 330 -322 q 524 -354 456 -354 z "},"ﺡ":{"ha":995,"x_min":57,"x_max":938,"o":"m 524 -354 q 687 -329 611 -354 q 838 -251 763 -304 l 906 -348 q 716 -444 816 -410 q 501 -478 616 -478 q 327 -452 408 -478 q 186 -379 246 -427 q 91 -260 126 -330 q 57 -99 57 -189 q 82 33 57 -29 q 152 145 107 94 q 258 236 196 196 q 392 304 319 276 q 546 346 465 332 q 713 361 628 361 q 675 380 693 370 q 639 400 656 389 q 604 420 621 410 q 572 438 587 430 q 522 465 545 452 q 477 488 499 478 q 429 505 454 499 q 373 513 405 512 q 322 502 348 513 q 272 474 296 492 q 227 436 248 457 q 191 392 206 414 q 165 409 177 401 q 141 424 153 417 q 118 439 130 432 q 94 455 106 447 q 143 522 115 492 q 205 576 171 553 q 282 614 240 600 q 374 632 324 628 q 511 606 445 630 q 641 540 577 582 q 729 485 689 508 q 803 444 768 461 q 871 415 839 426 q 938 396 904 403 q 928 358 932 375 q 918 324 923 341 q 908 290 913 307 q 898 254 903 274 q 858 254 873 254 q 828 255 844 255 l 813 255 q 685 246 754 255 q 545 217 616 237 q 409 167 474 197 q 294 100 344 138 q 212 15 243 62 q 176 -84 181 -31 l 176 -89 q 204 -205 176 -155 q 281 -288 232 -255 q 393 -338 330 -322 q 524 -354 456 -354 z "},"ﺣ":{"ha":958,"x_min":-12,"x_max":946,"o":"m -12 118 l 119 118 q 280 134 199 118 q 438 175 360 149 q 590 232 516 200 q 733 300 664 265 q 653 331 691 314 q 579 365 615 348 q 523 391 550 379 q 471 413 496 403 q 424 428 446 423 q 383 434 402 434 q 336 423 358 434 q 294 396 313 412 q 260 360 275 379 q 234 325 245 341 q 218 297 223 308 q 212 285 212 286 l 103 334 q 108 345 104 335 q 122 368 113 354 q 143 402 130 383 q 171 440 155 420 q 271 525 219 496 q 383 553 324 553 q 442 546 412 553 q 502 529 472 540 q 565 503 533 518 q 630 473 597 489 q 702 440 665 457 q 775 411 739 424 q 849 390 812 398 q 923 382 886 382 l 946 268 q 862 230 904 250 q 775 187 821 210 q 633 121 709 154 q 473 61 556 88 q 300 17 389 34 q 119 0 210 0 l -12 0 l -12 118 z "},"ﺤ":{"ha":1007,"x_min":-12,"x_max":1019,"o":"m -12 118 l 75 118 q 247 134 165 118 q 404 175 329 149 q 550 232 479 200 q 689 300 620 265 q 609 331 647 314 q 534 365 571 348 q 479 391 506 379 q 427 413 452 403 q 380 428 402 423 q 339 434 357 434 q 292 423 314 434 q 250 396 269 412 q 216 360 231 379 q 190 325 201 341 q 174 297 179 308 q 168 285 168 286 l 59 334 q 64 345 60 335 q 78 368 69 354 q 99 402 86 383 q 127 440 111 420 q 227 525 175 496 q 339 553 280 553 q 398 546 368 553 q 458 529 428 540 q 521 503 489 518 q 586 473 553 489 q 658 440 621 457 q 731 411 694 424 q 805 390 768 398 q 879 382 842 382 l 902 268 q 847 243 874 255 q 792 217 820 231 q 814 178 799 194 q 850 151 830 162 q 893 134 870 140 q 937 124 915 127 q 977 119 959 120 q 1006 118 995 118 l 1019 118 l 1019 0 l 1006 0 q 894 11 946 0 q 801 43 842 22 q 730 95 760 65 q 685 164 700 126 q 555 104 623 133 q 412 52 487 75 q 253 14 337 28 q 75 0 169 0 l -12 0 l -12 118 z "},"ﺢ":{"ha":1028,"x_min":90,"x_max":1040,"o":"m 551 -478 q 424 -463 485 -478 q 311 -422 364 -449 q 215 -357 258 -395 q 144 -273 173 -319 q 101 -173 115 -227 q 91 -93 91 -135 q 93 -60 91 -77 q 121 52 98 -2 q 179 153 143 106 q 262 239 214 200 q 366 303 310 277 q 519 357 441 338 q 675 385 598 376 l 609 417 q 493 472 546 449 q 406 500 441 495 q 383 502 394 502 q 254 440 312 502 q 222 398 234 418 q 201 361 209 377 l 90 406 q 97 420 91 409 q 111 446 102 431 q 135 482 121 462 q 167 521 149 501 q 284 604 220 580 q 380 621 330 621 q 421 618 400 621 q 530 586 472 612 q 662 524 589 560 q 802 457 728 492 q 964 394 876 423 l 941 278 q 930 278 940 278 q 902 279 920 278 q 860 278 884 279 q 806 276 835 278 q 821 197 806 227 q 864 149 836 166 q 934 125 893 131 q 1028 118 975 118 l 1040 118 l 1040 0 l 1028 0 q 884 15 947 0 q 777 62 821 30 q 709 144 732 94 q 685 265 685 194 q 549 240 618 257 q 415 195 479 224 q 382 177 402 188 q 340 150 362 166 q 296 113 318 134 q 257 65 275 92 q 227 7 239 39 q 211 -62 214 -25 q 211 -82 211 -72 q 226 -171 211 -128 q 274 -252 242 -215 q 351 -313 306 -288 q 447 -351 396 -338 q 554 -365 499 -364 l 565 -365 q 666 -354 614 -365 q 767 -318 717 -342 q 856 -255 816 -293 l 934 -347 q 844 -410 891 -385 q 748 -450 797 -435 q 649 -471 699 -465 q 551 -478 599 -478 z "},"د":{"ha":681,"x_min":62,"x_max":623,"o":"m 329 1 q 261 8 300 1 q 182 26 221 14 q 110 51 143 37 q 62 79 77 65 l 112 193 q 165 165 134 178 q 232 141 197 151 q 306 126 268 131 q 351 123 329 123 q 389 125 365 123 q 444 139 414 127 q 495 176 474 152 q 504 209 504 187 q 499 246 504 225 q 477 308 492 276 q 442 373 463 341 q 396 436 421 405 q 343 493 370 466 q 287 540 315 519 q 231 572 258 560 l 280 682 q 352 640 316 666 q 422 582 388 614 q 488 511 457 549 q 544 433 519 473 q 588 352 570 393 q 616 274 607 312 q 623 213 623 240 q 618 164 623 185 q 604 127 613 143 q 586 100 596 112 q 535 55 565 74 q 472 24 506 36 q 402 6 438 11 q 329 1 365 1 z "},"ﺩ":{"ha":681,"x_min":62,"x_max":623,"o":"m 329 1 q 261 8 300 1 q 182 26 221 14 q 110 51 143 37 q 62 79 77 65 l 112 193 q 165 165 134 178 q 232 141 197 151 q 306 126 268 131 q 351 123 329 123 q 389 125 365 123 q 444 139 414 127 q 495 176 474 152 q 504 209 504 187 q 499 246 504 225 q 477 308 492 276 q 442 373 463 341 q 396 436 421 405 q 343 493 370 466 q 287 540 315 519 q 231 572 258 560 l 280 682 q 352 640 316 666 q 422 582 388 614 q 488 511 457 549 q 544 433 519 473 q 588 352 570 393 q 616 274 607 312 q 623 213 623 240 q 618 164 623 185 q 604 127 613 143 q 586 100 596 112 q 535 55 565 74 q 472 24 506 36 q 402 6 438 11 q 329 1 365 1 z "},"ر":{"ha":446,"x_min":-78,"x_max":374,"o":"m 298 393 q 315 337 307 364 q 330 281 324 309 q 345 223 338 252 q 359 165 353 194 q 370 109 365 136 q 374 54 374 81 q 358 -47 374 2 q 316 -143 343 -97 q 250 -230 288 -188 q 168 -309 213 -272 q 75 -377 124 -345 q -25 -432 25 -408 l -78 -326 q 45 -253 -14 -295 q 152 -163 105 -212 q 227 -59 199 -114 q 255 54 255 -4 q 252 101 255 77 q 242 152 248 126 q 228 204 236 178 q 214 255 221 230 q 184 356 200 306 l 298 393 z "},"ﺭ":{"ha":446,"x_min":-78,"x_max":374,"o":"m 298 393 q 315 337 307 364 q 330 281 324 309 q 345 223 338 252 q 359 165 353 194 q 370 109 365 136 q 374 54 374 81 q 358 -47 374 2 q 316 -143 343 -97 q 250 -230 288 -188 q 168 -309 213 -272 q 75 -377 124 -345 q -25 -432 25 -408 l -78 -326 q 45 -253 -14 -295 q 152 -163 105 -212 q 227 -59 199 -114 q 255 54 255 -4 q 252 101 255 77 q 242 152 248 126 q 228 204 236 178 q 214 255 221 230 q 184 356 200 306 l 298 393 z "},"ﺮ":{"ha":493,"x_min":-74,"x_max":503,"o":"m 377 42 q 344 -109 377 -37 q 254 -243 310 -181 q 126 -356 198 -305 q -22 -446 54 -408 l -74 -339 q 13 -290 -30 -316 q 94 -232 56 -263 q 164 -167 132 -201 q 218 -95 196 -133 q 251 -18 240 -58 q 258 42 258 11 q 257 64 258 54 q 244 138 253 98 q 225 216 236 178 q 205 287 215 254 q 187 343 194 321 l 301 378 q 345 259 324 308 q 390 178 367 210 q 438 133 413 147 q 493 118 463 118 l 503 118 l 503 0 l 493 0 q 471 1 484 0 q 442 5 458 1 q 409 19 426 10 q 377 44 393 28 l 377 42 z "},"س":{"ha":1626,"x_min":65,"x_max":1560,"o":"m 1466 558 q 1477 536 1469 552 q 1496 498 1486 521 q 1518 446 1506 475 q 1538 385 1529 417 q 1554 319 1548 353 q 1560 251 1560 284 q 1547 153 1559 199 q 1511 74 1536 108 q 1448 21 1487 40 q 1354 2 1409 2 q 1318 7 1338 2 q 1280 22 1299 12 q 1243 47 1260 32 q 1213 82 1225 62 q 1131 21 1176 39 q 1035 1 1086 4 q 1022 1 1028 1 q 995 3 1008 1 q 966 10 981 5 q 940 22 952 14 q 914 38 927 29 q 914 17 914 28 q 907 -70 914 -25 q 882 -162 900 -116 q 832 -247 863 -208 q 755 -317 801 -287 q 629 -374 699 -355 q 471 -398 559 -394 l 447 -398 q 185 -307 287 -398 q 110 -210 139 -267 q 70 -86 80 -154 q 65 -11 65 -48 q 68 53 65 12 q 87 151 72 95 q 125 258 103 207 q 173 349 147 308 l 269 278 q 250 248 261 268 q 229 200 240 228 q 209 141 219 173 q 194 73 200 108 q 185 2 187 38 q 185 -18 185 -8 q 188 -69 185 -45 q 197 -107 191 -85 q 214 -151 202 -128 q 244 -197 226 -175 q 290 -238 263 -220 q 356 -267 318 -255 q 446 -278 394 -278 l 466 -278 q 778 -98 723 -267 q 795 2 793 -48 l 795 15 q 788 103 795 59 q 767 190 781 147 q 738 269 753 233 q 713 319 723 301 q 702 338 702 336 l 803 403 l 841 315 q 875 242 857 277 q 915 179 893 207 q 965 136 937 152 q 1024 122 991 122 l 1030 122 q 1081 135 1061 123 q 1112 167 1101 147 q 1128 213 1124 187 q 1134 270 1133 240 q 1135 310 1135 290 l 1135 393 l 1257 405 l 1260 353 q 1262 315 1260 338 q 1267 265 1263 292 q 1277 213 1271 239 q 1294 165 1284 186 q 1321 130 1305 143 q 1359 117 1336 117 q 1395 128 1379 117 q 1422 160 1411 140 q 1438 206 1432 180 q 1441 248 1441 226 l 1441 259 q 1430 333 1440 297 q 1409 400 1421 368 q 1383 457 1397 431 q 1361 502 1370 483 l 1466 558 z "},"ﺱ":{"ha":1626,"x_min":65,"x_max":1560,"o":"m 1466 558 q 1477 536 1469 552 q 1496 498 1486 521 q 1518 446 1506 475 q 1538 385 1529 417 q 1554 319 1548 353 q 1560 251 1560 284 q 1547 153 1559 199 q 1511 74 1536 108 q 1448 21 1487 40 q 1354 2 1409 2 q 1318 7 1338 2 q 1280 22 1299 12 q 1243 47 1260 32 q 1213 82 1225 62 q 1131 21 1176 39 q 1035 1 1086 4 q 1022 1 1028 1 q 995 3 1008 1 q 966 10 981 5 q 940 22 952 14 q 914 38 927 29 q 914 17 914 28 q 907 -70 914 -25 q 882 -162 900 -116 q 832 -247 863 -208 q 755 -317 801 -287 q 629 -374 699 -355 q 471 -398 559 -394 l 447 -398 q 185 -307 287 -398 q 110 -210 139 -267 q 70 -86 80 -154 q 65 -11 65 -48 q 68 53 65 12 q 87 151 72 95 q 125 258 103 207 q 173 349 147 308 l 269 278 q 250 248 261 268 q 229 200 240 228 q 209 141 219 173 q 194 73 200 108 q 185 2 187 38 q 185 -18 185 -8 q 188 -69 185 -45 q 197 -107 191 -85 q 214 -151 202 -128 q 244 -197 226 -175 q 290 -238 263 -220 q 356 -267 318 -255 q 446 -278 394 -278 l 466 -278 q 778 -98 723 -267 q 795 2 793 -48 l 795 15 q 788 103 795 59 q 767 190 781 147 q 738 269 753 233 q 713 319 723 301 q 702 338 702 336 l 803 403 l 841 315 q 875 242 857 277 q 915 179 893 207 q 965 136 937 152 q 1024 122 991 122 l 1030 122 q 1081 135 1061 123 q 1112 167 1101 147 q 1128 213 1124 187 q 1134 270 1133 240 q 1135 310 1135 290 l 1135 393 l 1257 405 l 1260 353 q 1262 315 1260 338 q 1267 265 1263 292 q 1277 213 1271 239 q 1294 165 1284 186 q 1321 130 1305 143 q 1359 117 1336 117 q 1395 128 1379 117 q 1422 160 1411 140 q 1438 206 1432 180 q 1441 248 1441 226 l 1441 259 q 1430 333 1440 297 q 1409 400 1421 368 q 1383 457 1397 431 q 1361 502 1370 483 l 1466 558 z "},"ﺳ":{"ha":1001,"x_min":-12,"x_max":934,"o":"m -12 118 l 1 118 q 65 133 37 118 q 116 170 94 147 q 154 223 138 193 q 182 287 170 254 q 203 353 194 319 q 217 415 211 386 l 337 390 q 325 353 332 376 q 312 303 318 330 q 300 250 305 277 q 295 199 295 222 q 298 167 295 182 q 309 139 301 152 q 329 120 316 127 q 361 113 341 113 q 416 130 391 113 q 459 174 440 147 q 492 236 478 201 q 517 306 507 270 q 533 375 527 341 q 543 433 539 408 l 659 412 l 656 393 q 648 345 652 373 q 639 285 643 316 q 636 228 636 253 q 639 186 636 206 q 650 150 643 165 q 670 125 658 135 q 700 113 682 115 q 722 112 712 112 q 757 116 740 112 q 788 135 774 121 q 807 170 801 149 q 813 217 813 191 q 804 292 813 252 q 782 370 795 332 q 755 441 769 408 q 731 493 740 474 l 836 549 q 848 526 839 543 q 867 483 856 508 q 889 427 878 458 q 911 361 901 395 q 927 290 921 326 q 934 219 934 254 q 919 125 934 167 q 876 54 905 83 q 803 8 847 24 q 705 -7 761 -7 l 700 -7 q 654 0 678 -7 q 610 20 631 7 q 571 49 589 32 q 540 85 553 65 q 458 18 504 42 q 361 -7 412 -7 q 314 -2 338 -7 q 269 16 290 4 q 229 44 247 27 q 202 83 211 61 q 163 49 184 64 q 118 22 143 33 q 65 6 94 11 q 1 0 36 0 l -12 0 l -12 118 z "},"ﺴ":{"ha":1118,"x_min":-12,"x_max":1130,"o":"m -12 118 l 1 118 q 50 130 26 118 q 95 160 74 141 q 133 203 115 179 q 164 252 150 227 q 187 306 178 280 q 204 357 197 333 q 215 401 211 381 q 223 435 219 421 l 339 403 q 329 361 335 388 q 319 302 324 334 q 312 238 313 271 q 311 215 311 226 q 314 174 311 196 q 331 135 318 152 q 368 118 344 118 q 424 134 399 118 q 467 177 448 150 q 499 238 486 204 q 522 308 512 272 q 537 378 531 344 q 546 441 543 413 l 664 418 q 656 367 661 397 q 649 304 651 337 q 646 257 646 280 q 647 226 646 247 q 656 179 648 205 q 682 136 664 153 q 729 120 699 120 q 777 137 758 120 q 807 183 796 155 q 823 245 818 211 q 829 315 828 280 q 830 350 830 333 q 829 390 830 367 q 827 435 828 414 l 945 445 q 949 405 947 425 q 954 363 951 385 q 963 317 958 341 q 977 266 968 293 q 1037 155 1001 191 q 1115 118 1072 118 l 1130 118 l 1130 0 l 1115 0 q 1054 9 1084 0 q 997 34 1024 18 q 947 73 970 50 q 909 125 925 96 q 879 74 897 97 q 838 34 861 51 q 787 9 815 18 q 729 0 760 0 q 624 31 669 0 q 556 116 579 62 q 520 69 540 91 q 476 32 499 48 q 425 7 452 16 q 368 -2 398 -2 q 314 7 340 -2 q 266 31 287 15 q 229 69 245 46 q 206 118 214 91 q 166 70 187 92 q 120 33 145 48 q 65 9 94 18 q 1 0 36 0 l -12 0 l -12 118 z "},"ﺲ":{"ha":1745,"x_min":65,"x_max":1757,"o":"m 1757 118 l 1757 0 l 1745 0 q 1681 8 1713 0 q 1622 33 1650 17 q 1571 73 1594 50 q 1533 126 1548 96 q 1503 74 1521 97 q 1462 34 1485 51 q 1412 8 1439 18 q 1353 -1 1384 -1 q 1318 5 1337 -1 q 1279 21 1298 10 q 1243 46 1260 31 q 1213 80 1226 60 q 1131 18 1177 37 q 1034 -1 1086 -1 q 997 2 1013 -1 q 967 8 981 4 q 941 20 954 13 q 915 36 928 27 q 882 -165 915 -83 q 790 -297 849 -246 q 650 -372 731 -348 q 472 -400 568 -396 l 448 -400 q 310 -379 374 -400 q 196 -318 246 -358 q 114 -220 146 -277 q 71 -88 82 -162 q 65 -13 65 -50 q 69 52 65 10 q 88 149 72 93 q 126 256 103 206 q 173 347 149 306 l 269 276 q 251 245 261 266 q 230 198 240 225 q 210 138 219 171 q 194 70 200 106 q 186 -1 188 35 q 185 -21 185 -10 q 189 -71 185 -46 q 197 -109 191 -87 q 215 -154 203 -130 q 245 -200 226 -177 q 291 -240 263 -222 q 357 -269 319 -258 q 446 -280 395 -280 l 467 -280 q 778 -100 723 -268 q 799 15 796 -41 q 800 41 800 28 q 792 131 800 83 q 769 231 785 179 q 733 335 753 283 l 833 400 q 843 373 839 385 q 856 342 848 361 q 884 264 870 304 q 916 192 897 225 q 962 140 935 160 q 1030 120 989 120 q 1084 131 1062 120 q 1119 163 1105 143 q 1140 210 1133 183 q 1150 267 1147 237 q 1155 329 1154 297 q 1157 392 1156 361 l 1280 383 q 1278 332 1279 360 q 1277 293 1277 312 q 1277 263 1277 283 q 1281 215 1277 243 q 1293 165 1284 187 q 1317 130 1302 143 q 1356 117 1332 117 q 1408 135 1388 117 q 1438 181 1428 153 q 1453 246 1449 210 q 1457 317 1457 281 q 1454 384 1457 353 q 1450 436 1451 415 l 1568 444 q 1574 378 1569 414 q 1586 306 1578 342 q 1607 236 1594 269 q 1639 176 1620 202 q 1684 134 1659 150 q 1745 118 1710 118 l 1757 118 z "},"ص":{"ha":1761,"x_min":101,"x_max":1698,"o":"m 500 -392 q 290 -354 375 -392 q 158 -247 205 -315 q 103 -85 112 -179 q 101 -37 101 -62 q 122 120 101 36 q 143 189 131 156 q 165 248 154 222 q 186 293 177 274 q 201 319 196 311 l 301 255 q 271 194 286 229 q 244 119 256 159 q 226 35 232 79 q 222 -28 222 3 q 223 -66 222 -39 q 238 -130 225 -92 q 278 -198 251 -168 q 348 -247 306 -228 q 454 -270 391 -266 q 493 -271 474 -271 q 600 -260 545 -271 q 702 -216 655 -249 q 777 -131 749 -184 q 807 -3 804 -78 q 808 21 808 9 q 805 77 808 46 q 795 144 802 108 q 780 213 789 180 q 762 274 771 246 q 745 324 753 303 q 731 358 737 345 l 842 405 q 875 336 861 367 q 905 280 889 306 q 938 230 920 254 q 981 184 955 207 q 1006 228 992 204 q 1039 278 1021 252 q 1080 330 1058 304 q 1129 382 1102 357 q 1246 466 1183 434 q 1375 512 1309 498 q 1438 519 1407 519 q 1474 517 1449 519 q 1537 502 1500 515 q 1604 465 1573 488 q 1656 412 1635 442 q 1689 346 1678 382 q 1698 284 1698 316 q 1697 270 1698 277 q 1660 146 1693 200 q 1568 54 1627 92 q 1500 19 1536 33 q 1428 -4 1464 5 q 1358 -16 1392 -12 q 1295 -20 1324 -19 q 1269 -21 1282 -21 q 1092 -1 1178 -21 q 927 75 1007 19 q 928 31 928 53 q 927 -12 928 9 q 886 -180 921 -109 q 795 -298 851 -251 q 663 -369 739 -345 q 500 -392 588 -392 m 1086 126 q 1145 111 1112 117 q 1215 101 1178 104 q 1269 98 1242 98 q 1304 99 1280 98 q 1367 106 1329 100 q 1439 124 1405 112 q 1502 154 1474 136 q 1579 278 1572 197 l 1579 280 q 1561 339 1579 315 q 1515 379 1543 364 q 1455 397 1487 393 q 1433 399 1444 399 q 1396 394 1413 399 q 1300 359 1347 382 q 1211 296 1253 335 q 1169 252 1188 275 q 1135 207 1150 229 q 1107 164 1119 184 q 1086 126 1095 143 z "},"ﺹ":{"ha":1761,"x_min":101,"x_max":1698,"o":"m 500 -392 q 290 -354 375 -392 q 158 -247 205 -315 q 103 -85 112 -179 q 101 -37 101 -62 q 122 120 101 36 q 143 189 131 156 q 165 248 154 222 q 186 293 177 274 q 201 319 196 311 l 301 255 q 271 194 286 229 q 244 119 256 159 q 226 35 232 79 q 222 -28 222 3 q 223 -66 222 -39 q 238 -130 225 -92 q 278 -198 251 -168 q 348 -247 306 -228 q 454 -270 391 -266 q 493 -271 474 -271 q 600 -260 545 -271 q 702 -216 655 -249 q 777 -131 749 -184 q 807 -3 804 -78 q 808 21 808 9 q 805 77 808 46 q 795 144 802 108 q 780 213 789 180 q 762 274 771 246 q 745 324 753 303 q 731 358 737 345 l 842 405 q 875 336 861 367 q 905 280 889 306 q 938 230 920 254 q 981 184 955 207 q 1006 228 992 204 q 1039 278 1021 252 q 1080 330 1058 304 q 1129 382 1102 357 q 1246 466 1183 434 q 1375 512 1309 498 q 1438 519 1407 519 q 1474 517 1449 519 q 1537 502 1500 515 q 1604 465 1573 488 q 1656 412 1635 442 q 1689 346 1678 382 q 1698 284 1698 316 q 1697 270 1698 277 q 1660 146 1693 200 q 1568 54 1627 92 q 1500 19 1536 33 q 1428 -4 1464 5 q 1358 -16 1392 -12 q 1295 -20 1324 -19 q 1269 -21 1282 -21 q 1092 -1 1178 -21 q 927 75 1007 19 q 928 31 928 53 q 927 -12 928 9 q 886 -180 921 -109 q 795 -298 851 -251 q 663 -369 739 -345 q 500 -392 588 -392 m 1086 126 q 1145 111 1112 117 q 1215 101 1178 104 q 1269 98 1242 98 q 1304 99 1280 98 q 1367 106 1329 100 q 1439 124 1405 112 q 1502 154 1474 136 q 1579 278 1572 197 l 1579 280 q 1561 339 1579 315 q 1515 379 1543 364 q 1455 397 1487 393 q 1433 399 1444 399 q 1396 394 1413 399 q 1300 359 1347 382 q 1211 296 1253 335 q 1169 252 1188 275 q 1135 207 1150 229 q 1107 164 1119 184 q 1086 126 1095 143 z "},"ﺻ":{"ha":1159,"x_min":-12,"x_max":1094,"o":"m 469 114 q 563 110 509 111 l 589 110 q 680 113 630 110 q 784 126 729 116 q 881 157 838 136 q 950 210 924 178 q 975 289 975 242 l 975 291 q 966 338 975 318 q 942 372 957 358 q 908 395 927 386 q 868 408 888 404 q 828 412 848 412 q 792 408 808 412 q 695 372 740 397 q 611 309 650 347 q 537 223 572 272 q 469 114 502 174 m -12 118 l 2 118 q 63 124 37 118 q 106 138 88 130 q 134 157 123 147 q 151 176 144 167 q 182 244 172 205 q 202 329 193 283 q 213 379 207 355 q 226 427 218 403 l 340 393 q 327 338 333 368 q 321 277 321 309 l 321 273 q 328 213 321 243 q 355 154 335 183 q 428 280 386 220 q 520 389 469 341 q 634 473 571 438 q 771 525 696 508 q 839 533 806 533 q 870 531 847 533 q 930 517 894 530 q 997 482 966 504 q 1050 431 1028 461 q 1085 364 1072 401 q 1094 295 1094 331 l 1094 283 q 1066 169 1092 217 q 1001 88 1041 121 q 909 36 961 56 q 803 5 858 16 q 692 -9 748 -5 q 589 -12 637 -12 q 479 -10 528 -12 q 389 3 430 -8 q 313 37 348 14 q 245 103 278 60 q 148 25 207 50 q 5 0 89 1 l -12 0 l -12 118 z "},"ﺼ":{"ha":1167,"x_min":-12,"x_max":1179,"o":"m -12 118 l 2 118 q 63 124 37 118 q 106 138 88 130 q 134 157 123 147 q 151 176 144 167 q 182 244 172 205 q 202 329 193 283 q 213 379 207 355 q 226 427 218 403 l 340 393 q 327 338 333 368 q 321 277 321 309 l 321 273 q 328 213 321 243 q 355 154 335 183 q 428 280 386 220 q 520 389 469 341 q 634 473 571 438 q 771 525 696 508 q 839 533 806 533 q 870 531 846 533 q 930 518 893 530 q 997 484 966 505 q 1050 432 1028 462 q 1084 365 1072 402 q 1094 292 1094 331 l 1094 283 q 1074 190 1092 230 q 1028 118 1056 149 l 1179 118 l 1179 0 l 769 0 q 676 -10 722 -7 q 589 -12 630 -12 q 479 -10 528 -12 q 389 3 430 -8 q 313 37 348 14 q 245 103 278 60 q 148 25 207 50 q 5 0 89 1 l -12 0 l -12 118 m 469 114 q 563 110 509 111 l 589 110 q 680 113 630 110 q 784 126 729 116 q 881 157 838 136 q 950 210 924 178 q 975 289 975 242 l 975 291 q 966 338 975 318 q 942 372 957 358 q 908 395 927 386 q 868 408 888 404 q 828 412 848 412 q 792 408 808 412 q 695 372 740 397 q 611 309 650 347 q 537 223 572 272 q 469 114 502 174 z "},"ﺺ":{"ha":1732,"x_min":83,"x_max":1744,"o":"m 482 -392 q 272 -354 357 -392 q 140 -247 187 -315 q 85 -85 94 -179 q 83 -37 83 -62 q 104 120 83 36 q 124 189 113 156 q 147 248 136 222 q 168 293 159 274 q 183 319 178 311 l 283 255 q 253 194 268 229 q 226 119 238 159 q 208 35 214 79 q 204 -28 204 3 q 205 -66 204 -39 q 220 -130 207 -92 q 260 -198 233 -168 q 330 -247 287 -228 q 436 -270 373 -266 q 475 -271 456 -271 q 582 -260 527 -271 q 684 -216 636 -249 q 758 -131 731 -184 q 789 -3 786 -78 q 790 18 790 7 q 787 76 790 44 q 777 144 784 108 q 762 213 771 180 q 744 274 753 246 q 727 324 735 303 q 713 358 719 345 l 824 405 q 857 336 842 367 q 886 280 871 306 q 919 230 902 254 q 963 184 937 207 q 988 228 973 204 q 1021 278 1002 252 q 1062 330 1040 304 q 1111 382 1084 357 q 1215 459 1156 426 q 1336 507 1273 492 q 1423 518 1379 518 q 1482 513 1441 518 q 1577 471 1523 508 q 1622 432 1602 454 q 1655 385 1641 411 q 1675 330 1668 359 q 1680 284 1680 308 q 1679 270 1680 277 q 1638 141 1674 198 q 1653 133 1643 137 q 1676 126 1663 129 q 1704 120 1690 123 q 1732 118 1719 118 l 1744 118 l 1744 0 l 1732 0 q 1677 5 1704 0 q 1626 18 1650 10 q 1584 37 1603 27 q 1555 57 1565 46 l 1550 54 q 1482 19 1518 33 q 1410 -4 1446 5 q 1340 -16 1374 -12 q 1277 -20 1306 -19 q 1251 -21 1264 -21 q 1074 -1 1159 -21 q 909 75 989 19 q 910 31 910 53 q 909 -12 910 9 q 868 -180 903 -109 q 777 -298 833 -251 q 645 -369 720 -345 q 482 -392 569 -392 m 1068 126 q 1127 111 1094 117 q 1197 101 1160 104 q 1251 98 1223 98 q 1286 99 1261 98 q 1349 106 1311 100 q 1421 124 1386 112 q 1484 154 1456 136 q 1561 278 1554 197 l 1561 283 q 1545 341 1561 316 q 1502 382 1530 367 q 1428 402 1469 402 q 1405 401 1426 402 q 1341 386 1383 400 q 1260 347 1298 371 q 1193 296 1221 322 q 1151 252 1170 275 q 1117 207 1132 229 q 1089 164 1101 184 q 1068 126 1077 143 z "},"ط":{"ha":1097,"x_min":55,"x_max":1030,"o":"m 517 0 q 381 6 443 0 q 263 24 319 13 q 156 52 207 36 q 55 87 106 68 l 98 199 q 178 171 139 183 q 254 149 216 158 q 334 256 280 185 q 345 349 341 308 q 349 430 348 390 q 347 515 349 470 q 341 620 345 560 q 330 741 336 685 q 320 838 325 797 q 312 902 315 879 q 309 926 309 925 l 427 947 l 429 932 q 434 891 431 916 q 440 833 437 865 q 447 766 444 800 q 454 700 450 732 q 459 641 457 667 q 463 587 461 607 q 465 553 464 567 q 466 528 466 539 q 467 502 467 517 q 468 463 467 487 q 470 402 469 440 q 612 510 543 472 q 748 560 682 548 q 795 565 771 565 q 857 557 820 565 q 935 525 895 550 q 1002 460 975 499 q 1030 370 1028 421 q 1030 353 1030 361 q 1024 300 1030 329 q 1006 244 1019 272 q 976 191 993 215 q 943 150 960 167 q 835 69 891 99 q 724 24 779 39 q 616 4 668 8 q 517 0 563 0 m 387 126 q 415 123 402 124 q 444 121 428 123 l 445 121 q 509 120 475 120 l 521 120 q 582 123 549 120 q 653 133 616 126 q 727 152 691 139 q 797 186 763 165 q 859 235 830 206 q 881 262 870 246 q 899 294 892 277 q 911 330 907 312 q 912 348 912 339 q 911 364 912 356 q 891 406 906 389 q 856 431 876 422 q 812 443 835 440 q 792 443 801 443 q 766 442 779 443 q 632 382 705 432 q 478 241 560 332 l 387 126 z "},"ﻁ":{"ha":1097,"x_min":55,"x_max":1030,"o":"m 517 0 q 381 6 443 0 q 263 24 319 13 q 156 52 207 36 q 55 87 106 68 l 98 199 q 178 171 139 183 q 254 149 216 158 q 334 256 280 185 q 345 349 341 308 q 349 430 348 390 q 347 515 349 470 q 341 620 345 560 q 330 741 336 685 q 320 838 325 797 q 312 902 315 879 q 309 926 309 925 l 427 947 l 429 932 q 434 891 431 916 q 440 833 437 865 q 447 766 444 800 q 454 700 450 732 q 459 641 457 667 q 463 587 461 607 q 465 553 464 567 q 466 528 466 539 q 467 502 467 517 q 468 463 467 487 q 470 402 469 440 q 612 510 543 472 q 748 560 682 548 q 795 565 771 565 q 857 557 820 565 q 935 525 895 550 q 1002 460 975 499 q 1030 370 1028 421 q 1030 353 1030 361 q 1024 300 1030 329 q 1006 244 1019 272 q 976 191 993 215 q 943 150 960 167 q 835 69 891 99 q 724 24 779 39 q 616 4 668 8 q 517 0 563 0 m 387 126 q 415 123 402 124 q 444 121 428 123 l 445 121 q 509 120 475 120 l 521 120 q 582 123 549 120 q 653 133 616 126 q 727 152 691 139 q 797 186 763 165 q 859 235 830 206 q 881 262 870 246 q 899 294 892 277 q 911 330 907 312 q 912 348 912 339 q 911 364 912 356 q 891 406 906 389 q 856 431 876 422 q 812 443 835 440 q 792 443 801 443 q 766 442 779 443 q 632 382 705 432 q 478 241 560 332 l 387 126 z "},"ﻃ":{"ha":952,"x_min":-12,"x_max":875,"o":"m 228 118 l 286 118 q 382 119 332 118 q 486 130 432 120 q 594 163 539 140 q 704 231 649 186 q 751 293 738 260 q 760 339 760 316 q 758 362 760 350 q 738 403 753 386 q 702 430 723 420 q 657 442 681 440 q 641 443 649 443 q 611 440 626 443 q 476 376 548 426 q 322 237 404 327 q 294 205 307 220 q 228 118 281 189 m -12 118 l 89 118 q 118 167 98 132 q 179 254 138 202 q 189 348 185 292 q 193 482 192 405 l 193 504 q 189 635 193 568 q 179 772 186 701 q 168 878 172 844 q 165 914 165 913 l 287 935 q 315 492 315 725 q 314 400 315 446 q 592 558 461 536 q 646 562 619 562 q 723 553 679 562 q 814 499 768 543 q 856 440 841 472 q 874 368 871 408 q 875 352 875 361 q 869 298 875 327 q 849 240 862 269 q 820 185 836 210 q 786 144 803 161 q 678 66 734 94 q 567 22 623 37 q 459 4 511 8 q 361 0 406 0 l -12 0 l -12 118 z "},"ﻄ":{"ha":956,"x_min":-12,"x_max":968,"o":"m 228 118 l 286 118 q 383 120 332 118 q 489 133 434 122 q 598 166 543 143 q 704 231 652 188 q 751 293 738 259 q 760 339 760 316 q 758 362 760 350 q 738 403 753 386 q 702 430 723 420 q 657 442 681 440 q 641 443 649 443 q 611 440 626 443 q 476 376 548 426 q 322 237 404 327 q 294 205 307 220 q 228 118 281 189 m -12 118 l 89 118 q 118 167 98 132 q 179 254 138 202 q 189 348 185 292 q 193 482 192 405 l 193 504 q 189 635 193 568 q 179 772 186 701 q 168 878 172 844 q 165 914 165 913 l 287 935 q 315 492 315 725 q 314 400 315 446 q 592 558 461 536 q 646 562 619 562 q 723 553 679 562 q 814 499 768 543 q 856 440 841 472 q 874 368 871 408 q 875 352 875 361 q 869 298 875 327 q 849 240 862 269 q 820 185 836 210 q 786 144 803 161 q 757 118 772 130 l 968 118 l 967 0 l 809 0 q 724 4 765 0 q 652 12 684 8 q 600 21 620 17 q 579 25 580 25 q 464 4 520 8 q 361 0 409 0 l -12 0 l -12 118 z "},"ﻂ":{"ha":1127,"x_min":55,"x_max":1139,"o":"m 517 0 q 381 6 443 0 q 263 24 319 13 q 156 52 207 36 q 55 87 106 68 l 98 199 q 178 171 139 183 q 254 149 216 158 q 334 256 280 185 q 345 349 341 308 q 349 430 348 390 q 347 515 349 470 q 341 620 345 560 q 330 741 336 685 q 320 838 325 797 q 312 902 315 879 q 309 926 309 925 l 427 947 l 429 932 q 434 891 431 916 q 440 833 437 865 q 447 766 444 800 q 454 700 450 732 q 459 641 457 667 q 463 587 461 607 q 465 553 464 567 q 466 528 466 539 q 467 502 467 517 q 468 463 467 487 q 470 402 469 440 q 612 510 543 472 q 748 560 682 548 q 795 565 771 565 q 857 557 820 565 q 935 525 895 550 q 1002 460 975 499 q 1030 370 1028 421 q 1030 353 1030 361 q 1024 300 1030 329 q 1006 244 1019 272 q 976 191 993 215 q 943 150 960 167 q 925 133 934 141 q 907 118 916 126 l 1139 118 l 1139 0 l 957 0 q 875 4 915 0 q 803 12 835 7 q 750 20 771 16 q 727 25 729 24 q 617 5 670 9 q 517 0 564 0 m 387 126 q 511 119 447 119 l 518 119 q 640 130 579 119 q 758 165 702 141 q 859 235 815 190 q 881 262 870 246 q 899 294 892 277 q 911 330 907 312 q 912 348 912 339 q 911 364 912 356 q 891 406 906 389 q 856 431 876 422 q 812 443 835 440 q 792 443 801 443 q 766 442 779 443 q 632 382 705 432 q 478 241 560 332 l 387 126 z "},"ع":{"ha":925,"x_min":62,"x_max":866,"o":"m 500 -426 q 384 -414 441 -426 q 277 -378 327 -402 q 185 -319 226 -354 q 114 -238 143 -284 q 72 -136 85 -193 q 62 -54 62 -98 q 64 -15 62 -35 q 98 121 71 60 q 166 229 124 182 q 263 313 208 277 q 379 372 318 348 q 312 443 335 403 q 284 534 289 482 q 281 571 281 553 q 296 651 281 608 q 349 733 312 694 q 436 796 386 772 q 540 823 486 821 l 552 823 q 730 765 639 823 q 761 744 747 754 q 784 725 774 733 q 799 710 793 716 q 806 704 804 705 l 719 621 q 682 652 701 636 q 641 680 662 668 q 596 699 620 692 q 559 705 579 705 q 546 704 553 705 q 487 691 515 702 q 439 659 459 679 q 408 611 418 639 q 401 568 401 591 q 402 546 401 557 q 427 489 406 511 q 481 453 448 466 q 556 438 513 440 q 582 437 569 437 q 644 441 612 437 l 783 463 l 809 347 q 796 345 807 347 q 763 340 784 343 q 714 332 742 336 q 653 321 686 327 q 561 304 600 313 q 491 286 522 296 q 434 265 460 277 q 381 241 408 254 q 347 223 367 234 q 306 194 327 211 q 264 156 285 178 q 226 107 243 134 q 197 48 209 80 q 183 -22 185 15 q 182 -41 182 -32 q 209 -153 182 -103 q 285 -239 236 -204 q 400 -289 335 -274 q 502 -300 450 -300 q 562 -297 519 -300 q 673 -270 605 -295 q 796 -199 741 -245 l 866 -299 q 769 -365 816 -340 q 675 -403 721 -389 q 585 -421 629 -417 q 500 -426 542 -426 z "},"ﻉ":{"ha":925,"x_min":62,"x_max":866,"o":"m 500 -426 q 384 -414 441 -426 q 277 -378 327 -402 q 185 -319 226 -354 q 114 -238 143 -284 q 72 -136 85 -193 q 62 -54 62 -98 q 64 -15 62 -35 q 98 121 71 60 q 166 229 124 182 q 263 313 208 277 q 379 372 318 348 q 312 443 335 403 q 284 534 289 482 q 281 571 281 553 q 296 651 281 608 q 349 733 312 694 q 436 796 386 772 q 540 823 486 821 l 552 823 q 730 765 639 823 q 761 744 747 754 q 784 725 774 733 q 799 710 793 716 q 806 704 804 705 l 719 621 q 682 652 701 636 q 641 680 662 668 q 596 699 620 692 q 559 705 579 705 q 546 704 553 705 q 487 691 515 702 q 439 659 459 679 q 408 611 418 639 q 401 568 401 591 q 402 546 401 557 q 427 489 406 511 q 481 453 448 466 q 556 438 513 440 q 582 437 569 437 q 644 441 612 437 l 783 463 l 809 347 q 796 345 807 347 q 763 340 784 343 q 714 332 742 336 q 653 321 686 327 q 561 304 600 313 q 491 286 522 296 q 434 265 460 277 q 381 241 408 254 q 347 223 367 234 q 306 194 327 211 q 264 156 285 178 q 226 107 243 134 q 197 48 209 80 q 183 -22 185 15 q 182 -41 182 -32 q 209 -153 182 -103 q 285 -239 236 -204 q 400 -289 335 -274 q 502 -300 450 -300 q 562 -297 519 -300 q 673 -270 605 -295 q 796 -199 741 -245 l 866 -299 q 769 -365 816 -340 q 675 -403 721 -389 q 585 -421 629 -417 q 500 -426 542 -426 z "},"ﻋ":{"ha":687,"x_min":-12,"x_max":611,"o":"m 529 365 q 492 396 510 382 q 453 422 474 411 q 408 440 432 434 q 352 446 383 446 q 290 434 317 446 q 246 403 264 423 q 219 357 228 383 q 210 304 210 332 q 227 235 210 266 q 272 182 244 204 q 337 150 300 161 q 400 141 367 141 q 414 141 407 141 q 465 146 442 143 q 510 151 489 148 q 552 158 531 154 q 597 167 573 162 l 611 53 q 534 34 577 43 q 433 18 491 25 q 301 6 376 10 q 132 1 227 1 l -12 0 l -12 118 l 171 120 q 110 205 127 160 q 92 304 92 249 q 111 404 92 357 q 166 487 131 452 q 248 544 201 523 q 352 565 296 565 q 429 556 395 565 q 493 533 464 548 q 550 498 523 518 q 603 456 576 478 l 529 365 z "},"ﻌ":{"ha":691,"x_min":-12,"x_max":703,"o":"m 703 0 l 691 0 q 512 17 594 0 q 364 74 430 34 q 280 42 325 56 q 188 19 236 28 q 92 5 140 10 q 0 0 44 0 l -12 0 l -12 118 l 1 118 q 66 121 31 118 q 135 129 101 124 q 199 141 169 134 q 251 156 229 148 q 204 204 228 178 q 155 259 179 231 q 105 318 130 288 q 55 377 80 348 l 61 461 q 125 507 92 489 q 191 538 159 526 q 255 556 224 550 q 311 565 286 562 q 367 568 339 568 q 444 562 400 568 q 538 535 489 556 q 590 504 570 521 q 621 470 610 487 q 636 439 632 454 q 639 413 639 424 q 640 401 640 407 q 628 345 640 377 q 593 277 617 313 q 538 207 569 240 q 476 150 507 173 q 573 126 518 134 q 691 118 629 118 l 703 118 l 703 0 m 365 216 q 400 239 382 225 q 435 272 418 254 q 468 309 452 290 q 495 347 483 329 q 513 381 506 365 q 520 406 520 396 q 447 438 489 427 q 362 449 406 449 q 272 438 317 449 q 188 405 226 427 q 280 297 238 344 q 365 216 321 251 z "},"ﻊ":{"ha":819,"x_min":57,"x_max":832,"o":"m 500 -359 q 567 -353 533 -358 q 634 -339 601 -348 q 699 -316 668 -330 q 758 -283 731 -303 l 819 -386 q 738 -430 775 -412 q 663 -459 700 -448 q 585 -474 626 -470 q 495 -479 545 -479 q 386 -469 440 -479 q 284 -441 332 -460 q 194 -393 236 -421 q 123 -326 153 -364 q 75 -240 92 -287 q 57 -135 58 -193 l 57 -132 q 79 -9 57 -65 q 140 92 101 47 q 229 172 178 138 q 338 230 281 206 l 179 393 l 171 466 q 219 517 191 496 q 276 554 246 539 q 335 578 306 569 q 386 593 364 588 q 519 607 454 607 q 636 590 585 607 q 734 531 700 571 q 764 444 764 494 l 764 439 q 670 262 761 335 q 570 201 624 226 q 691 142 629 165 q 819 118 754 118 l 832 118 l 832 0 l 819 0 q 718 11 767 0 q 623 40 670 21 q 532 86 577 60 q 441 146 487 113 q 347 103 394 127 q 262 46 300 79 q 200 -28 224 14 q 176 -124 176 -70 q 190 -197 176 -164 q 228 -257 204 -231 q 284 -302 252 -283 q 353 -334 316 -321 q 427 -353 389 -347 q 500 -359 464 -359 m 304 432 q 373 362 335 401 q 459 283 411 322 q 538 319 504 301 q 596 356 572 337 q 631 396 619 374 q 645 442 644 417 q 641 454 645 448 q 631 463 637 459 q 617 471 624 468 q 601 477 609 475 q 527 489 568 487 l 520 489 q 444 482 483 489 q 368 463 405 476 q 304 432 331 450 z "},"ﻛ":{"ha":618,"x_min":-12,"x_max":617,"o":"m -12 118 l 63 118 q 139 119 100 118 q 214 127 178 120 q 279 146 249 133 q 325 185 309 160 q 349 252 345 216 q 350 268 350 260 q 341 329 350 296 q 308 392 335 353 q 243 474 282 430 q 157 563 205 518 q 60 649 109 609 l 74 773 l 570 986 l 617 876 l 184 694 q 249 637 214 668 q 318 568 284 606 q 394 471 364 517 q 440 383 423 425 q 461 304 456 341 q 465 258 465 280 q 463 224 465 246 q 451 174 461 202 q 429 123 442 146 q 248 4 376 28 q 195 0 226 0 l -12 0 l -12 118 z "},"ﻜ":{"ha":717,"x_min":-12,"x_max":729,"o":"m -12 118 l 199 118 q 247 128 223 118 q 291 154 272 138 q 324 191 311 170 q 339 234 337 212 q 339 248 339 241 q 329 310 339 276 q 296 382 318 344 q 246 459 275 421 q 185 530 217 496 q 121 594 153 565 q 62 644 89 623 l 78 777 l 612 1007 l 658 897 l 179 696 q 260 622 225 659 q 322 548 295 585 q 372 473 350 510 q 415 398 394 435 q 455 322 435 361 q 498 246 475 284 q 535 194 515 217 q 578 154 554 170 q 630 128 601 138 q 691 118 658 119 l 729 118 l 729 0 l 712 0 q 636 5 668 0 q 571 21 603 11 q 492 67 528 37 q 429 132 456 97 q 377 65 409 94 q 335 35 357 47 q 289 16 313 23 q 241 5 266 8 q 191 0 216 1 l -12 0 l -12 118 z "},"ك":{"ha":1222,"x_min":45,"x_max":1133,"o":"m 1124 577 q 1130 401 1128 467 q 1133 307 1133 335 q 1126 246 1132 276 q 1104 187 1120 216 q 932 46 1054 94 q 779 7 865 20 q 586 -7 694 -7 q 239 44 369 -4 q 70 182 116 91 q 45 289 45 232 q 68 408 45 346 q 85 448 77 430 q 102 479 94 466 q 115 501 110 493 q 122 511 121 509 l 218 440 q 207 422 212 431 q 197 405 202 414 q 188 386 192 396 q 179 364 183 376 q 164 290 164 324 q 176 237 164 261 q 312 146 206 178 q 586 114 417 114 q 888 156 780 114 q 998 243 970 190 q 1011 277 1007 259 q 1014 312 1014 295 q 1011 415 1013 348 q 1004 572 1008 481 q 998 697 1002 639 q 992 798 995 754 q 986 868 989 841 q 983 900 984 895 l 1101 913 q 1105 875 1102 903 q 1111 802 1107 846 q 1118 700 1114 758 q 1124 577 1121 643 m 681 581 q 649 587 661 585 q 625 589 636 589 q 607 588 616 589 q 588 583 597 587 q 566 568 575 577 q 551 547 556 559 q 545 524 546 536 l 545 521 q 550 498 545 510 l 549 499 q 566 475 554 486 q 591 457 577 464 q 621 450 604 451 q 629 449 625 449 q 652 454 640 449 q 682 466 667 459 q 710 481 697 474 q 736 499 724 490 l 771 452 q 712 414 748 434 q 625 366 676 394 l 488 290 l 459 342 l 567 403 q 523 432 542 413 q 494 475 504 452 q 486 518 486 496 q 486 534 486 521 q 496 570 486 548 q 524 609 506 592 q 566 636 542 627 q 625 648 593 648 q 652 646 639 648 q 675 642 664 644 l 697 636 l 681 581 z "},"ﻙ":{"ha":1222,"x_min":45,"x_max":1133,"o":"m 1124 577 q 1130 401 1128 467 q 1133 307 1133 335 q 1126 246 1132 276 q 1104 187 1120 216 q 932 46 1054 94 q 779 7 865 20 q 586 -7 694 -7 q 239 44 369 -4 q 70 182 116 91 q 45 289 45 232 q 68 408 45 346 q 85 448 77 430 q 102 479 94 466 q 115 501 110 493 q 122 511 121 509 l 218 440 q 207 422 212 431 q 197 405 202 414 q 188 386 192 396 q 179 364 183 376 q 164 290 164 324 q 176 237 164 261 q 312 146 206 178 q 586 114 417 114 q 888 156 780 114 q 998 243 970 190 q 1011 277 1007 259 q 1014 312 1014 295 q 1011 415 1013 348 q 1004 572 1008 481 q 998 697 1002 639 q 992 798 995 754 q 986 868 989 841 q 983 900 984 895 l 1101 913 q 1105 875 1102 903 q 1111 802 1107 846 q 1118 700 1114 758 q 1124 577 1121 643 m 681 581 q 649 587 661 585 q 625 589 636 589 q 607 588 616 589 q 588 583 597 587 q 566 568 575 577 q 551 547 556 559 q 545 524 546 536 l 545 521 q 550 498 545 510 l 549 499 q 566 475 554 486 q 591 457 577 464 q 621 450 604 451 q 629 449 625 449 q 652 454 640 449 q 682 466 667 459 q 710 481 697 474 q 736 499 724 490 l 771 452 q 712 414 748 434 q 625 366 676 394 l 488 290 l 459 342 l 567 403 q 523 432 542 413 q 494 475 504 452 q 486 518 486 496 q 486 534 486 521 q 496 570 486 548 q 524 609 506 592 q 566 636 542 627 q 625 648 593 648 q 652 646 639 648 q 675 642 664 644 l 697 636 l 681 581 z "},"ﻚ":{"ha":1254,"x_min":34,"x_max":1266,"o":"m 1153 171 q 1167 149 1159 159 q 1186 133 1175 139 q 1214 122 1197 126 q 1254 118 1230 118 l 1266 118 l 1266 0 l 1254 0 q 1131 28 1182 0 q 1049 116 1079 59 q 921 36 1000 66 q 768 -4 854 10 q 575 -17 683 -17 q 228 34 358 -14 q 59 172 103 82 q 34 278 34 221 q 57 398 34 336 q 75 438 66 420 q 91 469 83 456 q 104 491 99 482 q 111 501 110 499 l 207 429 q 185 393 195 412 q 168 353 176 374 q 153 280 153 313 q 165 226 153 251 q 301 136 195 167 q 575 103 406 104 q 877 146 769 103 q 987 232 960 180 q 1000 267 996 249 q 1004 302 1003 284 q 998 404 1002 338 q 989 562 993 470 q 983 686 986 629 q 976 787 979 744 q 970 858 973 831 q 967 890 968 885 l 1086 903 q 1089 864 1086 893 q 1095 792 1092 836 q 1102 690 1098 748 q 1109 566 1106 633 q 1111 522 1109 543 q 1115 474 1113 500 q 1118 415 1117 447 q 1121 336 1120 382 q 1132 238 1124 278 q 1153 171 1139 197 m 649 583 l 632 587 q 614 590 624 588 q 595 591 604 591 q 575 590 585 592 q 556 585 565 589 q 534 571 543 580 q 519 551 525 562 q 513 527 513 539 l 513 522 q 517 501 513 511 q 533 477 522 488 q 558 459 543 466 q 588 451 572 452 l 594 451 q 620 456 606 451 q 662 476 644 466 q 704 501 681 486 l 739 454 q 710 435 725 444 q 678 416 696 426 q 639 394 661 406 q 593 368 618 383 l 456 292 l 427 345 l 535 405 q 491 435 510 415 q 462 478 472 454 q 454 521 454 499 q 454 537 454 523 q 464 572 454 550 q 492 612 474 594 q 534 639 510 629 q 588 650 559 650 q 643 644 617 650 l 665 639 l 649 583 z "},"ل":{"ha":896,"x_min":64,"x_max":818,"o":"m 246 205 q 229 175 237 191 q 214 141 221 159 q 192 61 202 108 q 182 -50 182 14 q 193 -122 182 -89 q 221 -179 204 -154 q 262 -222 239 -204 q 310 -252 286 -240 q 360 -270 335 -263 q 405 -277 384 -276 q 420 -278 413 -278 q 473 -273 444 -278 q 535 -256 502 -269 q 597 -222 568 -243 q 649 -171 627 -201 q 686 -100 672 -140 q 699 -8 699 -60 q 698 104 699 39 q 694 244 696 170 q 689 397 692 318 q 683 551 686 476 q 676 730 680 639 q 667 918 672 822 l 786 923 q 794 734 790 826 q 801 553 798 642 q 807 399 804 478 q 813 245 810 319 q 816 105 815 170 q 818 -8 818 39 q 798 -143 818 -85 q 747 -246 779 -202 q 672 -319 714 -290 q 585 -367 630 -349 q 492 -391 539 -385 q 427 -396 458 -396 q 405 -396 416 -396 q 329 -384 368 -394 q 251 -356 289 -374 q 179 -311 213 -338 q 119 -245 145 -283 q 79 -158 93 -207 q 64 -54 64 -112 l 64 -50 q 76 85 65 29 q 101 179 88 141 q 138 253 117 223 l 246 205 z "},"ﻝ":{"ha":896,"x_min":64,"x_max":818,"o":"m 246 205 q 229 175 237 191 q 214 141 221 159 q 192 61 202 108 q 182 -50 182 14 q 193 -122 182 -89 q 221 -179 204 -154 q 262 -222 239 -204 q 310 -252 286 -240 q 360 -270 335 -263 q 405 -277 384 -276 q 420 -278 413 -278 q 473 -273 444 -278 q 535 -256 502 -269 q 597 -222 568 -243 q 649 -171 627 -201 q 686 -100 672 -140 q 699 -8 699 -60 q 698 104 699 39 q 694 244 696 170 q 689 397 692 318 q 683 551 686 476 q 676 730 680 639 q 667 918 672 822 l 786 923 q 794 734 790 826 q 801 553 798 642 q 807 399 804 478 q 813 245 810 319 q 816 105 815 170 q 818 -8 818 39 q 798 -143 818 -85 q 747 -246 779 -202 q 672 -319 714 -290 q 585 -367 630 -349 q 492 -391 539 -385 q 427 -396 458 -396 q 405 -396 416 -396 q 329 -384 368 -394 q 251 -356 289 -374 q 179 -311 213 -338 q 119 -245 145 -283 q 79 -158 93 -207 q 64 -54 64 -112 l 64 -50 q 76 85 65 29 q 101 179 88 141 q 138 253 117 223 l 246 205 z "},"ﻟ":{"ha":344,"x_min":-12,"x_max":281,"o":"m -12 118 l 34 118 q 131 147 102 118 q 162 265 162 179 l 162 272 q 159 385 162 311 q 152 568 156 459 q 146 692 149 634 q 139 793 143 749 q 133 863 136 836 q 130 896 131 890 l 249 908 q 252 870 249 899 q 258 797 255 841 q 265 696 261 753 q 272 572 269 638 q 275 465 274 512 q 278 382 277 418 q 280 319 280 346 q 281 273 281 293 l 281 257 q 280 219 281 241 q 272 168 279 196 q 252 114 265 141 q 217 63 239 86 q 34 0 153 0 l -12 0 l -12 118 z "},"ﻠ":{"ha":392,"x_min":-12,"x_max":404,"o":"m -12 118 l 50 118 q 80 120 68 119 q 102 123 93 121 q 116 128 111 125 q 127 134 122 130 q 142 152 136 141 q 151 177 147 163 q 156 206 155 191 q 159 237 158 222 q 159 262 159 239 q 161 324 160 285 q 162 413 161 362 q 163 520 162 464 q 163 634 164 576 q 162 745 163 692 q 159 843 161 798 q 153 917 156 888 l 271 932 q 277 856 275 902 q 281 758 280 811 q 283 648 283 705 q 283 534 283 590 q 282 426 283 478 q 281 334 281 374 q 280 267 280 293 q 279 235 279 241 q 282 201 279 221 q 298 161 286 181 q 330 131 309 143 q 391 118 351 119 l 404 118 l 404 0 l 385 0 q 335 5 359 0 q 290 18 310 10 q 252 38 269 27 q 224 62 236 50 q 189 30 209 42 q 146 11 168 18 q 103 2 124 5 q 63 0 81 0 l -12 0 l -12 118 z "},"ﻞ":{"ha":925,"x_min":54,"x_max":937,"o":"m 236 205 q 219 175 227 191 q 204 141 211 159 q 182 61 192 108 q 172 -50 172 14 q 183 -122 172 -89 q 211 -179 193 -154 q 252 -222 229 -204 q 300 -252 275 -240 q 349 -270 325 -263 q 395 -277 374 -276 q 410 -278 403 -278 q 463 -273 434 -278 q 525 -256 492 -269 q 587 -222 557 -243 q 639 -171 617 -201 q 675 -100 662 -140 q 689 -8 689 -60 q 688 104 689 39 q 684 244 686 170 q 679 397 682 318 q 673 551 676 476 q 666 730 670 639 q 657 918 662 822 l 775 923 q 784 734 780 826 q 791 553 788 642 q 797 402 794 479 q 802 251 800 325 q 810 202 803 226 q 833 159 818 178 q 870 130 848 141 q 925 118 893 118 l 937 118 l 937 0 l 925 0 q 857 7 883 0 q 807 27 830 14 l 807 -8 q 788 -143 807 -85 q 736 -246 769 -202 q 662 -319 704 -290 q 574 -367 620 -349 q 482 -391 528 -385 q 417 -396 448 -396 q 395 -396 406 -396 q 319 -384 358 -394 q 241 -356 279 -374 q 169 -311 203 -338 q 109 -245 135 -283 q 68 -158 83 -207 q 54 -54 54 -112 l 54 -50 q 66 85 54 29 q 91 179 77 141 q 127 253 107 223 l 236 205 z "},"م":{"ha":747,"x_min":63,"x_max":686,"o":"m 85 -441 l 63 118 q 63 135 63 122 q 68 165 63 149 q 82 201 72 182 q 112 234 92 220 q 131 246 120 240 q 156 255 142 252 q 182 257 168 257 q 196 256 185 257 q 228 250 207 256 q 251 307 238 277 q 281 367 264 338 q 318 422 298 396 q 363 467 338 448 q 415 498 387 487 q 469 508 440 508 l 476 508 q 565 486 525 506 q 633 429 604 467 q 668 362 655 400 q 685 283 681 324 q 686 249 686 266 q 681 191 686 224 q 661 121 677 157 q 618 58 645 85 q 554 19 592 31 q 538 18 546 18 q 512 21 528 18 q 469 31 496 23 q 409 52 443 39 q 332 83 376 65 l 184 138 q 183 134 184 136 q 183 125 183 132 q 184 102 183 117 q 185 59 184 86 q 188 -10 186 31 q 191 -112 189 -52 q 196 -254 193 -173 q 204 -441 199 -335 l 85 -441 m 378 193 q 432 171 406 181 q 481 153 458 161 q 523 139 504 144 q 546 134 542 135 q 561 170 556 149 q 569 216 567 191 q 571 247 571 231 q 570 270 571 255 q 563 303 569 286 q 541 351 554 334 q 515 377 528 368 q 490 387 502 385 q 472 389 478 389 l 470 389 q 425 362 450 389 q 374 286 399 335 q 355 246 363 266 q 340 209 347 226 l 378 193 z "},"ﻡ":{"ha":747,"x_min":63,"x_max":686,"o":"m 85 -441 l 63 118 q 63 135 63 122 q 68 165 63 149 q 82 201 72 182 q 112 234 92 220 q 131 246 120 240 q 156 255 142 252 q 182 257 168 257 q 196 256 185 257 q 228 250 207 256 q 251 307 238 277 q 281 367 264 338 q 318 422 298 396 q 363 467 338 448 q 415 498 387 487 q 469 508 440 508 l 476 508 q 565 486 525 506 q 633 429 604 467 q 668 362 655 400 q 685 283 681 324 q 686 249 686 266 q 681 191 686 224 q 661 121 677 157 q 618 58 645 85 q 554 19 592 31 q 538 18 546 18 q 512 21 528 18 q 469 31 496 23 q 409 52 443 39 q 332 83 376 65 l 184 138 q 183 134 184 136 q 183 125 183 132 q 184 102 183 117 q 185 59 184 86 q 188 -10 186 31 q 191 -112 189 -52 q 196 -254 193 -173 q 204 -441 199 -335 l 85 -441 m 378 193 q 432 171 406 181 q 481 153 458 161 q 523 139 504 144 q 546 134 542 135 q 561 170 556 149 q 569 216 567 191 q 571 247 571 231 q 570 270 571 255 q 563 303 569 286 q 541 351 554 334 q 515 377 528 368 q 490 387 502 385 q 472 389 478 389 l 470 389 q 425 362 450 389 q 374 286 399 335 q 355 246 363 266 q 340 209 347 226 l 378 193 z "},"ﻣ":{"ha":704,"x_min":-12,"x_max":643,"o":"m 0 118 q 89 135 54 118 q 150 179 125 152 q 194 242 175 207 q 231 315 212 277 q 265 381 247 348 q 307 440 284 414 q 360 482 330 466 q 430 498 390 498 q 514 479 478 498 q 577 429 551 460 q 618 359 603 398 q 639 279 633 319 q 643 237 643 258 q 639 186 643 217 q 620 117 635 155 q 577 51 604 79 q 510 12 550 23 q 461 5 486 5 q 424 8 449 5 q 363 25 399 11 q 295 58 328 39 q 235 98 263 78 q 186 47 211 66 q 131 18 160 28 q 69 4 102 7 q 0 0 37 0 l -12 0 l -12 118 l 0 118 m 304 196 q 405 138 359 156 q 459 126 435 126 q 480 128 470 126 q 500 142 490 130 q 517 171 510 153 q 527 213 524 190 q 528 232 528 223 q 525 264 528 248 q 522 278 525 268 q 515 301 520 289 q 504 328 511 314 q 486 352 496 341 q 462 371 476 364 q 430 378 448 378 q 407 371 418 378 q 386 350 397 364 q 364 313 376 335 q 337 262 352 292 l 304 196 z "},"ﻤ":{"ha":711,"x_min":-12,"x_max":723,"o":"m 723 118 l 723 0 l 709 0 q 630 15 664 0 q 572 60 595 30 q 466 2 528 2 q 446 4 457 2 q 213 98 325 19 q 162 49 197 73 q 0 0 93 0 l -12 0 l -12 118 l 1 118 q 150 206 85 119 q 194 279 171 235 q 224 338 213 316 q 241 372 235 360 q 250 388 247 383 q 254 396 252 393 q 318 468 280 440 q 409 496 356 496 q 476 484 446 496 q 529 451 505 472 q 570 402 553 430 q 599 342 587 374 q 616 277 611 311 q 623 211 622 243 q 630 176 624 193 q 647 146 636 159 q 673 126 658 133 q 709 118 689 118 l 723 118 m 432 122 q 452 120 443 120 q 501 143 486 120 q 514 172 510 155 q 517 202 517 185 l 517 211 q 509 270 516 240 q 489 323 502 300 q 456 362 476 347 q 409 377 436 377 q 340 310 377 377 q 311 250 322 272 q 294 216 300 228 q 287 200 289 205 q 283 194 284 196 q 366 146 329 163 q 432 122 403 128 z "},"ﻢ":{"ha":751,"x_min":63,"x_max":763,"o":"m 85 -454 l 63 106 q 63 123 63 110 q 68 153 63 136 q 82 189 72 170 q 112 222 92 208 q 131 234 120 228 q 156 243 142 240 q 182 245 168 245 q 196 244 185 245 q 228 238 207 244 q 251 295 238 265 q 281 354 264 325 q 318 410 298 383 q 363 455 338 436 q 415 486 387 475 q 469 496 440 496 l 476 496 q 565 474 525 494 q 633 417 604 455 q 659 373 648 397 q 676 322 669 349 q 685 266 682 295 q 686 237 686 252 q 685 209 686 223 q 691 184 687 200 q 704 154 696 169 q 724 129 712 139 q 751 118 736 118 l 763 118 l 763 0 l 751 0 q 683 15 716 1 q 629 57 651 30 q 595 27 614 39 q 554 7 577 14 q 538 6 546 6 q 512 8 528 6 q 469 19 496 11 q 409 40 443 27 q 332 71 376 53 l 184 126 q 183 120 183 124 q 183 99 183 116 q 185 47 184 82 q 188 -52 186 11 q 194 -214 191 -116 q 204 -454 198 -312 l 85 -454 m 378 181 q 432 159 406 169 q 481 141 458 149 q 523 127 504 132 q 546 122 542 123 q 561 158 556 136 q 569 204 567 179 q 571 235 571 219 q 570 258 571 243 q 563 291 569 274 q 541 339 554 322 q 515 365 528 356 q 490 375 502 373 q 472 377 478 377 l 470 377 q 425 350 450 377 q 374 274 399 323 q 355 234 363 254 q 340 197 347 214 l 378 181 z "},"ه":{"ha":598,"x_min":48,"x_max":539,"o":"m 293 0 q 278 0 290 0 q 248 3 266 1 q 209 12 231 6 q 165 29 187 18 q 77 102 107 56 q 48 210 48 147 q 146 437 48 319 q 184 479 166 461 q 217 511 203 498 q 188 536 199 527 q 177 546 177 545 l 253 638 q 266 627 254 637 q 297 598 278 617 q 342 556 317 580 q 393 502 367 531 q 503 345 467 418 q 539 210 539 272 q 512 101 539 147 q 431 30 484 56 q 392 14 412 20 q 354 5 372 8 q 320 1 336 2 q 293 0 304 0 m 300 425 q 259 385 283 409 q 216 332 236 361 q 181 272 195 303 q 167 210 167 240 q 168 191 167 200 q 175 172 170 181 q 190 153 180 162 q 216 137 199 144 q 239 128 227 132 q 261 123 251 125 q 280 121 272 121 q 293 120 289 120 q 309 120 299 120 q 330 123 318 121 q 354 127 341 124 q 378 136 367 130 q 410 165 400 148 q 420 210 420 182 q 389 306 420 249 q 300 425 359 362 z "},"ﻩ":{"ha":598,"x_min":48,"x_max":539,"o":"m 293 0 q 278 0 290 0 q 248 3 266 1 q 209 12 231 6 q 165 29 187 18 q 77 102 107 56 q 48 210 48 147 q 146 437 48 319 q 184 479 166 461 q 217 511 203 498 q 188 536 199 527 q 177 546 177 545 l 253 638 q 266 627 254 637 q 297 598 278 617 q 342 556 317 580 q 393 502 367 531 q 503 345 467 418 q 539 210 539 272 q 512 101 539 147 q 431 30 484 56 q 392 14 412 20 q 354 5 372 8 q 320 1 336 2 q 293 0 304 0 m 300 425 q 259 385 283 409 q 216 332 236 361 q 181 272 195 303 q 167 210 167 240 q 168 191 167 200 q 175 172 170 181 q 190 153 180 162 q 216 137 199 144 q 239 128 227 132 q 261 123 251 125 q 280 121 272 121 q 293 120 289 120 q 309 120 299 120 q 330 123 318 121 q 354 127 341 124 q 378 136 367 130 q 410 165 400 148 q 420 210 420 182 q 389 306 420 249 q 300 425 359 362 z "},"ﻫ":{"ha":919,"x_min":-12,"x_max":854,"o":"m -12 118 l 4 118 q 68 119 40 118 q 118 121 95 120 q 159 124 140 122 q 194 128 177 126 q 127 224 149 177 q 104 316 104 272 q 112 380 104 346 q 137 444 120 413 q 181 502 155 475 q 243 546 207 529 l 195 565 l 252 674 l 463 588 q 571 538 519 563 q 668 489 623 513 q 746 438 712 464 q 798 388 780 413 q 854 231 854 310 q 823 120 854 171 q 728 34 792 69 l 728 35 q 688 18 711 25 q 640 6 665 11 q 590 0 615 2 q 543 -2 565 -2 q 441 6 490 -2 q 339 34 391 14 q 267 18 307 25 q 183 8 227 11 q 93 2 139 4 q 4 0 47 0 l -12 0 l -12 118 m 577 345 q 570 290 577 319 q 550 230 563 260 q 518 171 537 200 q 476 118 499 143 q 508 115 496 115 q 532 114 521 114 q 629 124 589 114 q 694 151 668 134 q 730 191 719 168 q 741 238 741 213 q 730 284 741 259 q 698 334 719 309 q 644 383 676 359 q 569 427 612 407 q 577 383 576 404 q 577 345 577 363 m 454 350 q 451 388 454 368 q 439 427 448 408 q 415 459 431 445 q 373 479 399 473 q 350 481 361 481 q 307 470 330 481 q 264 436 284 460 q 232 383 243 412 q 220 326 220 353 q 229 278 220 301 q 254 235 239 255 q 290 197 269 214 q 333 164 310 179 q 387 199 364 178 q 424 245 409 220 q 446 297 439 270 q 454 350 454 324 z "},"ﻬ":{"ha":625,"x_min":-12,"x_max":637,"o":"m 637 118 l 637 0 l 620 0 q 556 -17 586 -1 q 504 -57 527 -32 q 466 -113 481 -82 q 450 -178 452 -145 q 449 -190 449 -184 q 460 -248 449 -217 q 498 -306 470 -278 l 423 -397 q 309 -313 359 -359 q 220 -217 258 -267 q 156 -117 182 -168 q 113 -15 129 -65 l 107 0 l -12 0 l -12 118 l 85 118 q 85 135 85 126 q 90 204 85 164 q 108 291 95 244 q 142 385 121 339 q 189 468 162 431 q 251 527 217 504 q 327 552 286 550 l 333 552 q 391 534 365 552 q 437 484 417 516 q 470 413 457 453 q 487 332 482 373 q 489 286 489 308 q 487 243 489 269 q 474 191 485 217 q 433 121 458 152 q 377 68 408 91 q 309 30 345 45 q 231 9 272 16 q 250 -34 239 -8 q 277 -85 262 -59 q 310 -132 292 -110 q 347 -165 328 -154 q 347 -147 347 -156 q 355 -87 347 -119 q 383 -24 364 -56 q 429 34 402 7 q 489 79 457 60 q 555 108 521 97 q 625 118 590 118 l 637 118 m 327 426 q 294 408 310 424 q 262 367 277 392 q 235 310 247 342 q 215 246 223 279 q 204 182 207 214 q 202 155 202 168 q 204 126 202 139 q 223 124 214 124 q 280 137 252 124 q 331 177 308 150 q 366 239 353 204 q 379 308 379 273 q 367 374 379 343 q 327 426 354 406 z "},"ﻪ":{"ha":658,"x_min":80,"x_max":670,"o":"m 670 118 l 670 0 l 658 0 q 604 4 635 0 q 540 22 572 8 q 461 96 493 45 q 390 87 423 90 q 329 85 358 85 q 112 160 173 85 q 88 204 95 180 q 80 249 81 227 l 80 260 q 83 293 80 277 q 92 323 86 310 q 131 385 108 357 q 179 436 153 414 q 232 477 205 459 q 285 508 260 495 q 334 531 311 522 q 374 546 357 540 q 367 614 369 592 q 365 636 365 635 l 483 661 l 483 661 q 486 639 484 656 q 490 599 487 622 q 495 549 492 575 q 500 500 498 523 q 504 460 502 477 q 507 439 506 443 q 524 312 516 361 q 538 232 532 262 q 548 191 544 203 q 553 175 551 178 q 592 130 568 142 q 658 118 616 118 l 670 118 m 388 424 q 353 409 373 418 q 312 389 333 400 q 270 365 290 378 q 232 336 249 351 q 205 302 216 320 q 195 265 195 284 q 207 233 195 246 q 239 213 220 220 q 284 204 259 207 q 325 202 304 202 q 344 202 330 202 q 381 205 359 202 q 420 210 404 207 q 405 296 412 245 q 388 424 397 347 z "},"و":{"ha":651,"x_min":46,"x_max":585,"o":"m 313 393 q 280 379 295 393 q 252 344 264 365 q 231 297 239 323 q 219 245 222 271 q 217 218 217 231 q 220 191 217 207 q 232 162 222 175 q 255 143 241 150 q 284 131 268 135 q 314 124 299 126 q 339 121 329 122 q 396 120 370 120 q 422 120 403 120 q 464 122 441 120 q 455 195 463 161 q 437 259 448 229 q 411 313 425 289 q 382 354 397 336 q 368 367 376 360 q 352 380 361 374 q 333 389 343 385 q 313 393 324 393 m 46 -307 q 213 -255 139 -289 q 339 -181 287 -222 q 422 -92 392 -139 q 460 0 453 -45 l 432 0 q 391 0 417 0 q 332 3 365 0 q 138 89 200 11 q 103 170 110 124 q 98 218 98 194 q 104 276 98 241 q 127 357 109 312 q 171 434 146 402 q 238 492 202 472 q 313 511 274 511 q 470 434 399 511 q 524 356 501 400 q 562 261 548 312 q 582 155 577 210 q 585 103 585 129 q 582 45 585 74 q 552 -79 575 -21 q 493 -185 529 -136 q 411 -274 458 -234 q 310 -344 364 -314 q 196 -394 256 -374 q 74 -424 136 -414 l 46 -307 z "},"ﻭ":{"ha":651,"x_min":46,"x_max":585,"o":"m 313 393 q 280 379 295 393 q 252 344 264 365 q 231 297 239 323 q 219 245 222 271 q 217 218 217 231 q 220 191 217 207 q 232 162 222 175 q 255 143 241 150 q 284 131 268 135 q 314 124 299 126 q 339 121 329 122 q 396 120 370 120 q 422 120 403 120 q 464 122 441 120 q 455 195 463 161 q 437 259 448 229 q 411 313 425 289 q 382 354 397 336 q 368 367 376 360 q 352 380 361 374 q 333 389 343 385 q 313 393 324 393 m 46 -307 q 213 -255 139 -289 q 339 -181 287 -222 q 422 -92 392 -139 q 460 0 453 -45 l 432 0 q 391 0 417 0 q 332 3 365 0 q 138 89 200 11 q 103 170 110 124 q 98 218 98 194 q 104 276 98 241 q 127 357 109 312 q 171 434 146 402 q 238 492 202 472 q 313 511 274 511 q 470 434 399 511 q 524 356 501 400 q 562 261 548 312 q 582 155 577 210 q 585 103 585 129 q 582 45 585 74 q 552 -79 575 -21 q 493 -185 529 -136 q 411 -274 458 -234 q 310 -344 364 -314 q 196 -394 256 -374 q 74 -424 136 -414 l 46 -307 z "},"ﻮ":{"ha":630,"x_min":47,"x_max":642,"o":"m 47 -307 q 214 -255 140 -289 q 340 -181 287 -222 q 423 -92 393 -139 q 460 0 454 -45 l 432 0 q 392 0 418 0 q 332 3 365 0 q 138 89 201 11 q 103 170 111 124 q 99 218 99 194 q 104 276 99 241 q 128 357 109 312 q 172 434 147 402 q 239 492 203 472 q 313 511 275 511 q 471 434 399 511 q 517 370 496 406 q 552 294 537 335 q 575 209 566 253 q 585 118 583 164 l 642 118 l 642 0 l 575 0 q 510 -162 557 -89 q 395 -287 463 -234 q 245 -376 328 -341 q 75 -424 163 -410 l 47 -307 m 313 393 q 280 379 296 393 q 252 344 264 365 q 231 297 240 323 q 220 245 223 271 q 218 218 218 231 q 220 191 218 207 q 232 162 222 175 q 255 143 242 150 q 284 131 269 135 q 314 124 300 126 q 340 121 329 122 q 397 120 370 120 q 422 120 403 120 q 465 122 441 120 q 456 195 463 161 q 437 259 449 229 q 412 313 426 289 q 382 354 397 336 q 369 367 376 360 q 352 380 361 374 q 334 389 344 385 q 313 393 324 393 z "},"ى":{"ha":1083,"x_min":57,"x_max":1053,"o":"m 840 502 q 903 509 873 509 q 935 508 912 509 q 987 499 958 506 q 1034 486 1016 493 q 1053 478 1051 478 l 1001 367 l 990 372 q 960 380 978 376 q 917 386 941 384 l 908 386 q 865 382 887 386 q 813 366 840 379 q 760 331 786 352 q 712 284 734 310 q 676 228 690 257 q 658 169 662 199 q 656 149 656 159 q 662 114 656 130 q 689 78 670 92 q 736 56 709 65 q 793 40 762 46 q 855 24 824 33 q 912 3 885 16 q 958 -31 940 -10 q 986 -84 977 -53 q 990 -120 990 -100 q 986 -162 990 -139 q 933 -271 975 -222 q 820 -356 891 -321 q 669 -407 753 -390 q 486 -425 586 -425 q 284 -392 371 -425 q 140 -296 197 -359 q 71 -164 91 -239 q 57 -60 57 -116 q 61 -1 57 -31 q 74 81 66 39 q 93 162 83 123 q 113 238 103 202 q 133 302 124 274 q 147 347 141 330 q 154 366 153 364 l 269 325 q 219 157 242 240 q 184 -15 195 74 q 181 -62 181 -37 l 181 -67 q 185 -115 181 -90 q 201 -166 190 -140 q 232 -214 213 -191 q 335 -279 271 -257 q 486 -301 399 -301 q 641 -287 572 -301 q 758 -251 710 -274 q 834 -200 807 -228 q 864 -140 861 -171 l 864 -137 q 845 -109 864 -120 q 792 -90 825 -98 q 720 -71 760 -81 q 645 -44 681 -62 q 582 1 609 -27 q 545 74 554 28 q 539 135 539 104 q 543 184 539 152 q 563 261 546 217 q 607 345 580 305 q 671 416 635 384 q 750 470 707 447 q 840 502 793 492 z "},"ﻯ":{"ha":1083,"x_min":57,"x_max":1053,"o":"m 840 502 q 903 509 873 509 q 935 508 912 509 q 987 499 958 506 q 1034 486 1016 493 q 1053 478 1051 478 l 1001 367 l 990 372 q 960 380 978 376 q 917 386 941 384 l 908 386 q 865 382 887 386 q 813 366 840 379 q 760 331 786 352 q 712 284 734 310 q 676 228 690 257 q 658 169 662 199 q 656 149 656 159 q 662 114 656 130 q 689 78 670 92 q 736 56 709 65 q 793 40 762 46 q 855 24 824 33 q 912 3 885 16 q 958 -31 940 -10 q 986 -84 977 -53 q 990 -120 990 -100 q 986 -162 990 -139 q 933 -271 975 -222 q 820 -356 891 -321 q 669 -407 753 -390 q 486 -425 586 -425 q 284 -392 371 -425 q 140 -296 197 -359 q 71 -164 91 -239 q 57 -60 57 -116 q 61 -1 57 -31 q 74 81 66 39 q 93 162 83 123 q 113 238 103 202 q 133 302 124 274 q 147 347 141 330 q 154 366 153 364 l 269 325 q 219 157 242 240 q 184 -15 195 74 q 181 -62 181 -37 l 181 -67 q 185 -115 181 -90 q 201 -166 190 -140 q 232 -214 213 -191 q 335 -279 271 -257 q 486 -301 399 -301 q 641 -287 572 -301 q 758 -251 710 -274 q 834 -200 807 -228 q 864 -140 861 -171 l 864 -137 q 845 -109 864 -120 q 792 -90 825 -98 q 720 -71 760 -81 q 645 -44 681 -62 q 582 1 609 -27 q 545 74 554 28 q 539 135 539 104 q 543 184 539 152 q 563 261 546 217 q 607 345 580 305 q 671 416 635 384 q 750 470 707 447 q 840 502 793 492 z "},"ﻰ":{"ha":1036,"x_min":59,"x_max":1048,"o":"m 501 -394 q 393 -389 449 -394 q 285 -368 336 -383 q 189 -323 233 -352 q 118 -248 146 -295 q 59 -30 59 -162 q 60 0 59 -15 q 162 394 68 164 l 273 349 q 178 -31 178 116 q 216 -182 178 -124 q 277 -236 241 -217 q 354 -264 314 -255 q 432 -274 393 -272 q 501 -275 471 -275 q 551 -272 519 -275 q 620 -263 583 -269 q 697 -245 658 -256 q 767 -217 736 -234 q 819 -179 798 -201 q 839 -127 839 -156 q 832 -110 839 -120 q 811 -88 825 -100 q 772 -65 796 -77 q 714 -39 749 -52 q 672 -26 693 -32 q 633 -15 652 -20 q 600 -7 615 -10 q 575 -2 585 -4 l 562 1 l 571 118 l 1048 118 l 1048 0 l 892 0 q 925 -34 912 -17 q 946 -68 938 -51 q 955 -99 953 -84 q 958 -127 958 -114 q 934 -218 957 -178 q 874 -287 911 -258 q 789 -337 836 -317 q 691 -370 741 -357 q 591 -388 640 -383 q 501 -394 541 -394 z "},"ﻻ":{"ha":763,"x_min":46,"x_max":712,"o":"m 711 357 q 712 336 712 347 q 707 276 712 310 q 688 202 701 241 q 654 128 674 162 q 607 69 633 93 q 514 7 568 33 q 396 -34 460 -19 q 285 -47 341 -45 q 261 -48 273 -48 q 173 -40 217 -48 l 193 77 q 259 71 223 71 q 295 72 268 71 q 370 83 322 73 q 341 194 360 137 q 298 308 322 251 q 245 419 274 365 q 190 523 217 474 q 137 614 162 572 q 91 686 111 655 q 59 733 71 716 q 46 751 47 751 l 145 820 q 159 800 146 818 q 193 748 171 781 q 241 672 214 716 q 298 574 268 627 q 417 333 371 444 q 483 126 463 222 q 529 168 508 141 q 566 225 551 194 q 588 288 580 255 q 593 332 593 310 q 592 348 593 340 l 530 910 l 649 921 q 652 897 649 921 q 661 834 656 874 q 674 739 667 793 q 688 622 681 685 q 701 492 694 560 q 711 357 707 424 z "},"ﻼ":{"ha":845,"x_min":56,"x_max":857,"o":"m 857 118 l 857 0 l 821 0 q 794 2 814 0 q 748 14 774 4 q 694 44 722 24 q 643 100 665 64 q 539 19 598 50 q 404 -31 481 -12 q 293 -44 349 -42 q 269 -45 281 -45 q 181 -37 225 -45 l 201 80 q 267 74 231 74 q 303 75 276 74 q 377 86 330 76 q 349 197 368 139 q 306 310 330 254 q 254 422 281 367 q 198 526 226 477 q 145 617 170 575 q 100 689 120 659 q 68 736 80 719 q 56 754 56 754 l 153 823 q 166 803 153 821 q 200 752 179 784 q 249 675 222 719 q 306 577 276 630 q 425 336 379 447 q 491 129 470 225 q 534 160 514 142 q 567 200 554 178 q 588 247 581 222 q 592 281 592 263 q 591 299 592 290 q 581 435 586 365 q 569 574 575 506 q 558 703 563 642 q 548 810 553 764 q 541 884 543 856 q 538 912 538 911 l 656 925 q 658 905 656 923 q 662 854 659 886 q 668 779 665 822 q 676 685 672 736 q 685 578 681 634 q 695 466 690 522 q 705 353 700 409 q 714 246 710 296 q 728 187 717 211 q 758 148 740 163 q 798 125 775 132 q 845 118 820 118 l 857 118 z "},"ـ":{"ha":548,"x_min":-12,"x_max":560,"o":"m 560 118 l 560 0 l -12 0 l -12 118 l 560 118 z "},"ٮ":{"ha":1216,"x_min":59,"x_max":1163,"o":"m 600 0 q 253 50 384 2 q 84 188 129 98 q 59 295 59 237 q 82 414 59 352 q 99 454 91 436 q 116 486 108 472 q 129 507 124 499 q 136 517 135 515 l 232 446 q 221 428 226 437 q 211 411 216 420 q 201 392 206 402 q 193 370 197 382 q 178 296 178 330 q 190 243 178 267 q 325 152 220 184 q 600 120 431 120 q 705 123 648 120 q 822 138 763 127 q 941 166 882 148 q 1051 212 1000 184 q 1039 269 1048 239 q 1017 328 1030 299 q 991 383 1005 357 q 965 430 977 409 q 945 462 954 450 q 937 475 937 475 l 1037 540 q 1052 515 1038 538 q 1085 457 1066 493 q 1123 376 1104 421 q 1153 284 1142 331 q 1162 229 1160 254 q 1163 216 1163 223 q 1158 182 1163 200 q 1137 147 1153 165 q 1094 111 1122 129 q 1030 79 1066 94 q 952 52 994 64 q 865 29 911 39 q 774 13 819 19 q 684 3 728 6 q 611 0 646 0 l 600 0 z "},"ٯ":{"ha":955,"x_min":52,"x_max":889,"o":"m 621 389 q 574 358 600 389 q 558 334 566 348 q 543 301 550 319 q 532 264 536 283 q 526 225 527 244 l 526 216 q 529 188 526 202 q 540 161 531 173 q 563 141 550 149 q 593 130 577 134 q 623 123 608 126 q 649 121 638 121 q 719 118 687 118 q 773 120 750 118 q 764 193 771 158 q 745 257 757 227 q 720 310 734 286 q 691 351 706 334 q 660 377 678 365 q 621 389 643 389 m 641 1 q 526 24 575 2 q 447 87 476 47 q 417 138 427 109 q 406 198 408 166 q 406 214 406 206 q 411 266 406 238 q 426 326 415 295 q 450 384 436 357 q 481 432 464 411 q 546 490 510 470 q 621 510 583 510 q 704 490 665 510 q 779 432 743 470 q 831 354 809 398 q 867 259 853 310 q 886 155 880 209 q 889 80 889 118 q 889 46 889 63 q 872 -63 886 -10 q 833 -165 858 -117 q 772 -254 808 -213 q 690 -323 736 -294 q 586 -369 643 -353 q 462 -386 529 -386 l 461 -386 q 354 -375 406 -386 q 256 -342 302 -365 q 172 -286 211 -320 q 107 -206 134 -252 q 62 -94 75 -155 q 52 -2 52 -50 q 54 36 52 17 q 82 180 59 107 q 147 330 105 252 l 252 274 q 200 153 219 212 q 175 41 180 94 q 172 -2 172 19 q 179 -69 172 -32 q 208 -145 185 -106 q 253 -197 226 -175 q 314 -235 280 -220 q 387 -258 347 -251 q 470 -266 426 -266 q 554 -255 515 -266 q 626 -223 594 -243 q 684 -176 659 -203 q 727 -120 710 -150 q 754 -60 745 -91 q 764 -1 763 -30 l 641 1 z "},"٠":{"ha":598,"x_min":103,"x_max":513,"o":"m 103 327 q 119 407 103 370 q 162 472 135 444 q 227 516 190 500 q 307 533 264 533 q 387 516 350 533 q 452 472 424 500 q 496 407 480 444 q 513 327 513 370 q 496 247 513 284 q 452 182 480 210 q 387 139 424 155 q 307 123 350 123 q 227 139 264 123 q 162 182 190 155 q 119 247 135 210 q 103 327 103 284 m 201 327 q 210 286 201 306 q 232 252 218 267 q 266 229 247 238 q 307 221 286 221 q 349 229 329 221 q 383 252 368 238 q 406 286 397 267 q 414 327 414 306 q 406 369 414 349 q 383 403 397 388 q 349 426 368 417 q 307 434 329 434 q 266 426 286 434 q 232 403 247 417 q 210 369 218 388 q 201 327 201 349 z "},"١":{"ha":400,"x_min":73,"x_max":330,"o":"m 210 -16 q 205 218 210 102 q 187 441 201 335 q 145 641 172 548 q 73 806 118 734 l 173 870 q 256 687 223 790 q 306 450 289 583 q 318 333 313 394 q 325 213 322 273 q 329 95 328 153 q 330 -16 330 37 l 210 -16 z "},"٢":{"ha":687,"x_min":41,"x_max":601,"o":"m 592 883 q 594 871 592 882 q 598 843 596 861 q 601 804 600 826 q 601 774 601 789 l 601 758 q 536 544 599 618 l 536 545 q 368 470 474 470 q 316 474 339 470 q 270 487 293 478 l 275 454 q 287 337 282 397 q 294 217 291 277 q 297 99 296 157 q 298 -12 298 40 l 178 -12 q 176 179 178 84 q 167 364 175 274 q 143 535 159 454 q 101 686 128 617 q 74 748 88 719 q 41 809 59 778 l 142 873 q 160 841 152 857 q 176 808 168 825 q 193 772 184 791 q 211 730 201 752 q 239 672 225 698 q 270 628 252 647 q 311 599 288 609 q 368 589 335 589 q 444 620 418 589 q 463 651 455 633 q 474 689 470 669 q 481 730 479 709 q 482 771 482 751 q 480 821 482 797 q 474 861 477 845 l 592 883 z "},"٣":{"ha":869,"x_min":30,"x_max":806,"o":"m 786 889 q 800 793 795 837 q 806 713 804 749 q 806 692 806 702 q 798 617 806 655 q 769 548 790 580 q 713 499 748 517 q 632 481 679 481 q 600 485 617 481 q 565 496 583 488 q 531 519 548 504 q 499 555 514 533 q 469 514 486 531 q 432 489 452 498 q 389 475 412 479 q 344 470 367 470 q 304 473 321 470 q 268 482 287 476 q 292 236 288 359 q 296 -11 296 112 l 176 -11 q 177 40 177 14 q 178 91 178 67 q 154 424 178 267 q 82 707 130 581 q 56 764 68 740 q 30 810 44 788 l 139 874 q 149 857 144 867 q 161 834 155 846 q 173 809 167 822 q 185 784 179 796 l 214 723 q 242 661 230 686 q 268 620 254 635 q 299 597 281 604 q 344 590 316 590 q 389 608 372 590 q 416 653 406 627 q 429 707 426 679 q 433 755 432 736 q 432 779 433 762 q 431 813 432 795 q 429 847 430 832 q 427 866 428 862 l 546 880 q 549 845 547 862 q 553 813 551 829 q 556 780 554 800 q 562 736 558 759 q 572 688 566 712 q 586 645 577 664 q 605 614 594 626 q 632 601 617 601 q 663 614 652 601 q 679 644 674 626 q 685 680 684 661 q 687 713 687 699 q 684 777 687 740 q 673 867 682 815 l 786 889 z "},"٤":{"ha":667,"x_min":51,"x_max":603,"o":"m 427 782 q 392 770 416 780 q 339 745 368 760 q 279 712 310 731 q 223 674 248 694 q 184 634 199 654 q 172 601 172 617 q 173 595 172 598 q 191 563 176 576 q 230 543 207 551 q 283 531 254 535 q 342 527 312 528 q 403 525 373 525 q 458 526 433 525 l 478 408 q 417 380 447 396 q 357 346 386 365 q 306 307 329 328 q 266 264 282 286 q 244 219 251 242 q 241 196 241 207 q 244 173 241 184 q 271 142 253 154 q 310 124 289 130 q 354 115 332 117 q 394 112 376 112 q 474 121 432 112 q 558 147 516 129 l 603 34 q 499 2 551 13 q 394 -9 447 -9 q 316 -2 356 -9 q 241 21 277 5 q 178 63 206 37 q 133 124 149 88 q 119 189 119 156 q 121 220 119 196 q 140 284 123 245 q 185 358 157 323 q 245 418 213 393 q 181 438 213 426 q 123 469 149 450 q 77 514 96 487 q 53 575 59 540 q 51 600 51 588 q 60 653 51 625 q 91 710 69 681 q 140 762 112 739 q 196 804 168 786 q 251 837 223 822 q 305 863 279 851 q 353 883 331 875 q 389 897 374 892 l 427 782 z "},"٥":{"ha":749,"x_min":82,"x_max":684,"o":"m 338 868 q 381 825 356 851 q 434 769 406 800 q 493 701 463 737 q 551 624 523 664 q 684 300 684 438 q 667 199 684 249 q 620 109 650 149 q 585 70 606 90 q 535 35 563 51 q 469 9 506 19 q 384 -1 431 -1 q 252 24 310 -1 q 159 91 196 49 q 117 155 133 121 q 92 223 101 189 q 83 290 84 258 q 82 312 82 301 q 85 350 82 332 q 115 469 91 406 q 176 595 138 531 q 230 676 202 638 q 289 746 258 714 q 254 781 269 767 l 338 868 m 384 120 q 523 182 477 120 q 553 244 545 211 q 562 300 562 276 q 535 413 562 349 q 452 554 507 478 q 372 656 414 608 q 315 587 343 626 q 264 505 287 548 q 226 419 242 463 q 205 335 210 375 q 204 312 204 325 q 204 294 204 307 q 209 259 204 282 q 223 213 213 237 q 251 171 233 190 q 306 132 274 144 q 384 120 339 120 z "},"٦":{"ha":704,"x_min":33,"x_max":623,"o":"m 80 882 q 170 856 124 864 q 261 849 217 849 q 337 853 301 849 q 400 863 373 857 q 444 872 428 868 q 460 876 460 876 l 535 810 q 532 782 535 810 q 526 703 528 754 q 524 601 524 659 q 524 547 524 590 q 531 414 524 505 q 552 266 537 333 q 583 149 567 198 q 611 72 599 100 q 623 43 623 44 l 518 -8 q 502 25 516 -6 q 471 111 489 57 q 438 241 454 166 q 414 404 421 315 q 406 583 406 505 q 406 642 406 594 q 411 745 406 690 q 342 736 380 740 q 262 731 304 731 q 149 740 207 731 q 33 775 90 749 l 80 882 z "},"٧":{"ha":780,"x_min":54,"x_max":736,"o":"m 343 -14 q 317 238 343 120 q 250 460 292 356 q 157 655 209 564 q 54 829 106 747 l 153 891 q 222 779 191 833 q 280 674 254 725 q 329 572 307 622 q 368 473 350 523 q 380 442 374 456 q 389 415 385 428 q 397 387 393 402 q 406 356 402 373 q 461 514 431 435 q 522 665 491 594 q 582 794 553 736 q 636 891 612 853 l 736 829 q 678 714 708 774 q 617 590 647 655 q 560 455 588 525 q 512 310 533 385 q 478 153 491 234 q 463 -14 464 72 l 343 -14 z "},"٨":{"ha":816,"x_min":86,"x_max":768,"o":"m 479 876 q 505 627 479 743 q 572 407 530 510 q 665 213 613 304 q 768 42 716 123 l 668 -19 q 542 195 594 94 q 454 394 490 296 q 442 425 447 411 q 433 452 437 438 q 425 479 429 465 q 416 510 420 493 q 361 353 391 432 q 300 204 332 275 q 239 76 269 134 q 185 -19 210 18 l 86 42 q 144 155 114 96 q 205 278 175 214 q 261 412 234 342 q 310 556 289 481 q 344 710 331 630 q 359 876 357 790 l 479 876 z "},"٩":{"ha":663,"x_min":66,"x_max":583,"o":"m 168 679 q 167 667 167 673 q 280 579 167 591 q 308 578 293 578 q 383 586 344 578 q 378 655 382 623 q 368 714 374 687 q 357 751 364 731 q 338 787 349 771 q 311 815 326 804 q 276 825 295 825 q 231 810 250 825 q 198 771 211 794 q 177 723 185 748 q 168 679 170 697 m 425 168 q 394 320 404 246 q 383 466 384 394 q 312 460 347 460 q 282 460 306 460 q 221 471 258 461 q 153 500 184 481 q 102 547 123 519 q 72 612 81 575 q 66 660 66 635 q 69 696 66 678 q 83 760 73 728 q 108 821 93 792 q 145 874 124 850 q 193 917 166 899 q 284 944 236 944 q 306 943 295 944 q 411 891 368 935 q 486 698 469 831 q 493 583 493 648 l 493 553 q 495 469 493 510 q 500 389 496 428 q 510 315 504 350 q 524 244 516 281 q 583 64 556 97 l 510 -30 q 425 168 463 20 z "},"۴":{"ha":760,"x_min":48,"x_max":707,"o":"m 481 432 q 370 448 424 432 q 275 502 316 464 q 288 433 283 472 q 296 349 293 394 q 301 257 300 305 q 304 163 303 210 q 305 73 305 117 q 305 -6 305 30 l 185 -6 q 181 228 185 112 q 162 451 176 344 q 120 651 147 558 q 48 815 94 744 l 149 879 q 188 806 170 844 q 221 729 207 768 q 258 796 234 766 q 311 848 281 826 q 377 883 341 870 q 450 897 412 896 l 460 897 q 539 885 497 897 q 624 844 580 873 q 668 811 651 827 q 698 784 686 795 l 612 700 l 606 707 q 588 722 599 713 q 563 741 578 731 q 531 760 548 751 q 495 774 513 768 q 464 777 481 777 q 444 776 458 777 q 405 764 429 775 q 364 736 381 753 q 338 695 347 718 q 331 658 331 678 q 332 644 331 651 q 351 598 338 617 q 385 569 365 580 q 429 555 405 559 q 469 552 448 552 l 481 552 q 527 555 503 553 q 572 563 550 558 q 615 577 595 569 q 653 598 636 586 l 707 501 q 598 447 655 463 q 481 432 541 432 z "},"۵":{"ha":833,"x_min":68,"x_max":771,"o":"m 558 -19 q 477 3 514 -19 q 415 65 441 24 l 414 67 q 349 5 388 28 q 263 -18 310 -18 q 174 1 210 -18 q 116 52 138 21 q 83 125 94 84 q 69 210 72 166 q 68 245 68 228 q 72 303 68 270 q 82 371 75 337 q 110 470 93 420 q 152 575 127 520 q 212 690 178 629 q 290 821 246 751 l 268 844 l 352 928 q 472 815 413 873 q 582 693 531 757 q 754 374 700 542 q 771 253 771 316 q 758 155 771 203 q 718 68 745 106 q 652 6 692 30 q 559 -19 612 -18 l 558 -19 m 469 322 q 470 283 469 306 q 475 237 472 261 q 485 190 478 213 q 501 147 491 166 q 525 115 511 128 q 559 100 539 103 q 605 118 587 102 q 633 156 623 133 q 648 205 644 179 q 652 254 652 231 q 649 296 652 274 q 639 338 646 318 q 586 464 617 405 q 521 573 556 522 q 449 665 486 623 q 378 739 412 707 q 311 624 340 678 q 260 524 282 571 q 224 432 239 476 q 199 346 209 388 q 192 307 196 331 q 187 257 188 284 q 187 239 187 248 q 189 197 187 220 q 199 152 191 175 q 223 116 207 130 q 263 102 238 102 q 300 115 284 103 q 327 148 316 128 q 346 192 338 167 q 358 240 353 216 q 366 287 363 264 q 372 323 370 309 l 469 322 z "},"۶":{"ha":710,"x_min":61,"x_max":643,"o":"m 61 27 q 72 60 64 37 q 96 116 81 83 q 133 191 111 149 q 187 281 156 233 q 252 371 217 328 q 324 449 287 415 q 241 471 278 455 q 175 513 203 487 q 132 573 147 538 q 117 653 117 609 q 128 725 117 691 q 160 786 139 758 q 207 836 180 814 q 266 874 235 859 q 332 898 298 889 q 399 906 365 906 q 574 855 488 906 l 513 751 q 454 778 482 771 q 399 786 425 786 q 340 776 370 786 q 288 749 311 766 q 251 707 265 731 q 236 653 236 682 q 247 614 236 630 q 276 587 258 597 q 314 572 293 577 q 354 567 335 567 l 362 567 q 414 570 386 567 q 469 579 441 574 q 521 591 496 585 q 562 603 545 598 q 590 612 579 609 q 608 618 601 616 l 643 504 l 600 489 q 495 439 543 470 q 407 370 447 408 q 335 289 367 332 q 276 204 302 246 q 232 124 251 162 q 201 56 213 86 q 182 9 188 27 q 175 -9 176 -8 l 61 27 z "},"ﮨ":{"ha":440,"x_min":-12,"x_max":365,"o":"m 284 -266 q 230 -240 249 -263 q 211 -187 211 -217 q 235 -81 211 -135 q 306 36 259 -27 l 350 8 q 298 -121 298 -63 q 314 -158 298 -144 q 365 -183 329 -172 q 345 -215 357 -200 q 322 -242 334 -230 q 300 -260 310 -253 q 284 -266 290 -266 m -12 118 l 35 118 q 99 120 69 118 q 153 129 129 121 q 195 150 177 136 q 226 190 214 164 q 235 240 235 209 q 232 281 235 251 q 208 376 229 312 q 193 418 202 395 q 176 460 184 440 l 156 505 l 263 558 q 269 546 263 557 q 283 514 275 534 q 302 468 292 494 q 321 412 312 441 q 353 239 353 313 q 335 141 353 183 q 291 73 317 100 q 232 30 266 46 q 155 7 197 13 q 61 0 112 0 l -12 0 l -12 118 z "},"ﮩ":{"ha":611,"x_min":-12,"x_max":623,"o":"m 508 -330 q 477 -322 490 -329 q 454 -304 464 -315 q 440 -279 445 -293 q 435 -251 435 -266 q 441 -200 435 -225 q 458 -149 447 -175 q 486 -98 469 -124 q 524 -42 502 -71 l 569 -69 q 523 -185 523 -132 q 538 -222 523 -208 q 590 -248 554 -236 q 571 -280 583 -265 q 547 -306 559 -295 q 524 -323 534 -316 q 508 -330 513 -330 m -12 118 l -1 118 q 45 122 28 118 q 72 135 62 126 q 83 150 79 140 q 93 174 88 159 q 100 192 96 182 q 109 211 103 201 l 218 172 q 207 63 207 114 q 286 -163 207 -73 q 315 -52 293 -103 q 372 37 336 -1 q 459 97 408 75 q 575 118 510 118 l 623 118 l 623 0 l 575 0 q 500 -14 532 0 q 446 -52 468 -28 q 410 -104 423 -75 q 391 -165 397 -134 q 387 -215 387 -191 q 387 -238 387 -220 q 394 -279 388 -255 l 304 -330 q 147 -168 202 -266 q 110 -82 124 -126 q 92 14 97 -37 q 49 4 71 7 q -1 0 28 0 l -12 0 l -12 118 z "},"ھ":{"ha":918,"x_min":41,"x_max":864,"o":"m 533 122 q 563 119 548 120 q 590 118 577 118 q 676 137 639 118 q 731 191 713 156 q 745 245 745 217 q 742 270 745 251 q 718 321 740 289 q 598 424 685 370 q 606 382 603 405 q 609 333 609 359 q 605 270 609 299 q 590 214 600 242 q 533 122 571 163 m 405 457 q 371 447 391 457 q 332 416 351 438 q 318 398 325 409 q 305 373 311 388 q 296 341 300 359 q 295 319 295 330 q 296 300 295 310 q 329 222 302 254 q 394 167 356 190 q 415 179 406 173 q 433 192 425 185 q 477 251 464 217 q 490 333 490 284 q 480 401 490 376 q 455 438 469 426 q 427 454 441 450 q 405 457 412 457 m 41 106 q 48 130 41 119 q 67 147 56 140 q 91 158 78 155 q 101 159 96 159 q 115 156 109 159 q 164 143 139 149 q 208 134 188 138 q 241 129 228 130 q 252 128 251 128 l 253 128 q 241 140 246 135 q 232 152 236 146 q 196 215 209 182 q 178 286 182 248 q 175 322 175 304 q 189 407 175 362 q 243 496 203 452 q 315 552 275 533 q 281 563 287 563 l 316 678 q 335 672 318 678 q 378 657 351 667 q 441 633 405 647 q 516 601 476 619 q 816 389 739 501 q 848 327 836 359 q 863 263 860 295 q 864 245 864 254 q 858 194 864 222 q 837 136 853 167 q 739 36 803 72 q 669 8 707 17 q 590 -2 632 -2 q 488 8 539 -2 q 391 37 437 18 q 325 18 361 22 q 275 14 301 14 q 239 15 264 14 q 174 25 214 17 q 94 43 134 33 q 54 67 66 53 q 41 106 41 81 z "},"ﮪ":{"ha":918,"x_min":41,"x_max":864,"o":"m 533 122 q 563 119 548 120 q 590 118 577 118 q 676 137 639 118 q 731 191 713 156 q 745 245 745 217 q 742 270 745 251 q 718 321 740 289 q 598 424 685 370 q 606 382 603 405 q 609 333 609 359 q 605 270 609 299 q 590 214 600 242 q 533 122 571 163 m 405 457 q 371 447 391 457 q 332 416 351 438 q 318 398 325 409 q 305 373 311 388 q 296 341 300 359 q 295 319 295 330 q 296 300 295 310 q 329 222 302 254 q 394 167 356 190 q 415 179 406 173 q 433 192 425 185 q 477 251 464 217 q 490 333 490 284 q 480 401 490 376 q 455 438 469 426 q 427 454 441 450 q 405 457 412 457 m 41 106 q 48 130 41 119 q 67 147 56 140 q 91 158 78 155 q 101 159 96 159 q 115 156 109 159 q 164 143 139 149 q 208 134 188 138 q 241 129 228 130 q 252 128 251 128 l 253 128 q 241 140 246 135 q 232 152 236 146 q 196 215 209 182 q 178 286 182 248 q 175 322 175 304 q 189 407 175 362 q 243 496 203 452 q 315 552 275 533 q 281 563 287 563 l 316 678 q 335 672 318 678 q 378 657 351 667 q 441 633 405 647 q 516 601 476 619 q 816 389 739 501 q 848 327 836 359 q 863 263 860 295 q 864 245 864 254 q 858 194 864 222 q 837 136 853 167 q 739 36 803 72 q 669 8 707 17 q 590 -2 632 -2 q 488 8 539 -2 q 391 37 437 18 q 325 18 361 22 q 275 14 301 14 q 239 15 264 14 q 174 25 214 17 q 94 43 134 33 q 54 67 66 53 q 41 106 41 81 z "},"ے":{"ha":784,"x_min":50,"x_max":784,"o":"m 464 118 l 464 1 l 274 1 q 225 -9 246 1 q 188 -34 203 -19 q 168 -66 174 -49 q 166 -83 166 -75 q 170 -102 166 -91 q 192 -123 174 -114 q 243 -133 210 -133 l 784 -133 l 784 -251 l 245 -251 q 150 -235 189 -251 q 87 -193 111 -219 q 55 -134 63 -167 q 50 -91 50 -113 q 53 -56 50 -79 q 73 1 56 -32 q 119 60 91 34 q 187 102 148 86 q 274 118 226 118 l 464 118 z "},"ﮮ":{"ha":784,"x_min":50,"x_max":784,"o":"m 464 118 l 464 1 l 274 1 q 225 -9 246 1 q 188 -34 203 -19 q 168 -66 174 -49 q 166 -83 166 -75 q 170 -102 166 -91 q 192 -123 174 -114 q 243 -133 210 -133 l 784 -133 l 784 -251 l 245 -251 q 150 -235 189 -251 q 87 -193 111 -219 q 55 -134 63 -167 q 50 -91 50 -113 q 53 -56 50 -79 q 73 1 56 -32 q 119 60 91 34 q 187 102 148 86 q 274 118 226 118 l 464 118 z "},"ﮯ":{"ha":598,"x_min":50,"x_max":826,"o":"m 611 118 l 611 1 l 274 1 q 225 -9 246 1 q 188 -34 203 -19 q 168 -66 174 -49 q 166 -83 166 -75 q 170 -102 166 -91 q 192 -123 174 -114 q 243 -133 210 -133 l 826 -133 l 826 -251 l 245 -251 q 150 -235 189 -251 q 87 -193 111 -219 q 55 -134 63 -167 q 50 -91 50 -113 q 53 -56 50 -79 q 73 1 56 -32 q 119 60 91 34 q 187 102 148 86 q 274 118 226 118 l 611 118 z "},"ک":{"ha":1291,"x_min":38,"x_max":1290,"o":"m 1290 882 l 830 689 q 925 607 877 649 q 1014 523 973 566 q 1086 435 1056 479 q 1129 343 1117 390 q 1136 286 1136 315 q 1130 230 1136 266 q 1086 141 1124 194 q 1022 87 1059 109 q 944 49 986 64 q 857 24 903 33 q 766 10 812 15 q 675 3 720 5 q 589 2 630 2 q 408 11 493 2 q 255 40 323 20 q 137 92 187 60 q 62 170 88 124 q 38 271 38 214 q 38 306 38 274 q 71 415 39 338 q 88 455 79 437 q 105 486 97 473 q 118 507 112 499 q 126 518 124 515 l 221 447 q 194 397 208 425 q 171 342 181 370 q 161 289 162 314 l 161 281 q 169 244 161 260 q 221 192 185 215 q 311 154 257 170 q 436 130 365 139 q 591 119 506 121 q 630 118 611 118 q 849 140 754 118 q 991 213 944 162 q 1017 264 1013 237 q 1018 281 1018 272 q 1010 324 1018 300 q 982 377 1002 348 q 934 436 961 407 q 877 494 908 466 q 816 547 846 522 q 757 596 785 573 q 709 636 729 618 l 724 775 l 1243 992 l 1290 882 z "},"ﮎ":{"ha":1291,"x_min":38,"x_max":1290,"o":"m 1290 882 l 830 689 q 925 607 877 649 q 1014 523 973 566 q 1086 435 1056 479 q 1129 343 1117 390 q 1136 286 1136 315 q 1130 230 1136 266 q 1086 141 1124 194 q 1022 87 1059 109 q 944 49 986 64 q 857 24 903 33 q 766 10 812 15 q 675 3 720 5 q 589 2 630 2 q 408 11 493 2 q 255 40 323 20 q 137 92 187 60 q 62 170 88 124 q 38 271 38 214 q 38 306 38 274 q 71 415 39 338 q 88 455 79 437 q 105 486 97 473 q 118 507 112 499 q 126 518 124 515 l 221 447 q 194 397 208 425 q 171 342 181 370 q 161 289 162 314 l 161 281 q 169 244 161 260 q 221 192 185 215 q 311 154 257 170 q 436 130 365 139 q 591 119 506 121 q 630 118 611 118 q 849 140 754 118 q 991 213 944 162 q 1017 264 1013 237 q 1018 281 1018 272 q 1010 324 1018 300 q 982 377 1002 348 q 934 436 961 407 q 877 494 908 466 q 816 547 846 522 q 757 596 785 573 q 709 636 729 618 l 724 775 l 1243 992 l 1290 882 z "},"ﮏ":{"ha":1401,"x_min":27,"x_max":1413,"o":"m 1413 118 l 1413 0 l 1401 0 q 1219 38 1301 1 q 1082 151 1136 76 q 1007 74 1050 103 q 905 28 964 44 q 765 6 845 11 q 578 0 685 0 q 463 5 521 0 q 350 19 405 9 q 244 46 295 30 q 153 86 194 62 q 82 141 112 110 q 38 213 52 173 q 27 281 27 244 q 30 323 27 292 q 59 414 33 354 q 77 454 68 436 q 94 485 86 472 q 107 506 101 498 q 114 517 112 514 l 209 446 q 180 398 194 425 q 156 344 165 371 q 146 290 147 316 l 146 284 q 155 243 146 261 q 191 205 165 223 q 253 174 217 188 q 332 149 289 160 q 419 131 375 138 q 506 121 464 124 q 556 120 533 120 q 583 120 570 120 q 784 135 707 126 q 902 160 861 144 q 980 207 955 180 q 1008 266 1005 234 q 1009 280 1009 273 q 996 336 1009 305 q 958 402 984 367 q 899 472 933 437 q 831 537 866 506 q 764 594 796 568 q 707 639 731 620 l 723 772 l 1265 1005 l 1310 896 l 832 694 q 928 617 883 658 q 1011 533 974 577 q 1076 443 1048 489 q 1120 351 1104 397 q 1142 292 1130 322 q 1171 235 1153 263 q 1214 183 1189 207 q 1277 141 1240 159 q 1330 124 1301 130 q 1396 118 1360 119 l 1413 118 z "},"گ":{"ha":1291,"x_min":38,"x_max":1290,"o":"m 1290 882 l 830 689 q 925 607 877 649 q 1014 523 973 566 q 1086 435 1056 479 q 1129 343 1117 390 q 1136 286 1136 315 q 1130 230 1136 266 q 1086 141 1124 194 q 1022 87 1059 109 q 944 49 986 64 q 857 24 903 33 q 766 10 812 15 q 675 3 720 5 q 589 2 630 2 q 408 11 493 2 q 255 40 323 20 q 137 92 187 60 q 62 170 88 124 q 38 271 38 214 q 38 306 38 274 q 71 415 39 338 q 88 455 79 437 q 105 486 97 473 q 118 507 112 499 q 126 518 124 515 l 221 447 q 194 397 208 425 q 171 342 181 370 q 161 289 162 314 l 161 281 q 169 244 161 260 q 221 192 185 215 q 311 154 257 170 q 436 130 365 139 q 591 119 506 121 q 630 118 611 118 q 849 140 754 118 q 991 213 944 162 q 1017 264 1013 237 q 1018 281 1018 272 q 1010 324 1018 300 q 982 377 1002 348 q 934 436 961 407 q 877 494 908 466 q 816 547 846 522 q 757 596 785 573 q 709 636 729 618 l 724 775 l 1243 992 l 1290 882 m 1208 1067 l 723 862 l 727 939 l 1180 1128 l 1208 1067 z "},"ﮒ":{"ha":1291,"x_min":38,"x_max":1290,"o":"m 1290 882 l 830 689 q 925 607 877 649 q 1014 523 973 566 q 1086 435 1056 479 q 1129 343 1117 390 q 1136 286 1136 315 q 1130 230 1136 266 q 1086 141 1124 194 q 1022 87 1059 109 q 944 49 986 64 q 857 24 903 33 q 766 10 812 15 q 675 3 720 5 q 589 2 630 2 q 408 11 493 2 q 255 40 323 20 q 137 92 187 60 q 62 170 88 124 q 38 271 38 214 q 38 306 38 274 q 71 415 39 338 q 88 455 79 437 q 105 486 97 473 q 118 507 112 499 q 126 518 124 515 l 221 447 q 194 397 208 425 q 171 342 181 370 q 161 289 162 314 l 161 281 q 169 244 161 260 q 221 192 185 215 q 311 154 257 170 q 436 130 365 139 q 591 119 506 121 q 630 118 611 118 q 849 140 754 118 q 991 213 944 162 q 1017 264 1013 237 q 1018 281 1018 272 q 1010 324 1018 300 q 982 377 1002 348 q 934 436 961 407 q 877 494 908 466 q 816 547 846 522 q 757 596 785 573 q 709 636 729 618 l 724 775 l 1243 992 l 1290 882 m 1208 1067 l 723 862 l 727 939 l 1180 1128 l 1208 1067 z "},"ﮔ":{"ha":618,"x_min":-12,"x_max":617,"o":"m -12 118 l 63 118 q 139 119 100 118 q 214 127 178 120 q 279 146 249 133 q 325 185 309 160 q 349 252 345 216 q 350 268 350 260 q 341 329 350 296 q 308 392 335 353 q 243 474 282 430 q 157 563 205 518 q 60 649 109 609 l 74 773 l 570 986 l 617 876 l 184 694 q 249 637 214 668 q 318 568 284 606 q 394 471 364 517 q 440 383 423 425 q 461 304 456 341 q 465 258 465 280 q 463 224 465 246 q 451 174 461 202 q 429 123 442 146 q 248 4 376 28 q 195 0 226 0 l -12 0 l -12 118 m 550 1067 l 64 862 l 68 939 l 521 1128 l 550 1067 z "},"ﮕ":{"ha":717,"x_min":-12,"x_max":729,"o":"m -12 118 l 199 118 q 247 128 223 118 q 291 154 272 138 q 324 191 311 170 q 339 234 337 212 q 339 248 339 241 q 329 310 339 276 q 296 382 318 344 q 246 459 275 421 q 185 530 217 496 q 121 594 153 565 q 62 644 89 623 l 78 777 l 612 1007 l 658 897 l 179 696 q 260 622 225 659 q 322 548 295 585 q 372 473 350 510 q 415 398 394 435 q 455 322 435 361 q 498 246 475 284 q 535 194 515 217 q 578 154 554 170 q 630 128 601 138 q 691 118 658 119 l 729 118 l 729 0 l 712 0 q 636 5 668 0 q 571 21 603 11 q 492 67 528 37 q 429 132 456 97 q 377 65 409 94 q 335 35 357 47 q 289 16 313 23 q 241 5 266 8 q 191 0 216 1 l -12 0 l -12 118 m 571 1067 l 85 862 l 89 939 l 542 1128 l 571 1067 z "},"ﮓ":{"ha":1401,"x_min":27,"x_max":1413,"o":"m 1413 118 l 1413 0 l 1401 0 q 1219 38 1301 1 q 1082 151 1136 76 q 1007 74 1050 103 q 905 28 964 44 q 765 6 845 11 q 578 0 685 0 q 463 5 521 0 q 350 19 405 9 q 244 46 295 30 q 153 86 194 62 q 82 141 112 110 q 38 213 52 173 q 27 281 27 244 q 30 323 27 292 q 59 414 33 354 q 77 454 68 436 q 94 485 86 472 q 107 506 101 498 q 114 517 112 514 l 209 446 q 180 398 194 425 q 156 344 165 371 q 146 290 147 316 l 146 284 q 155 243 146 261 q 191 205 165 223 q 253 174 217 188 q 332 149 289 160 q 419 131 375 138 q 506 121 464 124 q 556 120 533 120 q 583 120 570 120 q 784 135 707 126 q 902 160 861 144 q 980 207 955 180 q 1008 266 1005 234 q 1009 280 1009 273 q 996 336 1009 305 q 958 402 984 367 q 899 472 933 437 q 831 537 866 506 q 764 594 796 568 q 707 639 731 620 l 723 772 l 1265 1005 l 1310 896 l 832 694 q 928 617 883 658 q 1011 533 974 577 q 1076 443 1048 489 q 1120 351 1104 397 q 1142 292 1130 322 q 1171 235 1153 263 q 1214 183 1189 207 q 1277 141 1240 159 q 1330 124 1301 130 q 1396 118 1360 119 l 1413 118 m 1214 1067 l 728 862 l 732 939 l 1185 1128 l 1214 1067 z "},"ں":{"ha":984,"x_min":65,"x_max":917,"o":"m 70 -104 q 65 -28 65 -66 q 68 36 65 -5 q 87 133 72 77 q 125 240 103 190 q 173 332 148 290 l 269 261 q 251 230 261 250 q 230 182 240 210 q 210 123 219 155 q 194 56 200 91 q 185 -16 187 21 q 185 -36 185 -26 q 188 -87 185 -62 q 198 -125 191 -103 q 219 -169 205 -146 q 254 -215 232 -193 q 305 -255 275 -237 q 375 -284 335 -273 q 466 -295 415 -295 q 582 -283 530 -295 q 673 -248 634 -271 q 739 -191 713 -225 q 779 -115 766 -158 q 796 -11 795 -63 l 796 -4 q 789 92 796 45 q 767 180 781 138 q 739 253 752 222 q 714 302 725 284 q 703 320 704 320 l 803 384 q 818 358 805 381 q 849 298 832 336 q 883 210 866 260 q 910 101 900 159 q 917 5 917 54 q 915 -47 917 -8 q 892 -152 914 -86 q 828 -269 869 -220 q 731 -351 786 -319 q 610 -399 676 -383 q 469 -415 543 -415 q 324 -396 391 -415 q 204 -338 257 -377 q 117 -242 152 -300 q 70 -104 82 -183 z "},"ﮞ":{"ha":984,"x_min":65,"x_max":917,"o":"m 70 -104 q 65 -28 65 -66 q 68 36 65 -5 q 87 133 72 77 q 125 240 103 190 q 173 332 148 290 l 269 261 q 251 230 261 250 q 230 182 240 210 q 210 123 219 155 q 194 56 200 91 q 185 -16 187 21 q 185 -36 185 -26 q 188 -87 185 -62 q 198 -125 191 -103 q 219 -169 205 -146 q 254 -215 232 -193 q 305 -255 275 -237 q 375 -284 335 -273 q 466 -295 415 -295 q 582 -283 530 -295 q 673 -248 634 -271 q 739 -191 713 -225 q 779 -115 766 -158 q 796 -11 795 -63 l 796 -4 q 789 92 796 45 q 767 180 781 138 q 739 253 752 222 q 714 302 725 284 q 703 320 704 320 l 803 384 q 818 358 805 381 q 849 298 832 336 q 883 210 866 260 q 910 101 900 159 q 917 5 917 54 q 915 -47 917 -8 q 892 -152 914 -86 q 828 -269 869 -220 q 731 -351 786 -319 q 610 -399 676 -383 q 469 -415 543 -415 q 324 -396 391 -415 q 204 -338 257 -377 q 117 -242 152 -300 q 70 -104 82 -183 z "},"ﮟ":{"ha":1032,"x_min":35,"x_max":1045,"o":"m 40 -103 q 35 -28 35 -65 q 39 37 35 -5 q 58 134 42 78 q 96 241 73 190 q 143 332 118 291 l 239 261 q 221 230 231 251 q 200 183 211 210 q 180 123 190 156 q 164 56 170 91 q 156 -15 158 21 q 155 -35 155 -25 q 159 -86 155 -62 q 168 -124 161 -102 q 189 -169 175 -146 q 224 -214 203 -192 q 275 -255 245 -237 q 345 -284 305 -272 q 437 -295 385 -295 q 553 -283 501 -295 q 644 -247 604 -271 q 710 -191 683 -224 q 749 -115 736 -157 q 767 -10 766 -63 l 767 -3 q 759 92 767 46 q 737 181 751 139 q 709 254 723 223 q 684 303 695 285 q 673 321 674 321 l 774 385 q 788 360 775 382 q 818 303 801 339 q 880 203 851 240 q 937 147 910 166 q 987 123 963 129 q 1032 118 1011 118 l 1045 118 l 1045 0 l 1032 0 q 886 37 950 0 q 887 9 887 23 q 883 -63 887 -23 q 862 -151 878 -103 q 798 -269 839 -219 q 702 -351 757 -318 q 580 -399 647 -383 q 439 -414 513 -414 q 294 -395 362 -414 q 175 -338 227 -376 q 87 -241 122 -300 q 40 -103 53 -182 z "},"٪":{"ha":735,"x_min":50,"x_max":675,"o":"m 111 -1 l 469 947 l 603 947 l 243 -1 l 111 -1 m 675 125 l 553 4 l 431 126 l 553 248 l 675 125 m 294 801 l 172 680 l 50 803 l 171 924 l 294 801 z "},"؟":{"ha":618,"x_min":38,"x_max":570,"o":"m 335 551 q 396 361 396 486 l 396 275 l 283 275 l 283 361 q 219 501 283 444 q 161 550 190 526 q 101 598 132 574 q 38 767 38 667 q 62 862 38 818 q 125 938 86 906 q 212 989 164 970 q 310 1007 261 1007 q 501 928 430 1007 q 570 723 570 849 l 458 723 q 310 894 458 894 q 257 884 284 894 q 209 858 231 875 q 174 818 187 841 q 160 768 160 795 q 222 638 160 687 q 278 594 251 616 q 335 551 306 572 m 439 94 l 341 -5 l 247 89 l 345 188 l 439 94 z "},"،":{"ha":380,"x_min":117,"x_max":336,"o":"m 336 90 q 325 54 335 71 q 302 26 316 38 q 270 7 288 14 q 232 1 251 1 q 182 12 204 1 q 146 42 161 23 q 124 86 132 61 q 117 138 117 111 q 260 382 117 280 q 286 362 272 373 q 315 339 300 351 q 201 169 201 256 q 243 181 220 181 q 257 180 245 181 q 290 169 270 180 q 324 138 311 158 q 336 95 336 119 l 336 90 z "},"؛":{"ha":309,"x_min":39,"x_max":258,"o":"m 226 75 q 220 47 226 60 q 203 24 213 34 q 179 7 193 13 q 150 1 165 1 q 122 7 135 1 q 98 23 108 13 q 81 47 87 33 q 75 75 75 60 q 81 104 75 91 q 98 128 87 118 q 122 145 108 139 q 150 151 135 151 q 179 145 165 151 q 203 128 193 138 q 220 104 213 118 q 226 75 226 91 m 258 344 q 248 308 258 324 q 224 279 239 291 q 191 261 210 268 q 155 255 173 255 q 104 267 126 255 q 68 298 82 279 q 46 342 53 318 q 39 392 39 367 q 150 606 39 534 q 175 586 162 597 q 205 563 189 575 q 123 423 123 510 q 169 438 145 437 l 174 438 q 213 429 194 438 q 246 397 232 419 q 258 347 258 377 l 258 344 z "},"٫":{"ha":416,"x_min":-23,"x_max":355,"o":"m -23 -148 l 268 507 l 355 507 l 65 -148 l -23 -148 z "},"٬":{"ha":309,"x_min":21,"x_max":257,"o":"m 129 -3 q 93 4 110 -3 q 64 24 77 11 q 44 53 51 37 q 37 89 37 70 q 45 128 37 111 q 67 158 53 146 q 100 177 82 170 q 138 183 118 183 l 141 183 q 226 143 196 183 q 257 48 256 106 l 257 38 q 56 -226 257 -126 l 21 -163 q 174 5 174 -89 l 174 8 q 129 -3 153 -3 z "},"٭":{"ha":680,"x_min":50,"x_max":630,"o":"m 130 439 l 276 636 l 50 653 l 67 769 l 303 702 l 277 940 l 401 940 l 375 702 l 615 769 l 630 653 l 402 636 l 550 439 l 443 381 l 336 597 l 241 381 l 130 439 z "},"ً":{"ha":0,"x_min":-150,"x_max":153,"o":"m 153 1068 l -150 961 l -150 1028 l 153 1131 l 153 1068 m 153 1225 l -150 1117 l -150 1184 l 153 1287 l 153 1225 z "},"ٍ":{"ha":0,"x_min":-156,"x_max":147,"o":"m 147 -387 l -156 -495 l -156 -428 l 147 -324 l 147 -387 m 147 -231 l -156 -338 l -156 -271 l 147 -168 l 147 -231 z "},"َ":{"ha":0,"x_min":-153,"x_max":150,"o":"m 150 1066 l -153 959 l -153 1026 l 150 1129 l 150 1066 z "},"ُ":{"ha":0,"x_min":-156,"x_max":131,"o":"m -156 969 q -120 980 -142 973 q -72 998 -97 988 q -22 1022 -47 1009 q 24 1050 4 1034 q 1 1060 10 1056 q -18 1069 -8 1065 q -60 1100 -45 1083 q -80 1135 -74 1117 q -85 1163 -85 1149 q -83 1177 -85 1167 q -77 1200 -82 1188 q -51 1234 -68 1219 q -16 1259 -35 1250 q 25 1271 4 1269 l 30 1271 q 66 1262 49 1271 q 104 1227 90 1250 q 122 1178 117 1205 q 124 1147 124 1162 q 122 1117 124 1136 q 112 1077 120 1098 l 131 1072 l 114 1017 q 101 1021 109 1018 q 83 1028 92 1024 q 22 981 57 1002 q -47 946 -13 961 q -107 923 -81 932 q -141 913 -133 915 l -156 969 m -25 1175 q -27 1168 -25 1173 q -28 1162 -28 1165 q -27 1153 -28 1159 q -18 1139 -25 1147 q 7 1121 -11 1130 l 59 1096 q 64 1123 61 1107 q 67 1157 67 1140 q 61 1189 66 1174 q 41 1211 56 1204 q 28 1214 34 1214 q 18 1212 25 1214 q 2 1205 11 1211 q -14 1190 -7 1199 q -25 1175 -22 1182 z "},"ٌ":{"ha":0,"x_min":-197,"x_max":197,"o":"m -35 976 q -4 988 -21 981 q 30 1001 13 994 q 63 1017 47 1008 q 89 1034 78 1025 q 67 1045 76 1040 q 48 1054 57 1049 q 6 1084 21 1067 q -14 1120 -8 1101 q -19 1147 -19 1133 q -18 1162 -19 1151 q -11 1184 -16 1172 q 14 1219 -2 1203 q 50 1244 31 1234 q 91 1255 69 1253 l 96 1255 q 132 1246 115 1255 q 169 1212 156 1234 q 188 1162 183 1189 q 190 1132 190 1147 q 188 1101 190 1120 q 178 1062 186 1082 l 197 1056 l 180 1001 q 166 1005 175 1002 q 149 1012 158 1008 q 110 980 132 995 q 66 955 89 966 q 20 935 43 943 q -22 920 -3 926 q -54 911 -40 914 q -72 906 -68 907 l -102 953 q -94 972 -98 960 q -88 998 -90 984 q -86 1018 -86 1008 q -87 1030 -86 1022 q -91 1046 -87 1038 q -97 1053 -94 1050 q -109 1057 -100 1056 q -125 1054 -117 1057 q -139 1047 -132 1051 q -150 1039 -145 1043 q -158 1033 -155 1035 l -197 1072 q -188 1082 -195 1075 q -168 1095 -181 1088 q -140 1108 -156 1103 q -111 1112 -126 1112 l -106 1112 q -69 1101 -85 1111 q -42 1072 -52 1091 q -35 1046 -37 1062 q -33 1014 -33 1030 q -35 976 -33 996 m 41 1159 q 39 1152 40 1157 q 38 1146 38 1150 q 39 1137 38 1143 q 48 1123 40 1132 q 72 1105 55 1114 l 124 1080 q 130 1108 127 1091 q 133 1141 133 1124 q 127 1173 132 1158 q 107 1195 121 1188 q 94 1198 100 1198 q 84 1197 91 1198 q 68 1189 77 1195 q 51 1175 59 1183 q 41 1159 44 1166 z "},"ِ":{"ha":0,"x_min":-152,"x_max":152,"o":"m 152 -232 l -152 -340 l -152 -273 l 152 -170 l 152 -232 z "},"ّ":{"ha":0,"x_min":-166,"x_max":166,"o":"m -73 1017 q -104 1021 -91 1017 q -128 1030 -118 1024 q -144 1043 -138 1036 q -154 1057 -150 1050 q -166 1096 -165 1075 l -166 1106 q -163 1137 -166 1121 q -155 1168 -161 1153 q -146 1187 -149 1182 l -100 1165 q -107 1146 -103 1157 q -112 1124 -111 1135 q -114 1106 -114 1115 q -114 1098 -114 1104 q -110 1084 -114 1091 q -98 1074 -106 1079 q -79 1069 -89 1070 q -72 1068 -75 1068 q -56 1071 -65 1068 q -42 1080 -48 1073 q -30 1103 -34 1089 q -25 1131 -26 1117 q -24 1158 -24 1145 q -24 1180 -24 1171 l 23 1184 q 34 1124 27 1146 q 47 1092 40 1103 q 62 1079 54 1082 q 74 1077 69 1077 q 100 1086 91 1078 q 112 1107 109 1095 q 113 1121 113 1114 q 111 1139 113 1127 q 104 1166 109 1151 q 91 1196 98 1182 q 74 1220 83 1210 l 117 1249 q 131 1227 121 1244 q 150 1189 141 1211 q 164 1143 159 1167 q 166 1123 166 1133 q 162 1098 166 1111 q 146 1064 156 1078 q 123 1042 135 1050 q 97 1030 111 1033 q 72 1026 84 1026 q 40 1032 58 1026 q 6 1057 21 1038 q -24 1027 -4 1037 q -73 1017 -45 1017 z "},"ْ":{"ha":0,"x_min":-132,"x_max":133,"o":"m 1 1072 q 25 1079 13 1072 q 45 1095 36 1085 q 59 1117 54 1105 q 63 1141 63 1129 q 59 1164 63 1152 q 45 1186 54 1176 q 25 1202 36 1196 q 1 1208 13 1208 q -24 1202 -12 1208 q -43 1186 -35 1196 q -57 1164 -52 1176 q -62 1141 -62 1152 q -57 1117 -62 1129 q -43 1095 -52 1105 q -24 1079 -35 1085 q 1 1072 -12 1072 m 1 1273 q 55 1261 31 1273 q 97 1231 80 1249 q 123 1188 114 1212 q 133 1141 133 1165 q 123 1093 133 1117 q 96 1050 114 1069 q 55 1020 79 1031 q 1 1008 30 1008 q -54 1020 -30 1008 q -96 1050 -79 1031 q -122 1093 -113 1069 q -132 1141 -132 1117 q -122 1189 -132 1165 q -95 1231 -112 1213 q -53 1261 -78 1250 q 1 1273 -29 1273 z "},"ٓ":{"ha":0,"x_min":-212,"x_max":248,"o":"m -212 929 q -192 982 -207 957 q -158 1026 -178 1007 q -112 1056 -137 1045 q -62 1067 -88 1067 q -13 1060 -34 1067 q 27 1046 8 1054 q 59 1034 43 1039 q 94 1029 75 1030 l 96 1029 q 123 1036 109 1029 q 148 1052 136 1042 q 168 1072 159 1062 q 179 1086 176 1082 l 248 1042 q 242 1033 248 1040 q 227 1014 237 1025 q 203 990 217 1002 q 172 967 189 978 q 134 950 155 957 q 94 944 115 944 l 91 944 q 41 951 63 944 q -1 966 19 958 q -38 979 -21 973 q -62 982 -50 982 q -74 981 -68 982 q -95 971 -85 980 q -112 949 -104 961 q -125 924 -120 937 q -132 905 -130 912 l -212 929 z "},"ٔ":{"ha":0,"x_min":-155,"x_max":158,"o":"m 67 1165 q 35 1171 47 1170 q 11 1173 23 1173 q -7 1172 2 1173 q -26 1167 -16 1171 q -49 1151 -40 1161 q -63 1128 -59 1141 q -68 1105 -68 1117 q -68 1096 -68 1103 q -62 1077 -68 1089 q -43 1054 -55 1065 q -18 1038 -32 1044 q 10 1031 -5 1032 l 13 1031 q 38 1038 26 1031 l 122 1083 l 158 1036 l 11 950 l -126 874 l -155 927 l -46 987 q -91 1017 -72 998 q -120 1060 -109 1036 q -128 1104 -128 1082 q -122 1141 -128 1123 q -106 1174 -117 1159 q -81 1202 -95 1190 q -48 1221 -66 1214 q 11 1232 -21 1232 q 38 1231 25 1232 q 61 1226 51 1229 l 84 1221 l 67 1165 z "},"ٕ":{"ha":0,"x_min":-148,"x_max":164,"o":"m 74 -139 q 42 -133 54 -135 q 18 -132 30 -132 q 0 -133 9 -132 q -19 -138 -10 -133 q -43 -154 -33 -144 q -57 -177 -52 -164 q -61 -200 -61 -188 q -61 -209 -61 -202 q -55 -228 -61 -216 q -37 -251 -48 -240 q -12 -267 -25 -261 q 17 -274 2 -273 l 19 -274 q 45 -267 33 -274 l 129 -222 l 164 -269 l 18 -354 l -119 -431 l -148 -378 l -40 -318 q -84 -288 -65 -307 q -113 -245 -103 -269 q -121 -200 -121 -223 q -116 -164 -121 -182 q -99 -131 -110 -146 q -74 -103 -89 -115 q -41 -84 -59 -91 q 18 -72 -14 -72 q 45 -74 32 -72 q 68 -79 57 -76 l 91 -84 l 74 -139 z "},"ٰ":{"ha":0,"x_min":-37,"x_max":34,"o":"m -37 1005 q -27 1115 -27 1062 q -28 1152 -27 1121 q -37 1242 -28 1183 l 23 1256 q 30 1201 27 1232 q 34 1135 33 1170 l 34 1123 q 31 1060 34 1094 q 21 992 28 1027 l -37 1005 z "},"ٖ":{"ha":0,"x_min":-34,"x_max":36,"o":"m -34 -478 q -25 -368 -25 -421 q -25 -331 -25 -362 q -34 -242 -26 -300 l 25 -227 q 33 -282 30 -251 q 36 -348 36 -313 l 36 -360 q 34 -423 36 -389 q 23 -491 31 -457 l -34 -478 z "},"ؕ":{"ha":0,"x_min":-243,"x_max":175,"o":"m -45 724 q -105 728 -78 725 q -155 736 -132 731 q -200 747 -179 740 q -243 761 -222 753 l -224 809 q -190 797 -207 803 q -158 788 -174 792 l -124 834 q -119 874 -120 856 q -117 909 -117 891 q -118 945 -117 926 q -121 990 -119 964 q -124 1027 -123 1011 q -127 1059 -126 1044 q -130 1089 -129 1074 q -135 1121 -132 1104 l -84 1130 l -82 1116 q -78 1081 -80 1101 q -74 1038 -76 1061 q -70 999 -71 1016 q -68 968 -68 978 q -67 951 -67 958 q -66 932 -66 943 q -65 897 -66 921 q 54 964 -3 955 q 72 966 63 966 q 99 963 83 966 q 132 949 115 960 q 162 922 150 939 q 175 883 173 905 q 175 875 175 879 q 172 853 175 865 q 164 829 170 841 q 152 806 159 816 q 137 788 144 795 q 91 754 115 766 q 43 734 67 741 q -3 726 20 728 q -45 724 -25 724 m -101 778 q -77 777 -88 777 l -75 777 q -35 776 -57 776 q 10 780 -13 776 q 56 795 33 784 q 101 825 79 805 q 122 856 118 839 q 123 868 123 863 q 118 890 123 879 q 99 909 114 902 q 75 915 89 915 q 62 914 69 915 q -62 827 8 905 l -101 778 z "},"ﺪ":{"ha":762,"x_min":77,"x_max":774,"o":"m 774 118 l 774 0 l 762 0 q 692 6 723 0 q 639 24 662 13 q 598 49 615 34 q 568 80 580 64 q 517 45 542 60 q 462 20 491 30 q 398 5 432 10 q 321 0 364 0 q 189 29 249 0 q 77 112 128 59 l 145 208 q 218 154 181 174 q 291 126 255 134 q 339 121 315 121 q 373 123 351 121 q 429 138 396 125 q 479 164 460 150 q 509 188 499 178 l 318 647 l 428 693 q 481 565 457 623 q 526 455 505 507 q 569 352 548 403 q 613 247 589 302 q 636 194 625 218 q 663 154 647 170 q 702 128 679 137 q 762 118 726 118 l 774 118 z "},"ﮧ":{"ha":813,"x_min":58,"x_max":825,"o":"m 825 118 l 825 0 l 808 0 q 727 15 763 1 q 661 53 691 30 q 603 105 630 75 q 550 164 576 134 q 510 209 530 187 q 470 248 490 231 q 426 276 449 266 q 378 286 403 286 q 301 265 333 286 q 245 209 269 244 q 204 128 222 174 q 173 33 187 82 l 58 63 q 101 192 75 130 q 167 301 128 254 q 257 377 205 348 q 378 405 309 405 q 458 390 421 405 q 527 353 495 376 q 586 300 559 330 q 639 242 614 271 q 679 197 659 219 q 721 158 699 175 q 766 129 743 140 q 813 118 789 118 l 825 118 z "},"چ":{"ha":995,"x_min":57,"x_max":938,"o":"m 524 -354 q 687 -329 611 -354 q 838 -251 763 -304 l 906 -348 q 716 -444 816 -410 q 501 -478 616 -478 q 327 -452 408 -478 q 186 -379 246 -427 q 91 -260 126 -330 q 57 -99 57 -189 q 82 33 57 -29 q 152 145 107 94 q 258 236 196 196 q 392 304 319 276 q 546 346 465 332 q 713 361 628 361 q 675 380 693 370 q 639 400 656 389 q 604 420 621 410 q 572 438 587 430 q 522 465 545 452 q 477 488 499 478 q 429 505 454 499 q 373 513 405 512 q 322 502 348 513 q 272 474 296 492 q 227 436 248 457 q 191 392 206 414 q 165 409 177 401 q 141 424 153 417 q 118 439 130 432 q 94 455 106 447 q 143 522 115 492 q 205 576 171 553 q 282 614 240 600 q 374 632 324 628 q 511 606 445 630 q 641 540 577 582 q 729 485 689 508 q 803 444 768 461 q 871 415 839 426 q 938 396 904 403 q 928 358 932 375 q 918 324 923 341 q 908 290 913 307 q 898 254 903 274 q 858 254 873 254 q 828 255 844 255 l 813 255 q 685 246 754 255 q 545 217 616 237 q 409 167 474 197 q 294 100 344 138 q 212 15 243 62 q 176 -84 181 -31 l 176 -89 q 204 -205 176 -155 q 281 -288 232 -255 q 393 -338 330 -322 q 524 -354 456 -354 m 687 89 l 784 -9 l 685 -108 l 588 -10 l 687 89 m 423 88 l 521 -10 l 421 -109 l 324 -11 l 423 88 m 557 -103 l 646 -192 l 556 -282 l 467 -193 l 557 -103 z "},"ﭺ":{"ha":995,"x_min":57,"x_max":938,"o":"m 524 -354 q 687 -329 611 -354 q 838 -251 763 -304 l 906 -348 q 716 -444 816 -410 q 501 -478 616 -478 q 327 -452 408 -478 q 186 -379 246 -427 q 91 -260 126 -330 q 57 -99 57 -189 q 82 33 57 -29 q 152 145 107 94 q 258 236 196 196 q 392 304 319 276 q 546 346 465 332 q 713 361 628 361 q 675 380 693 370 q 639 400 656 389 q 604 420 621 410 q 572 438 587 430 q 522 465 545 452 q 477 488 499 478 q 429 505 454 499 q 373 513 405 512 q 322 502 348 513 q 272 474 296 492 q 227 436 248 457 q 191 392 206 414 q 165 409 177 401 q 141 424 153 417 q 118 439 130 432 q 94 455 106 447 q 143 522 115 492 q 205 576 171 553 q 282 614 240 600 q 374 632 324 628 q 511 606 445 630 q 641 540 577 582 q 729 485 689 508 q 803 444 768 461 q 871 415 839 426 q 938 396 904 403 q 928 358 932 375 q 918 324 923 341 q 908 290 913 307 q 898 254 903 274 q 858 254 873 254 q 828 255 844 255 l 813 255 q 685 246 754 255 q 545 217 616 237 q 409 167 474 197 q 294 100 344 138 q 212 15 243 62 q 176 -84 181 -31 l 176 -89 q 204 -205 176 -155 q 281 -288 232 -255 q 393 -338 330 -322 q 524 -354 456 -354 m 687 89 l 784 -9 l 685 -108 l 588 -10 l 687 89 m 423 88 l 521 -10 l 421 -109 l 324 -11 l 423 88 m 557 -103 l 646 -192 l 556 -282 l 467 -193 l 557 -103 z "},"ﭻ":{"ha":1028,"x_min":90,"x_max":1040,"o":"m 551 -478 q 424 -463 485 -478 q 311 -422 364 -449 q 215 -357 258 -395 q 144 -273 173 -319 q 101 -173 115 -227 q 91 -93 91 -135 q 93 -60 91 -77 q 121 52 98 -2 q 179 153 143 106 q 262 239 214 200 q 366 303 310 277 q 519 357 441 338 q 675 385 598 376 l 609 417 q 493 472 546 449 q 406 500 441 495 q 383 502 394 502 q 254 440 312 502 q 222 398 234 418 q 201 361 209 377 l 90 406 q 97 420 91 409 q 111 446 102 431 q 135 482 121 462 q 167 521 149 501 q 284 604 220 580 q 380 621 330 621 q 421 618 400 621 q 530 586 472 612 q 662 524 589 560 q 802 457 728 492 q 964 394 876 423 l 941 278 q 930 278 940 278 q 902 279 920 278 q 860 278 884 279 q 806 276 835 278 q 821 197 806 227 q 864 149 836 166 q 934 125 893 131 q 1028 118 975 118 l 1040 118 l 1040 0 l 1028 0 q 884 15 947 0 q 777 62 821 30 q 709 144 732 94 q 685 265 685 194 q 549 240 618 257 q 415 195 479 224 q 382 177 402 188 q 340 150 362 166 q 296 113 318 134 q 257 65 275 92 q 227 7 239 39 q 211 -62 214 -25 q 211 -82 211 -72 q 226 -171 211 -128 q 274 -252 242 -215 q 351 -313 306 -288 q 447 -351 396 -338 q 554 -365 499 -364 l 565 -365 q 666 -354 614 -365 q 767 -318 717 -342 q 856 -255 816 -293 l 934 -347 q 844 -410 891 -385 q 748 -450 797 -435 q 649 -471 699 -465 q 551 -478 599 -478 m 669 68 l 767 -30 l 668 -129 l 570 -31 l 669 68 m 405 68 l 503 -31 l 404 -130 l 306 -31 l 405 68 m 539 -123 l 629 -213 l 539 -303 l 449 -213 l 539 -123 z "},"أ":{"ha":317,"x_min":-2,"x_max":310,"o":"m 215 874 q 231 644 225 752 q 239 439 237 536 q 241 258 241 339 q 239 135 241 210 q 229 0 238 60 l 111 7 q 122 193 119 101 q 124 296 124 245 q 123 377 124 336 q 112 655 118 536 q 97 856 105 774 l 215 874 m 220 1168 q 188 1175 200 1173 q 164 1176 176 1176 q 146 1175 155 1176 q 127 1170 136 1175 q 104 1154 113 1164 q 89 1131 94 1144 q 85 1108 85 1120 q 85 1099 85 1106 q 91 1080 85 1092 q 109 1057 98 1068 q 134 1041 121 1047 q 163 1034 148 1035 l 165 1034 q 191 1041 179 1034 l 275 1086 l 310 1039 l 164 954 l 27 877 l -2 930 l 106 990 q 62 1020 81 1001 q 33 1063 43 1039 q 25 1107 25 1085 q 30 1144 25 1126 q 47 1177 36 1162 q 72 1205 57 1193 q 105 1224 87 1217 q 164 1236 132 1236 q 191 1234 178 1236 q 214 1229 204 1232 l 237 1224 l 220 1168 z "},"ﺃ":{"ha":317,"x_min":-2,"x_max":310,"o":"m 215 874 q 231 644 225 752 q 239 439 237 536 q 241 258 241 339 q 239 135 241 210 q 229 0 238 60 l 111 7 q 122 193 119 101 q 124 296 124 245 q 123 377 124 336 q 112 655 118 536 q 97 856 105 774 l 215 874 m 220 1168 q 188 1175 200 1173 q 164 1176 176 1176 q 146 1175 155 1176 q 127 1170 136 1175 q 104 1154 113 1164 q 89 1131 94 1144 q 85 1108 85 1120 q 85 1099 85 1106 q 91 1080 85 1092 q 109 1057 98 1068 q 134 1041 121 1047 q 163 1034 148 1035 l 165 1034 q 191 1041 179 1034 l 275 1086 l 310 1039 l 164 954 l 27 877 l -2 930 l 106 990 q 62 1020 81 1001 q 33 1063 43 1039 q 25 1107 25 1085 q 30 1144 25 1126 q 47 1177 36 1162 q 72 1205 57 1193 q 105 1224 87 1217 q 164 1236 132 1236 q 191 1234 178 1236 q 214 1229 204 1232 l 237 1224 l 220 1168 z "},"ﺄ":{"ha":386,"x_min":22,"x_max":399,"o":"m 399 0 l 386 0 q 268 17 315 0 q 193 65 220 34 q 154 141 165 97 q 143 241 143 185 q 144 465 143 351 l 144 487 q 139 687 144 589 q 133 777 137 734 q 123 850 129 821 l 242 872 q 251 796 247 841 q 258 705 255 752 q 265 482 265 592 q 265 410 265 473 q 263 228 264 347 q 272 171 263 192 q 297 138 281 149 q 335 122 313 126 q 384 118 357 118 l 399 118 l 399 0 m 244 1168 q 212 1175 224 1173 q 188 1176 200 1176 q 170 1175 179 1176 q 151 1170 161 1175 q 128 1154 137 1164 q 114 1131 118 1144 q 109 1108 109 1120 q 109 1099 109 1106 q 115 1080 109 1092 q 133 1057 122 1068 q 159 1041 145 1047 q 187 1034 172 1035 l 190 1034 q 215 1041 203 1034 l 299 1086 l 335 1039 l 188 954 l 51 877 l 22 930 l 130 990 q 86 1020 105 1001 q 57 1063 68 1039 q 49 1107 49 1085 q 55 1144 49 1126 q 71 1177 60 1162 q 96 1205 82 1193 q 129 1224 111 1217 q 188 1236 156 1236 q 215 1234 202 1236 q 238 1229 228 1232 l 261 1224 l 244 1168 z "},"إ":{"ha":307,"x_min":2,"x_max":314,"o":"m 215 874 q 231 644 225 752 q 239 439 237 536 q 241 258 241 339 q 239 135 241 210 q 229 0 238 60 l 111 7 q 122 193 119 101 q 124 296 124 245 q 123 377 124 336 q 112 655 118 536 q 97 856 105 774 l 215 874 m 223 -139 q 191 -133 204 -135 q 168 -132 179 -132 q 149 -133 159 -132 q 130 -138 140 -133 q 107 -154 117 -144 q 93 -177 98 -164 q 89 -200 89 -188 q 89 -209 89 -202 q 95 -228 89 -216 q 113 -251 101 -240 q 138 -267 124 -261 q 167 -274 152 -273 l 169 -274 q 194 -267 182 -274 l 278 -222 l 314 -269 l 168 -354 l 31 -431 l 2 -378 l 110 -318 q 66 -288 85 -307 q 37 -245 47 -269 q 28 -200 28 -223 q 34 -164 28 -182 q 50 -131 40 -146 q 76 -103 61 -115 q 109 -84 91 -91 q 168 -72 136 -72 q 194 -74 182 -72 q 217 -79 207 -76 l 240 -84 l 223 -139 z "},"ﺇ":{"ha":307,"x_min":2,"x_max":314,"o":"m 215 874 q 231 644 225 752 q 239 439 237 536 q 241 258 241 339 q 239 135 241 210 q 229 0 238 60 l 111 7 q 122 193 119 101 q 124 296 124 245 q 123 377 124 336 q 112 655 118 536 q 97 856 105 774 l 215 874 m 223 -139 q 191 -133 204 -135 q 168 -132 179 -132 q 149 -133 159 -132 q 130 -138 140 -133 q 107 -154 117 -144 q 93 -177 98 -164 q 89 -200 89 -188 q 89 -209 89 -202 q 95 -228 89 -216 q 113 -251 101 -240 q 138 -267 124 -261 q 167 -274 152 -273 l 169 -274 q 194 -267 182 -274 l 278 -222 l 314 -269 l 168 -354 l 31 -431 l 2 -378 l 110 -318 q 66 -288 85 -307 q 37 -245 47 -269 q 28 -200 28 -223 q 34 -164 28 -182 q 50 -131 40 -146 q 76 -103 61 -115 q 109 -84 91 -91 q 168 -72 136 -72 q 194 -74 182 -72 q 217 -79 207 -76 l 240 -84 l 223 -139 z "},"ﺈ":{"ha":386,"x_min":62,"x_max":399,"o":"m 399 0 l 386 0 q 268 17 315 0 q 193 65 220 34 q 154 141 165 97 q 143 241 143 185 q 144 465 143 351 l 144 487 q 139 687 144 589 q 133 777 137 734 q 123 850 129 821 l 242 872 q 251 796 247 841 q 258 705 255 752 q 265 482 265 592 q 265 410 265 473 q 263 228 264 347 q 272 171 263 192 q 297 138 281 149 q 335 122 313 126 q 384 118 357 118 l 399 118 l 399 0 m 284 -139 q 252 -133 264 -135 q 228 -132 240 -132 q 210 -133 219 -132 q 191 -138 200 -133 q 168 -154 177 -144 q 153 -177 158 -164 q 149 -200 149 -188 q 149 -209 149 -202 q 155 -228 149 -216 q 173 -251 162 -240 q 198 -267 185 -261 q 227 -274 212 -273 l 229 -274 q 255 -267 243 -274 l 339 -222 l 374 -269 l 228 -354 l 91 -431 l 62 -378 l 170 -318 q 126 -288 145 -307 q 97 -245 107 -269 q 89 -200 89 -223 q 95 -164 89 -182 q 111 -131 100 -146 q 136 -103 121 -115 q 169 -84 151 -91 q 228 -72 196 -72 q 255 -74 242 -72 q 278 -79 268 -76 l 301 -84 l 284 -139 z "},"آ":{"ha":427,"x_min":-18,"x_max":442,"o":"m 269 874 q 286 644 280 752 q 293 439 292 536 q 295 258 295 339 q 294 135 295 210 q 284 0 292 60 l 165 7 q 176 193 173 101 q 178 296 178 245 q 177 377 178 336 q 166 655 173 536 q 151 856 159 774 l 269 874 m -18 929 q 2 982 -13 957 q 36 1026 16 1007 q 82 1056 57 1045 q 132 1067 106 1067 q 181 1060 159 1067 q 220 1046 202 1054 q 253 1034 237 1039 q 287 1029 269 1030 l 290 1029 q 316 1036 303 1029 q 341 1052 330 1042 q 361 1072 353 1062 q 373 1086 370 1082 l 442 1042 q 436 1033 441 1040 q 421 1014 431 1025 q 397 990 411 1002 q 366 967 383 978 q 328 950 348 957 q 288 944 309 944 l 284 944 q 235 951 257 944 q 193 966 213 958 q 156 979 173 973 q 132 982 144 982 q 120 981 126 982 q 99 971 109 980 q 82 949 89 961 q 69 924 74 937 q 62 905 64 912 l -18 929 z "},"ﺁ":{"ha":427,"x_min":-18,"x_max":442,"o":"m 269 874 q 286 644 280 752 q 293 439 292 536 q 295 258 295 339 q 294 135 295 210 q 284 0 292 60 l 165 7 q 176 193 173 101 q 178 296 178 245 q 177 377 178 336 q 166 655 173 536 q 151 856 159 774 l 269 874 m -18 929 q 2 982 -13 957 q 36 1026 16 1007 q 82 1056 57 1045 q 132 1067 106 1067 q 181 1060 159 1067 q 220 1046 202 1054 q 253 1034 237 1039 q 287 1029 269 1030 l 290 1029 q 316 1036 303 1029 q 341 1052 330 1042 q 361 1072 353 1062 q 373 1086 370 1082 l 442 1042 q 436 1033 441 1040 q 421 1014 431 1025 q 397 990 411 1002 q 366 967 383 978 q 328 950 348 957 q 288 944 309 944 l 284 944 q 235 951 257 944 q 193 966 213 958 q 156 979 173 973 q 132 982 144 982 q 120 981 126 982 q 99 971 109 980 q 82 949 89 961 q 69 924 74 937 q 62 905 64 912 l -18 929 z "},"ﺂ":{"ha":386,"x_min":-18,"x_max":442,"o":"m 399 0 l 386 0 q 268 17 315 0 q 193 65 220 34 q 154 141 165 97 q 143 241 143 185 q 144 465 143 351 l 144 487 q 139 687 144 589 q 133 777 137 734 q 123 850 129 821 l 242 872 q 251 796 247 841 q 258 705 255 752 q 265 482 265 592 q 265 410 265 473 q 263 228 264 347 q 272 171 263 192 q 297 138 281 149 q 335 122 313 126 q 384 118 357 118 l 399 118 l 399 0 m -18 929 q 2 982 -13 957 q 36 1026 16 1007 q 82 1056 57 1045 q 132 1067 106 1067 q 181 1060 159 1067 q 220 1046 202 1054 q 253 1034 237 1039 q 287 1029 269 1030 l 290 1029 q 316 1036 303 1029 q 341 1052 330 1042 q 361 1072 353 1062 q 373 1086 370 1082 l 442 1042 q 436 1033 441 1040 q 421 1014 431 1025 q 397 990 411 1002 q 366 967 383 978 q 328 950 348 957 q 288 944 309 944 l 284 944 q 235 951 257 944 q 193 966 213 958 q 156 979 173 973 q 132 982 144 982 q 120 981 126 982 q 99 971 109 980 q 82 949 89 961 q 69 924 74 937 q 62 905 64 912 l -18 929 z "},"ٱ":{"ha":351,"x_min":-42,"x_max":352,"o":"m 233 874 q 249 644 243 752 q 257 439 255 536 q 259 258 259 339 q 258 135 259 210 q 248 0 256 60 l 129 7 q 140 193 137 101 q 142 296 142 245 q 141 377 142 336 q 130 655 136 536 q 115 856 123 774 l 233 874 m 284 1026 q 295 1039 292 1033 q 300 1051 298 1045 q 300 1059 300 1055 q 298 1070 300 1064 q 289 1081 295 1076 q 275 1089 283 1086 q 261 1091 268 1091 l 258 1091 q 215 1079 235 1091 q 181 1052 195 1068 q 147 1004 162 1033 q 187 1002 168 1002 q 244 1008 219 1002 q 284 1026 269 1013 m 347 1084 q 352 1059 352 1071 q 351 1049 352 1057 q 345 1028 351 1041 q 331 1004 340 1015 q 312 984 322 992 q 252 958 284 964 q 181 950 219 952 l 171 950 q 122 957 142 950 q 88 972 102 963 q 65 988 74 981 q 43 995 55 995 l 41 995 q 12 986 27 994 q -21 966 -2 978 l -42 1015 q 8 1038 -16 1031 q 45 1045 33 1045 q 98 1024 76 1045 q 118 1056 108 1042 q 139 1083 129 1071 q 203 1132 167 1116 q 257 1143 228 1143 q 312 1130 290 1143 q 346 1087 335 1116 l 347 1084 z "},"ﭐ":{"ha":351,"x_min":-42,"x_max":352,"o":"m 233 874 q 249 644 243 752 q 257 439 255 536 q 259 258 259 339 q 258 135 259 210 q 248 0 256 60 l 129 7 q 140 193 137 101 q 142 296 142 245 q 141 377 142 336 q 130 655 136 536 q 115 856 123 774 l 233 874 m 284 1026 q 295 1039 292 1033 q 300 1051 298 1045 q 300 1059 300 1055 q 298 1070 300 1064 q 289 1081 295 1076 q 275 1089 283 1086 q 261 1091 268 1091 l 258 1091 q 215 1079 235 1091 q 181 1052 195 1068 q 147 1004 162 1033 q 187 1002 168 1002 q 244 1008 219 1002 q 284 1026 269 1013 m 347 1084 q 352 1059 352 1071 q 351 1049 352 1057 q 345 1028 351 1041 q 331 1004 340 1015 q 312 984 322 992 q 252 958 284 964 q 181 950 219 952 l 171 950 q 122 957 142 950 q 88 972 102 963 q 65 988 74 981 q 43 995 55 995 l 41 995 q 12 986 27 994 q -21 966 -2 978 l -42 1015 q 8 1038 -16 1031 q 45 1045 33 1045 q 98 1024 76 1045 q 118 1056 108 1042 q 139 1083 129 1071 q 203 1132 167 1116 q 257 1143 228 1143 q 312 1130 290 1143 q 346 1087 335 1116 l 347 1084 z "},"ﭑ":{"ha":386,"x_min":4,"x_max":399,"o":"m 399 0 l 386 0 q 268 17 315 0 q 193 65 220 34 q 154 141 165 97 q 143 241 143 185 q 144 465 143 351 l 144 487 q 139 687 144 589 q 133 777 137 734 q 123 850 129 821 l 242 872 q 251 796 247 841 q 258 705 255 752 q 265 482 265 592 q 265 410 265 473 q 263 228 264 347 q 272 171 263 192 q 297 138 281 149 q 335 122 313 126 q 384 118 357 118 l 399 118 l 399 0 m 330 1026 q 341 1039 338 1033 q 345 1051 344 1045 q 346 1059 346 1055 q 344 1070 346 1064 q 335 1081 341 1076 q 321 1089 329 1086 q 307 1091 314 1091 l 304 1091 q 261 1079 281 1091 q 226 1052 241 1068 q 193 1004 208 1033 q 232 1002 214 1002 q 290 1008 265 1002 q 330 1026 315 1013 m 393 1084 q 398 1059 398 1071 q 397 1049 398 1057 q 391 1028 397 1041 q 377 1004 386 1015 q 358 984 368 992 q 298 958 330 964 q 226 950 265 952 l 217 950 q 168 957 188 950 q 134 972 148 963 q 111 988 120 981 q 89 995 101 995 l 87 995 q 58 986 72 994 q 25 966 43 978 l 4 1015 q 54 1038 30 1031 q 91 1045 79 1045 q 144 1024 122 1045 q 164 1056 154 1042 q 185 1083 175 1071 q 249 1132 213 1116 q 303 1143 274 1143 q 358 1130 336 1143 q 392 1087 380 1116 l 393 1084 z "},"ب":{"ha":1216,"x_min":59,"x_max":1163,"o":"m 600 0 q 253 50 384 2 q 84 188 129 98 q 59 295 59 237 q 82 414 59 352 q 99 454 91 436 q 116 486 108 472 q 129 507 124 499 q 136 517 135 515 l 232 446 q 221 428 226 437 q 211 411 216 420 q 201 392 206 402 q 193 370 197 382 q 178 296 178 330 q 190 243 178 267 q 325 152 220 184 q 600 120 431 120 q 705 123 648 120 q 822 138 763 127 q 941 166 882 148 q 1051 212 1000 184 q 1039 269 1048 239 q 1017 328 1030 299 q 991 383 1005 357 q 965 430 977 409 q 945 462 954 450 q 937 475 937 475 l 1037 540 q 1052 515 1038 538 q 1085 457 1066 493 q 1123 376 1104 421 q 1153 284 1142 331 q 1162 229 1160 254 q 1163 216 1163 223 q 1158 182 1163 200 q 1137 147 1153 165 q 1094 111 1122 129 q 1030 79 1066 94 q 952 52 994 64 q 865 29 911 39 q 774 13 819 19 q 684 3 728 6 q 611 0 646 0 l 600 0 m 696 -216 l 598 -315 l 499 -216 l 597 -117 l 696 -216 z "},"ﺏ":{"ha":1216,"x_min":59,"x_max":1163,"o":"m 600 0 q 253 50 384 2 q 84 188 129 98 q 59 295 59 237 q 82 414 59 352 q 99 454 91 436 q 116 486 108 472 q 129 507 124 499 q 136 517 135 515 l 232 446 q 221 428 226 437 q 211 411 216 420 q 201 392 206 402 q 193 370 197 382 q 178 296 178 330 q 190 243 178 267 q 325 152 220 184 q 600 120 431 120 q 705 123 648 120 q 822 138 763 127 q 941 166 882 148 q 1051 212 1000 184 q 1039 269 1048 239 q 1017 328 1030 299 q 991 383 1005 357 q 965 430 977 409 q 945 462 954 450 q 937 475 937 475 l 1037 540 q 1052 515 1038 538 q 1085 457 1066 493 q 1123 376 1104 421 q 1153 284 1142 331 q 1162 229 1160 254 q 1163 216 1163 223 q 1158 182 1163 200 q 1137 147 1153 165 q 1094 111 1122 129 q 1030 79 1066 94 q 952 52 994 64 q 865 29 911 39 q 774 13 819 19 q 684 3 728 6 q 611 0 646 0 l 600 0 m 696 -216 l 598 -315 l 499 -216 l 597 -117 l 696 -216 z "},"ﺑ":{"ha":432,"x_min":-12,"x_max":376,"o":"m -12 118 l 58 118 q 123 120 93 118 q 176 129 152 121 q 219 150 200 136 q 249 190 237 164 q 258 222 255 202 q 260 249 260 234 q 258 273 260 257 q 251 317 257 289 q 231 376 244 345 l 179 505 l 286 558 q 292 546 286 557 q 306 514 297 534 q 325 468 315 494 q 344 412 335 441 q 376 257 371 324 q 376 238 376 248 q 358 141 376 183 q 314 73 340 100 q 253 30 287 46 q 176 7 219 13 q 84 0 133 0 l -12 0 l -12 118 m 281 -216 l 183 -315 l 84 -216 l 182 -117 l 281 -216 z "},"ﺒ":{"ha":426,"x_min":-12,"x_max":438,"o":"m 438 118 l 438 0 l 426 0 q 324 21 365 0 q 258 75 284 42 q 159 18 220 37 q 10 0 99 0 l -12 0 l -12 118 l 10 118 q 158 155 112 118 q 204 263 204 191 q 198 333 204 298 q 180 415 193 369 l 293 447 q 304 406 300 426 q 311 365 308 386 q 317 318 314 343 q 322 260 319 292 q 329 213 324 238 q 345 167 333 188 q 375 132 356 146 q 426 118 395 118 l 438 118 m 301 -216 l 203 -315 l 104 -216 l 202 -117 l 301 -216 z "},"ﺐ":{"ha":1399,"x_min":102,"x_max":1411,"o":"m 1161 99 q 1124 165 1137 128 q 621 -2 964 -2 q 317 42 437 -1 q 142 176 196 85 q 115 237 124 206 q 103 300 106 269 q 102 331 102 316 q 104 369 102 346 q 113 418 106 391 q 142 509 128 476 q 159 547 156 543 l 264 490 q 258 478 264 489 q 246 447 253 466 q 233 404 240 429 q 226 352 227 379 q 225 337 225 345 q 229 293 225 317 q 249 243 234 268 q 378 150 285 181 q 621 118 472 119 q 848 142 754 118 q 1004 216 941 165 q 1051 263 1031 237 q 1085 317 1071 289 q 1110 373 1100 345 q 1127 429 1120 402 l 1242 397 q 1235 370 1239 386 q 1228 338 1231 354 q 1223 306 1225 321 q 1222 283 1222 292 l 1222 278 q 1229 223 1223 252 q 1255 173 1236 195 q 1396 118 1297 119 l 1411 118 l 1411 0 l 1394 0 q 1161 99 1237 2 m 737 -216 l 639 -315 l 540 -216 l 638 -117 l 737 -216 z "},"پ":{"ha":1216,"x_min":59,"x_max":1163,"o":"m 600 0 q 253 50 384 2 q 84 188 129 98 q 59 295 59 237 q 82 414 59 352 q 99 454 91 436 q 116 486 108 472 q 129 507 124 499 q 136 517 135 515 l 232 446 q 221 428 226 437 q 211 411 216 420 q 201 392 206 402 q 193 370 197 382 q 178 296 178 330 q 190 243 178 267 q 325 152 220 184 q 600 120 431 120 q 705 123 648 120 q 822 138 763 127 q 941 166 882 148 q 1051 212 1000 184 q 1039 269 1048 239 q 1017 328 1030 299 q 991 383 1005 357 q 965 430 977 409 q 945 462 954 450 q 937 475 937 475 l 1037 540 q 1052 515 1038 538 q 1085 457 1066 493 q 1123 376 1104 421 q 1153 284 1142 331 q 1162 229 1160 254 q 1163 216 1163 223 q 1158 182 1163 200 q 1137 147 1153 165 q 1094 111 1122 129 q 1030 79 1066 94 q 952 52 994 64 q 865 29 911 39 q 774 13 819 19 q 684 3 728 6 q 611 0 646 0 l 600 0 m 732 -118 l 830 -216 l 731 -315 l 633 -217 l 732 -118 m 468 -118 l 566 -217 l 467 -316 l 369 -217 l 468 -118 m 602 -309 l 691 -399 l 601 -489 l 512 -399 l 602 -309 z "},"ﭖ":{"ha":1216,"x_min":59,"x_max":1163,"o":"m 600 0 q 253 50 384 2 q 84 188 129 98 q 59 295 59 237 q 82 414 59 352 q 99 454 91 436 q 116 486 108 472 q 129 507 124 499 q 136 517 135 515 l 232 446 q 221 428 226 437 q 211 411 216 420 q 201 392 206 402 q 193 370 197 382 q 178 296 178 330 q 190 243 178 267 q 325 152 220 184 q 600 120 431 120 q 705 123 648 120 q 822 138 763 127 q 941 166 882 148 q 1051 212 1000 184 q 1039 269 1048 239 q 1017 328 1030 299 q 991 383 1005 357 q 965 430 977 409 q 945 462 954 450 q 937 475 937 475 l 1037 540 q 1052 515 1038 538 q 1085 457 1066 493 q 1123 376 1104 421 q 1153 284 1142 331 q 1162 229 1160 254 q 1163 216 1163 223 q 1158 182 1163 200 q 1137 147 1153 165 q 1094 111 1122 129 q 1030 79 1066 94 q 952 52 994 64 q 865 29 911 39 q 774 13 819 19 q 684 3 728 6 q 611 0 646 0 l 600 0 m 732 -118 l 830 -216 l 731 -315 l 633 -217 l 732 -118 m 468 -118 l 566 -217 l 467 -316 l 369 -217 l 468 -118 m 602 -309 l 691 -399 l 601 -489 l 512 -399 l 602 -309 z "},"ﭗ":{"ha":1399,"x_min":102,"x_max":1411,"o":"m 1161 99 q 1124 165 1137 128 q 621 -2 964 -2 q 317 42 437 -1 q 142 176 196 85 q 115 237 124 206 q 103 300 106 269 q 102 331 102 316 q 104 369 102 346 q 113 418 106 391 q 142 509 128 476 q 159 547 156 543 l 264 490 q 258 478 264 489 q 246 447 253 466 q 233 404 240 429 q 226 352 227 379 q 225 337 225 345 q 229 293 225 317 q 249 243 234 268 q 378 150 285 181 q 621 118 472 119 q 848 142 754 118 q 1004 216 941 165 q 1051 263 1031 237 q 1085 317 1071 289 q 1110 373 1100 345 q 1127 429 1120 402 l 1242 397 q 1235 370 1239 386 q 1228 338 1231 354 q 1223 306 1225 321 q 1222 283 1222 292 l 1222 278 q 1229 223 1223 252 q 1255 173 1236 195 q 1396 118 1297 119 l 1411 118 l 1411 0 l 1394 0 q 1161 99 1237 2 m 737 -118 l 835 -216 l 736 -315 l 638 -217 l 737 -118 m 473 -118 l 571 -217 l 472 -316 l 374 -217 l 473 -118 m 607 -309 l 697 -399 l 607 -489 l 518 -399 l 607 -309 z "},"ﭘ":{"ha":509,"x_min":-12,"x_max":460,"o":"m -12 118 l 104 118 q 173 120 139 118 q 234 129 206 121 q 284 150 263 136 q 318 190 306 164 q 327 222 324 202 q 329 249 329 234 q 328 273 329 257 q 320 317 327 289 q 301 376 313 345 l 248 505 l 356 558 q 361 546 356 557 q 375 514 367 534 q 394 468 384 494 q 414 412 405 441 q 445 257 441 324 q 446 238 446 248 q 428 141 446 183 q 380 73 409 100 q 311 30 350 46 q 226 7 272 13 q 130 0 180 0 l -12 0 l -12 118 m 362 -118 l 460 -216 l 361 -315 l 263 -217 l 362 -118 m 98 -118 l 196 -217 l 97 -316 l -1 -217 l 98 -118 m 232 -309 l 321 -399 l 231 -489 l 142 -399 l 232 -309 z "},"ﭙ":{"ha":514,"x_min":-12,"x_max":527,"o":"m 527 118 l 527 0 l 514 0 q 413 21 454 0 q 347 75 373 42 q 304 42 327 56 q 250 18 281 28 q 177 5 219 9 q 78 0 135 0 l -12 0 l -12 118 l 78 118 q 176 127 135 118 q 242 155 217 136 q 280 200 268 173 q 292 263 292 227 q 287 333 292 298 q 269 415 282 369 l 382 447 q 393 406 388 426 q 400 365 397 386 q 405 318 403 343 q 411 260 408 292 q 417 213 412 238 q 433 167 422 188 q 464 132 444 146 q 514 118 484 118 l 527 118 m 362 -118 l 460 -216 l 361 -315 l 263 -217 l 362 -118 m 98 -118 l 196 -217 l 97 -316 l -1 -217 l 98 -118 m 232 -309 l 321 -399 l 231 -489 l 142 -399 l 232 -309 z "},"ت":{"ha":1216,"x_min":59,"x_max":1163,"o":"m 600 0 q 253 50 384 2 q 84 188 129 98 q 59 295 59 237 q 82 414 59 352 q 99 454 91 436 q 116 486 108 472 q 129 507 124 499 q 136 517 135 515 l 232 446 q 221 428 226 437 q 211 411 216 420 q 201 392 206 402 q 193 370 197 382 q 178 296 178 330 q 190 243 178 267 q 325 152 220 184 q 600 120 431 120 q 705 123 648 120 q 822 138 763 127 q 941 166 882 148 q 1051 212 1000 184 q 1039 269 1048 239 q 1017 328 1030 299 q 991 383 1005 357 q 965 430 977 409 q 945 462 954 450 q 937 475 937 475 l 1037 540 q 1052 515 1038 538 q 1085 457 1066 493 q 1123 376 1104 421 q 1153 284 1142 331 q 1162 229 1160 254 q 1163 216 1163 223 q 1158 182 1163 200 q 1137 147 1153 165 q 1094 111 1122 129 q 1030 79 1066 94 q 952 52 994 64 q 865 29 911 39 q 774 13 819 19 q 684 3 728 6 q 611 0 646 0 l 600 0 m 585 594 l 487 496 l 388 594 l 486 693 l 585 594 m 833 593 l 735 495 l 636 594 l 734 691 l 833 593 z "},"ﺕ":{"ha":1216,"x_min":59,"x_max":1163,"o":"m 600 0 q 253 50 384 2 q 84 188 129 98 q 59 295 59 237 q 82 414 59 352 q 99 454 91 436 q 116 486 108 472 q 129 507 124 499 q 136 517 135 515 l 232 446 q 221 428 226 437 q 211 411 216 420 q 201 392 206 402 q 193 370 197 382 q 178 296 178 330 q 190 243 178 267 q 325 152 220 184 q 600 120 431 120 q 705 123 648 120 q 822 138 763 127 q 941 166 882 148 q 1051 212 1000 184 q 1039 269 1048 239 q 1017 328 1030 299 q 991 383 1005 357 q 965 430 977 409 q 945 462 954 450 q 937 475 937 475 l 1037 540 q 1052 515 1038 538 q 1085 457 1066 493 q 1123 376 1104 421 q 1153 284 1142 331 q 1162 229 1160 254 q 1163 216 1163 223 q 1158 182 1163 200 q 1137 147 1153 165 q 1094 111 1122 129 q 1030 79 1066 94 q 952 52 994 64 q 865 29 911 39 q 774 13 819 19 q 684 3 728 6 q 611 0 646 0 l 600 0 m 585 594 l 487 496 l 388 594 l 486 693 l 585 594 m 833 593 l 735 495 l 636 594 l 734 691 l 833 593 z "},"ﺗ":{"ha":509,"x_min":-12,"x_max":492,"o":"m -12 118 l 104 118 q 173 120 139 118 q 234 129 206 121 q 284 150 263 136 q 318 190 306 164 q 327 222 324 202 q 329 249 329 234 q 328 273 329 257 q 320 317 327 289 q 301 376 313 345 l 248 505 l 356 558 q 361 546 356 557 q 375 514 367 534 q 394 468 384 494 q 414 412 405 441 q 445 257 441 324 q 446 238 446 248 q 428 141 446 183 q 380 73 409 100 q 311 30 350 46 q 226 7 272 13 q 130 0 180 0 l -12 0 l -12 118 m 244 764 l 146 666 l 47 764 l 145 863 l 244 764 m 492 763 l 394 665 l 295 764 l 393 862 l 492 763 z "},"ﺘ":{"ha":514,"x_min":-12,"x_max":527,"o":"m 527 118 l 527 0 l 514 0 q 413 21 454 0 q 347 75 373 42 q 304 42 327 56 q 250 18 281 28 q 177 5 219 9 q 78 0 135 0 l -12 0 l -12 118 l 78 118 q 176 127 135 118 q 242 155 217 136 q 280 200 268 173 q 292 263 292 227 q 287 333 292 298 q 269 415 282 369 l 382 447 q 393 406 388 426 q 400 365 397 386 q 405 318 403 343 q 411 260 408 292 q 417 213 412 238 q 433 167 422 188 q 464 132 444 146 q 514 118 484 118 l 527 118 m 244 670 l 146 572 l 47 670 l 145 769 l 244 670 m 492 669 l 394 571 l 295 670 l 393 768 l 492 669 z "},"ﺖ":{"ha":1399,"x_min":102,"x_max":1411,"o":"m 1161 99 q 1124 165 1137 128 q 621 -2 964 -2 q 317 42 437 -1 q 142 176 196 85 q 115 237 124 206 q 103 300 106 269 q 102 331 102 316 q 104 369 102 346 q 113 418 106 391 q 142 509 128 476 q 159 547 156 543 l 264 490 q 258 478 264 489 q 246 447 253 466 q 233 404 240 429 q 226 352 227 379 q 225 337 225 345 q 229 293 225 317 q 249 243 234 268 q 378 150 285 181 q 621 118 472 119 q 848 142 754 118 q 1004 216 941 165 q 1051 263 1031 237 q 1085 317 1071 289 q 1110 373 1100 345 q 1127 429 1120 402 l 1242 397 q 1235 370 1239 386 q 1228 338 1231 354 q 1223 306 1225 321 q 1222 283 1222 292 l 1222 278 q 1229 223 1223 252 q 1255 173 1236 195 q 1396 118 1297 119 l 1411 118 l 1411 0 l 1394 0 q 1161 99 1237 2 m 646 594 l 548 496 l 449 594 l 546 693 l 646 594 m 893 593 l 795 495 l 696 594 l 794 691 l 893 593 z "},"ث":{"ha":1216,"x_min":59,"x_max":1163,"o":"m 600 0 q 253 50 384 2 q 84 188 129 98 q 59 295 59 237 q 82 414 59 352 q 99 454 91 436 q 116 486 108 472 q 129 507 124 499 q 136 517 135 515 l 232 446 q 221 428 226 437 q 211 411 216 420 q 201 392 206 402 q 193 370 197 382 q 178 296 178 330 q 190 243 178 267 q 325 152 220 184 q 600 120 431 120 q 705 123 648 120 q 822 138 763 127 q 941 166 882 148 q 1051 212 1000 184 q 1039 269 1048 239 q 1017 328 1030 299 q 991 383 1005 357 q 965 430 977 409 q 945 462 954 450 q 937 475 937 475 l 1037 540 q 1052 515 1038 538 q 1085 457 1066 493 q 1123 376 1104 421 q 1153 284 1142 331 q 1162 229 1160 254 q 1163 216 1163 223 q 1158 182 1163 200 q 1137 147 1153 165 q 1094 111 1122 129 q 1030 79 1066 94 q 952 52 994 64 q 865 29 911 39 q 774 13 819 19 q 684 3 728 6 q 611 0 646 0 l 600 0 m 642 585 l 740 683 l 839 584 l 741 486 l 642 585 m 377 586 l 475 684 l 574 585 l 476 487 l 377 586 m 522 768 l 612 857 l 702 767 l 612 678 l 522 768 z "},"ﺙ":{"ha":1216,"x_min":59,"x_max":1163,"o":"m 600 0 q 253 50 384 2 q 84 188 129 98 q 59 295 59 237 q 82 414 59 352 q 99 454 91 436 q 116 486 108 472 q 129 507 124 499 q 136 517 135 515 l 232 446 q 221 428 226 437 q 211 411 216 420 q 201 392 206 402 q 193 370 197 382 q 178 296 178 330 q 190 243 178 267 q 325 152 220 184 q 600 120 431 120 q 705 123 648 120 q 822 138 763 127 q 941 166 882 148 q 1051 212 1000 184 q 1039 269 1048 239 q 1017 328 1030 299 q 991 383 1005 357 q 965 430 977 409 q 945 462 954 450 q 937 475 937 475 l 1037 540 q 1052 515 1038 538 q 1085 457 1066 493 q 1123 376 1104 421 q 1153 284 1142 331 q 1162 229 1160 254 q 1163 216 1163 223 q 1158 182 1163 200 q 1137 147 1153 165 q 1094 111 1122 129 q 1030 79 1066 94 q 952 52 994 64 q 865 29 911 39 q 774 13 819 19 q 684 3 728 6 q 611 0 646 0 l 600 0 m 642 585 l 740 683 l 839 584 l 741 486 l 642 585 m 377 586 l 475 684 l 574 585 l 476 487 l 377 586 m 522 768 l 612 857 l 702 767 l 612 678 l 522 768 z "},"ﺛ":{"ha":509,"x_min":-12,"x_max":480,"o":"m -12 118 l 104 118 q 173 120 139 118 q 234 129 206 121 q 284 150 263 136 q 318 190 306 164 q 327 222 324 202 q 329 249 329 234 q 328 273 329 257 q 320 317 327 289 q 301 376 313 345 l 248 505 l 356 558 q 361 546 356 557 q 375 514 367 534 q 394 468 384 494 q 414 412 405 441 q 445 257 441 324 q 446 238 446 248 q 428 141 446 183 q 380 73 409 100 q 311 30 350 46 q 226 7 272 13 q 130 0 180 0 l -12 0 l -12 118 m 283 766 l 381 864 l 480 765 l 382 667 l 283 766 m 18 767 l 116 865 l 215 766 l 117 668 l 18 767 m 164 949 l 253 1038 l 343 948 l 254 859 l 164 949 z "},"ﺜ":{"ha":514,"x_min":-12,"x_max":527,"o":"m 527 118 l 527 0 l 514 0 q 413 21 454 0 q 347 75 373 42 q 304 42 327 56 q 250 18 281 28 q 177 5 219 9 q 78 0 135 0 l -12 0 l -12 118 l 78 118 q 176 127 135 118 q 242 155 217 136 q 280 200 268 173 q 292 263 292 227 q 287 333 292 298 q 269 415 282 369 l 382 447 q 393 406 388 426 q 400 365 397 386 q 405 318 403 343 q 411 260 408 292 q 417 213 412 238 q 433 167 422 188 q 464 132 444 146 q 514 118 484 118 l 527 118 m 283 670 l 381 768 l 480 668 l 382 571 l 283 670 m 18 670 l 116 769 l 215 670 l 117 571 l 18 670 m 164 852 l 253 941 l 343 851 l 254 762 l 164 852 z "},"ﺚ":{"ha":1399,"x_min":102,"x_max":1411,"o":"m 1161 99 q 1124 165 1137 128 q 621 -2 964 -2 q 317 42 437 -1 q 142 176 196 85 q 115 237 124 206 q 103 300 106 269 q 102 331 102 316 q 104 369 102 346 q 113 418 106 391 q 142 509 128 476 q 159 547 156 543 l 264 490 q 258 478 264 489 q 246 447 253 466 q 233 404 240 429 q 226 352 227 379 q 225 337 225 345 q 229 293 225 317 q 249 243 234 268 q 378 150 285 181 q 621 118 472 119 q 848 142 754 118 q 1004 216 941 165 q 1051 263 1031 237 q 1085 317 1071 289 q 1110 373 1100 345 q 1127 429 1120 402 l 1242 397 q 1235 370 1239 386 q 1228 338 1231 354 q 1223 306 1225 321 q 1222 283 1222 292 l 1222 278 q 1229 223 1223 252 q 1255 173 1236 195 q 1396 118 1297 119 l 1411 118 l 1411 0 l 1394 0 q 1161 99 1237 2 m 701 585 l 799 683 l 898 584 l 800 486 l 701 585 m 436 586 l 534 684 l 633 585 l 535 487 l 436 586 m 582 768 l 671 857 l 761 767 l 671 678 l 582 768 z "},"ٹ":{"ha":1216,"x_min":59,"x_max":1163,"o":"m 600 0 q 253 50 384 2 q 84 188 129 98 q 59 295 59 237 q 82 414 59 352 q 99 454 91 436 q 116 486 108 472 q 129 507 124 499 q 136 517 135 515 l 232 446 q 221 428 226 437 q 211 411 216 420 q 201 392 206 402 q 193 370 197 382 q 178 296 178 330 q 190 243 178 267 q 325 152 220 184 q 600 120 431 120 q 705 123 648 120 q 822 138 763 127 q 941 166 882 148 q 1051 212 1000 184 q 1039 269 1048 239 q 1017 328 1030 299 q 991 383 1005 357 q 965 430 977 409 q 945 462 954 450 q 937 475 937 475 l 1037 540 q 1052 515 1038 538 q 1085 457 1066 493 q 1123 376 1104 421 q 1153 284 1142 331 q 1162 229 1160 254 q 1163 216 1163 223 q 1158 182 1163 200 q 1137 147 1153 165 q 1094 111 1122 129 q 1030 79 1066 94 q 952 52 994 64 q 865 29 911 39 q 774 13 819 19 q 684 3 728 6 q 611 0 646 0 l 600 0 m 609 491 q 549 495 575 492 q 498 503 522 498 q 453 514 475 507 q 410 528 432 520 l 429 576 q 463 564 447 569 q 496 555 479 559 l 530 601 q 535 641 533 623 q 537 675 536 658 q 536 712 537 693 q 533 757 534 731 q 529 794 531 778 q 526 826 528 811 q 523 856 525 841 q 519 888 521 871 l 569 897 l 571 883 q 575 848 573 868 q 580 805 577 828 q 583 766 582 783 q 586 735 585 745 q 587 718 586 725 q 587 699 587 710 q 588 664 588 688 q 707 731 650 722 q 725 732 716 732 q 752 729 736 732 q 786 716 768 726 q 815 689 803 706 q 828 650 827 672 q 829 642 829 646 q 826 620 829 632 q 818 596 823 608 q 805 573 812 583 q 790 555 798 562 q 744 521 768 533 q 697 501 720 508 q 651 493 673 495 q 609 491 628 491 m 553 545 q 577 543 565 543 l 578 543 q 618 543 597 543 q 663 547 640 543 q 709 562 686 551 q 755 592 732 572 q 775 623 771 606 q 777 635 777 630 q 772 657 777 646 q 752 676 767 668 q 729 682 742 682 q 716 681 722 682 q 592 594 662 672 l 553 545 z "},"ﭦ":{"ha":1216,"x_min":59,"x_max":1163,"o":"m 600 0 q 253 50 384 2 q 84 188 129 98 q 59 295 59 237 q 82 414 59 352 q 99 454 91 436 q 116 486 108 472 q 129 507 124 499 q 136 517 135 515 l 232 446 q 221 428 226 437 q 211 411 216 420 q 201 392 206 402 q 193 370 197 382 q 178 296 178 330 q 190 243 178 267 q 325 152 220 184 q 600 120 431 120 q 705 123 648 120 q 822 138 763 127 q 941 166 882 148 q 1051 212 1000 184 q 1039 269 1048 239 q 1017 328 1030 299 q 991 383 1005 357 q 965 430 977 409 q 945 462 954 450 q 937 475 937 475 l 1037 540 q 1052 515 1038 538 q 1085 457 1066 493 q 1123 376 1104 421 q 1153 284 1142 331 q 1162 229 1160 254 q 1163 216 1163 223 q 1158 182 1163 200 q 1137 147 1153 165 q 1094 111 1122 129 q 1030 79 1066 94 q 952 52 994 64 q 865 29 911 39 q 774 13 819 19 q 684 3 728 6 q 611 0 646 0 l 600 0 m 609 491 q 549 495 575 492 q 498 503 522 498 q 453 514 475 507 q 410 528 432 520 l 429 576 q 463 564 447 569 q 496 555 479 559 l 530 601 q 535 641 533 623 q 537 675 536 658 q 536 712 537 693 q 533 757 534 731 q 529 794 531 778 q 526 826 528 811 q 523 856 525 841 q 519 888 521 871 l 569 897 l 571 883 q 575 848 573 868 q 580 805 577 828 q 583 766 582 783 q 586 735 585 745 q 587 718 586 725 q 587 699 587 710 q 588 664 588 688 q 707 731 650 722 q 725 732 716 732 q 752 729 736 732 q 786 716 768 726 q 815 689 803 706 q 828 650 827 672 q 829 642 829 646 q 826 620 829 632 q 818 596 823 608 q 805 573 812 583 q 790 555 798 562 q 744 521 768 533 q 697 501 720 508 q 651 493 673 495 q 609 491 628 491 m 553 545 q 577 543 565 543 l 578 543 q 618 543 597 543 q 663 547 640 543 q 709 562 686 551 q 755 592 732 572 q 775 623 771 606 q 777 635 777 630 q 772 657 777 646 q 752 676 767 668 q 729 682 742 682 q 716 681 722 682 q 592 594 662 672 l 553 545 z "},"ﭨ":{"ha":509,"x_min":-12,"x_max":467,"o":"m -12 118 l 104 118 q 173 120 139 118 q 234 129 206 121 q 284 150 263 136 q 318 190 306 164 q 327 222 324 202 q 329 249 329 234 q 328 273 329 257 q 320 317 327 289 q 301 376 313 345 l 248 505 l 356 558 q 361 546 356 557 q 375 514 367 534 q 394 468 384 494 q 414 412 405 441 q 445 257 441 324 q 446 238 446 248 q 428 141 446 183 q 380 73 409 100 q 311 30 350 46 q 226 7 272 13 q 130 0 180 0 l -12 0 l -12 118 m 248 667 q 188 671 214 668 q 137 679 161 675 q 92 690 114 684 q 49 705 71 696 l 68 752 q 102 741 86 746 q 135 731 118 736 l 168 777 q 174 817 172 800 q 175 852 175 835 q 175 888 176 869 q 171 934 173 908 q 168 971 170 954 q 165 1002 167 987 q 162 1032 164 1018 q 158 1064 160 1047 l 208 1074 l 210 1059 q 214 1024 212 1045 q 219 982 216 1004 q 222 943 221 959 q 225 911 224 921 q 226 894 225 902 q 226 875 226 886 q 227 840 226 864 q 346 908 289 899 q 364 909 355 909 q 391 906 375 909 q 425 893 407 903 q 454 865 442 882 q 467 826 466 848 q 467 818 467 822 q 465 796 467 808 q 457 772 462 784 q 444 749 451 760 q 429 731 437 739 q 383 697 407 710 q 336 678 359 684 q 290 669 312 671 q 248 667 267 667 m 191 722 q 216 720 204 720 l 217 720 q 257 719 236 719 q 302 723 279 719 q 348 738 325 728 q 394 768 371 748 q 414 800 410 783 q 415 812 415 806 q 411 833 415 822 q 391 853 406 845 q 368 858 381 858 q 354 857 361 858 q 231 771 301 848 l 191 722 z "},"ﭩ":{"ha":514,"x_min":-12,"x_max":527,"o":"m 527 118 l 527 0 l 514 0 q 413 21 454 0 q 347 75 373 42 q 304 42 327 56 q 250 18 281 28 q 177 5 219 9 q 78 0 135 0 l -12 0 l -12 118 l 78 118 q 176 127 135 118 q 242 155 217 136 q 280 200 268 173 q 292 263 292 227 q 287 333 292 298 q 269 415 282 369 l 382 447 q 393 406 388 426 q 400 365 397 386 q 405 318 403 343 q 411 260 408 292 q 417 213 412 238 q 433 167 422 188 q 464 132 444 146 q 514 118 484 118 l 527 118 m 248 572 q 188 577 214 574 q 137 584 161 580 q 92 595 114 589 q 49 610 71 601 l 68 658 q 102 646 86 651 q 135 636 118 641 l 168 682 q 174 722 172 705 q 175 757 175 740 q 175 793 176 774 q 171 839 173 813 q 168 876 170 859 q 165 908 167 893 q 162 938 164 923 q 158 969 160 952 l 208 979 l 210 964 q 214 930 212 950 q 219 887 216 909 q 222 848 221 864 q 225 816 224 826 q 226 799 225 807 q 226 780 226 792 q 227 745 226 769 q 346 813 289 804 q 364 814 355 814 q 391 811 375 814 q 425 798 407 808 q 454 771 442 787 q 467 731 466 754 q 467 723 467 727 q 465 701 467 713 q 457 677 462 690 q 444 654 451 665 q 429 636 437 644 q 383 602 407 615 q 336 583 359 589 q 290 574 312 576 q 248 572 267 572 m 191 627 q 216 625 204 625 l 217 625 q 257 624 236 624 q 302 629 279 624 q 348 643 325 633 q 394 673 371 653 q 414 705 410 688 q 415 717 415 711 q 411 739 415 727 q 391 758 406 750 q 368 763 381 763 q 354 762 361 763 q 231 676 301 754 l 191 627 z "},"ﭧ":{"ha":1399,"x_min":102,"x_max":1411,"o":"m 1161 99 q 1124 165 1137 128 q 621 -2 964 -2 q 317 42 437 -1 q 142 176 196 85 q 115 237 124 206 q 103 300 106 269 q 102 331 102 316 q 104 369 102 346 q 113 418 106 391 q 142 509 128 476 q 159 547 156 543 l 264 490 q 258 478 264 489 q 246 447 253 466 q 233 404 240 429 q 226 352 227 379 q 225 337 225 345 q 229 293 225 317 q 249 243 234 268 q 378 150 285 181 q 621 118 472 119 q 848 142 754 118 q 1004 216 941 165 q 1051 263 1031 237 q 1085 317 1071 289 q 1110 373 1100 345 q 1127 429 1120 402 l 1242 397 q 1235 370 1239 386 q 1228 338 1231 354 q 1223 306 1225 321 q 1222 283 1222 292 l 1222 278 q 1229 223 1223 252 q 1255 173 1236 195 q 1396 118 1297 119 l 1411 118 l 1411 0 l 1394 0 q 1161 99 1237 2 m 673 491 q 613 495 640 492 q 563 503 586 498 q 518 514 539 507 q 475 528 496 520 l 494 576 q 528 564 511 569 q 560 555 544 559 l 594 601 q 599 641 598 623 q 601 675 601 658 q 600 712 601 693 q 597 757 599 731 q 594 794 595 778 q 591 826 592 811 q 588 856 589 841 q 583 888 586 871 l 634 897 l 636 883 q 640 848 638 868 q 644 805 642 828 q 648 766 647 783 q 650 735 650 745 q 651 718 651 725 q 652 699 652 710 q 653 664 652 688 q 772 731 715 722 q 790 732 781 732 q 817 729 801 732 q 850 716 833 726 q 880 689 868 706 q 893 650 891 672 q 893 642 893 646 q 890 620 893 632 q 882 596 888 608 q 870 573 877 583 q 855 555 862 562 q 809 521 833 533 q 761 501 785 508 q 715 493 738 495 q 673 491 693 491 m 617 545 q 641 543 630 543 l 643 543 q 683 543 661 543 q 728 547 705 543 q 774 562 751 551 q 819 592 797 572 q 840 623 836 606 q 841 635 841 630 q 836 657 841 646 q 817 676 832 668 q 793 682 807 682 q 780 681 787 682 q 656 594 726 672 l 617 545 z "},"ة":{"ha":598,"x_min":48,"x_max":539,"o":"m 293 0 q 278 0 290 0 q 248 3 266 1 q 209 12 231 6 q 165 29 187 18 q 77 102 107 56 q 48 210 48 147 q 146 437 48 319 q 184 479 166 461 q 217 511 203 498 q 188 536 199 527 q 177 546 177 545 l 253 638 q 266 627 254 637 q 297 598 278 617 q 342 556 317 580 q 393 502 367 531 q 503 345 467 418 q 539 210 539 272 q 512 101 539 147 q 431 30 484 56 q 392 14 412 20 q 354 5 372 8 q 320 1 336 2 q 293 0 304 0 m 300 425 q 259 385 283 409 q 216 332 236 361 q 181 272 195 303 q 167 210 167 240 q 168 191 167 200 q 175 172 170 181 q 190 153 180 162 q 216 137 199 144 q 239 128 227 132 q 261 123 251 125 q 280 121 272 121 q 293 120 289 120 q 309 120 299 120 q 330 123 318 121 q 354 127 341 124 q 378 136 367 130 q 410 165 400 148 q 420 210 420 182 q 389 306 420 249 q 300 425 359 362 m 258 812 l 161 714 l 62 812 l 159 911 l 258 812 m 506 811 l 408 713 l 309 812 l 407 909 l 506 811 z "},"ﺓ":{"ha":598,"x_min":48,"x_max":539,"o":"m 293 0 q 278 0 290 0 q 248 3 266 1 q 209 12 231 6 q 165 29 187 18 q 77 102 107 56 q 48 210 48 147 q 146 437 48 319 q 184 479 166 461 q 217 511 203 498 q 188 536 199 527 q 177 546 177 545 l 253 638 q 266 627 254 637 q 297 598 278 617 q 342 556 317 580 q 393 502 367 531 q 503 345 467 418 q 539 210 539 272 q 512 101 539 147 q 431 30 484 56 q 392 14 412 20 q 354 5 372 8 q 320 1 336 2 q 293 0 304 0 m 300 425 q 259 385 283 409 q 216 332 236 361 q 181 272 195 303 q 167 210 167 240 q 168 191 167 200 q 175 172 170 181 q 190 153 180 162 q 216 137 199 144 q 239 128 227 132 q 261 123 251 125 q 280 121 272 121 q 293 120 289 120 q 309 120 299 120 q 330 123 318 121 q 354 127 341 124 q 378 136 367 130 q 410 165 400 148 q 420 210 420 182 q 389 306 420 249 q 300 425 359 362 m 258 812 l 161 714 l 62 812 l 159 911 l 258 812 m 506 811 l 408 713 l 309 812 l 407 909 l 506 811 z "},"ﺔ":{"ha":658,"x_min":80,"x_max":670,"o":"m 670 118 l 670 0 l 658 0 q 604 4 635 0 q 540 22 572 8 q 461 96 493 45 q 390 87 423 90 q 329 85 358 85 q 112 160 173 85 q 88 204 95 180 q 80 249 81 227 l 80 260 q 83 293 80 277 q 92 323 86 310 q 131 385 108 357 q 179 436 153 414 q 232 477 205 459 q 285 508 260 495 q 334 531 311 522 q 374 546 357 540 q 367 614 369 592 q 365 636 365 635 l 483 661 l 483 661 q 486 639 484 656 q 490 599 487 622 q 495 549 492 575 q 500 500 498 523 q 504 460 502 477 q 507 439 506 443 q 524 312 516 361 q 538 232 532 262 q 548 191 544 203 q 553 175 551 178 q 592 130 568 142 q 658 118 616 118 l 670 118 m 388 424 q 353 409 373 418 q 312 389 333 400 q 270 365 290 378 q 232 336 249 351 q 205 302 216 320 q 195 265 195 284 q 207 233 195 246 q 239 213 220 220 q 284 204 259 207 q 325 202 304 202 q 344 202 330 202 q 381 205 359 202 q 420 210 404 207 q 405 296 412 245 q 388 424 397 347 m 336 812 l 239 714 l 139 812 l 237 911 l 336 812 m 584 811 l 486 713 l 387 812 l 485 909 l 584 811 z "},"ﭼ":{"ha":958,"x_min":-12,"x_max":946,"o":"m -12 118 l 119 118 q 280 134 199 118 q 438 175 360 149 q 590 232 516 200 q 733 300 664 265 q 653 331 691 314 q 579 365 615 348 q 523 391 550 379 q 471 413 496 403 q 424 428 446 423 q 383 434 402 434 q 336 423 358 434 q 294 396 313 412 q 260 360 275 379 q 234 325 245 341 q 218 297 223 308 q 212 285 212 286 l 103 334 q 108 345 104 335 q 122 368 113 354 q 143 402 130 383 q 171 440 155 420 q 271 525 219 496 q 383 553 324 553 q 442 546 412 553 q 502 529 472 540 q 565 503 533 518 q 630 473 597 489 q 702 440 665 457 q 775 411 739 424 q 849 390 812 398 q 923 382 886 382 l 946 268 q 862 230 904 250 q 775 187 821 210 q 633 121 709 154 q 473 61 556 88 q 300 17 389 34 q 119 0 210 0 l -12 0 l -12 118 m 618 -118 l 716 -216 l 617 -315 l 519 -217 l 618 -118 m 354 -118 l 452 -217 l 353 -316 l 255 -217 l 354 -118 m 488 -309 l 577 -399 l 487 -489 l 398 -399 l 488 -309 z "},"ﭽ":{"ha":1007,"x_min":-12,"x_max":1019,"o":"m -12 118 l 75 118 q 247 134 165 118 q 404 175 329 149 q 550 232 479 200 q 689 300 620 265 q 609 331 647 314 q 534 365 571 348 q 479 391 506 379 q 427 413 452 403 q 380 428 402 423 q 339 434 357 434 q 292 423 314 434 q 250 396 269 412 q 216 360 231 379 q 190 325 201 341 q 174 297 179 308 q 168 285 168 286 l 59 334 q 64 345 60 335 q 78 368 69 354 q 99 402 86 383 q 127 440 111 420 q 227 525 175 496 q 339 553 280 553 q 398 546 368 553 q 458 529 428 540 q 521 503 489 518 q 586 473 553 489 q 658 440 621 457 q 731 411 694 424 q 805 390 768 398 q 879 382 842 382 l 902 268 q 847 243 874 255 q 792 217 820 231 q 814 178 799 194 q 850 151 830 162 q 893 134 870 140 q 937 124 915 127 q 977 119 959 120 q 1006 118 995 118 l 1019 118 l 1019 0 l 1006 0 q 894 11 946 0 q 801 43 842 22 q 730 95 760 65 q 685 164 700 126 q 555 104 623 133 q 412 52 487 75 q 253 14 337 28 q 75 0 169 0 l -12 0 l -12 118 m 577 -117 l 675 -214 l 575 -313 l 478 -216 l 577 -117 m 313 -117 l 411 -216 l 312 -315 l 214 -216 l 313 -117 m 447 -308 l 536 -397 l 446 -487 l 357 -398 l 447 -308 z "},"ج":{"ha":995,"x_min":57,"x_max":938,"o":"m 524 -354 q 687 -329 611 -354 q 838 -251 763 -304 l 906 -348 q 716 -444 816 -410 q 501 -478 616 -478 q 327 -452 408 -478 q 186 -379 246 -427 q 91 -260 126 -330 q 57 -99 57 -189 q 82 33 57 -29 q 152 145 107 94 q 258 236 196 196 q 392 304 319 276 q 546 346 465 332 q 713 361 628 361 q 675 380 693 370 q 639 400 656 389 q 604 420 621 410 q 572 438 587 430 q 522 465 545 452 q 477 488 499 478 q 429 505 454 499 q 373 513 405 512 q 322 502 348 513 q 272 474 296 492 q 227 436 248 457 q 191 392 206 414 q 165 409 177 401 q 141 424 153 417 q 118 439 130 432 q 94 455 106 447 q 143 522 115 492 q 205 576 171 553 q 282 614 240 600 q 374 632 324 628 q 511 606 445 630 q 641 540 577 582 q 729 485 689 508 q 803 444 768 461 q 871 415 839 426 q 938 396 904 403 q 928 358 932 375 q 918 324 923 341 q 908 290 913 307 q 898 254 903 274 q 858 254 873 254 q 828 255 844 255 l 813 255 q 685 246 754 255 q 545 217 616 237 q 409 167 474 197 q 294 100 344 138 q 212 15 243 62 q 176 -84 181 -31 l 176 -89 q 204 -205 176 -155 q 281 -288 232 -255 q 393 -338 330 -322 q 524 -354 456 -354 m 652 -48 l 554 -147 l 455 -48 l 553 51 l 652 -48 z "},"ﺝ":{"ha":995,"x_min":57,"x_max":938,"o":"m 524 -354 q 687 -329 611 -354 q 838 -251 763 -304 l 906 -348 q 716 -444 816 -410 q 501 -478 616 -478 q 327 -452 408 -478 q 186 -379 246 -427 q 91 -260 126 -330 q 57 -99 57 -189 q 82 33 57 -29 q 152 145 107 94 q 258 236 196 196 q 392 304 319 276 q 546 346 465 332 q 713 361 628 361 q 675 380 693 370 q 639 400 656 389 q 604 420 621 410 q 572 438 587 430 q 522 465 545 452 q 477 488 499 478 q 429 505 454 499 q 373 513 405 512 q 322 502 348 513 q 272 474 296 492 q 227 436 248 457 q 191 392 206 414 q 165 409 177 401 q 141 424 153 417 q 118 439 130 432 q 94 455 106 447 q 143 522 115 492 q 205 576 171 553 q 282 614 240 600 q 374 632 324 628 q 511 606 445 630 q 641 540 577 582 q 729 485 689 508 q 803 444 768 461 q 871 415 839 426 q 938 396 904 403 q 928 358 932 375 q 918 324 923 341 q 908 290 913 307 q 898 254 903 274 q 858 254 873 254 q 828 255 844 255 l 813 255 q 685 246 754 255 q 545 217 616 237 q 409 167 474 197 q 294 100 344 138 q 212 15 243 62 q 176 -84 181 -31 l 176 -89 q 204 -205 176 -155 q 281 -288 232 -255 q 393 -338 330 -322 q 524 -354 456 -354 m 652 -48 l 554 -147 l 455 -48 l 553 51 l 652 -48 z "},"ﺟ":{"ha":958,"x_min":-12,"x_max":946,"o":"m -12 118 l 119 118 q 280 134 199 118 q 438 175 360 149 q 590 232 516 200 q 733 300 664 265 q 653 331 691 314 q 579 365 615 348 q 523 391 550 379 q 471 413 496 403 q 424 428 446 423 q 383 434 402 434 q 336 423 358 434 q 294 396 313 412 q 260 360 275 379 q 234 325 245 341 q 218 297 223 308 q 212 285 212 286 l 103 334 q 108 345 104 335 q 122 368 113 354 q 143 402 130 383 q 171 440 155 420 q 271 525 219 496 q 383 553 324 553 q 442 546 412 553 q 502 529 472 540 q 565 503 533 518 q 630 473 597 489 q 702 440 665 457 q 775 411 739 424 q 849 390 812 398 q 923 382 886 382 l 946 268 q 862 230 904 250 q 775 187 821 210 q 633 121 709 154 q 473 61 556 88 q 300 17 389 34 q 119 0 210 0 l -12 0 l -12 118 m 585 -215 l 486 -313 l 387 -214 l 486 -116 l 585 -215 z "},"ﺠ":{"ha":1007,"x_min":-12,"x_max":1019,"o":"m -12 118 l 75 118 q 247 134 165 118 q 404 175 329 149 q 550 232 479 200 q 689 300 620 265 q 609 331 647 314 q 534 365 571 348 q 479 391 506 379 q 427 413 452 403 q 380 428 402 423 q 339 434 357 434 q 292 423 314 434 q 250 396 269 412 q 216 360 231 379 q 190 325 201 341 q 174 297 179 308 q 168 285 168 286 l 59 334 q 64 345 60 335 q 78 368 69 354 q 99 402 86 383 q 127 440 111 420 q 227 525 175 496 q 339 553 280 553 q 398 546 368 553 q 458 529 428 540 q 521 503 489 518 q 586 473 553 489 q 658 440 621 457 q 731 411 694 424 q 805 390 768 398 q 879 382 842 382 l 902 268 q 847 243 874 255 q 792 217 820 231 q 814 178 799 194 q 850 151 830 162 q 893 134 870 140 q 937 124 915 127 q 977 119 959 120 q 1006 118 995 118 l 1019 118 l 1019 0 l 1006 0 q 894 11 946 0 q 801 43 842 22 q 730 95 760 65 q 685 164 700 126 q 555 104 623 133 q 412 52 487 75 q 253 14 337 28 q 75 0 169 0 l -12 0 l -12 118 m 585 -216 l 486 -315 l 387 -216 l 486 -117 l 585 -216 z "},"ﺞ":{"ha":1028,"x_min":90,"x_max":1040,"o":"m 551 -478 q 424 -463 485 -478 q 311 -422 364 -449 q 215 -357 258 -395 q 144 -273 173 -319 q 101 -173 115 -227 q 91 -93 91 -135 q 93 -60 91 -77 q 121 52 98 -2 q 179 153 143 106 q 262 239 214 200 q 366 303 310 277 q 519 357 441 338 q 675 385 598 376 l 609 417 q 493 472 546 449 q 406 500 441 495 q 383 502 394 502 q 254 440 312 502 q 222 398 234 418 q 201 361 209 377 l 90 406 q 97 420 91 409 q 111 446 102 431 q 135 482 121 462 q 167 521 149 501 q 284 604 220 580 q 380 621 330 621 q 421 618 400 621 q 530 586 472 612 q 662 524 589 560 q 802 457 728 492 q 964 394 876 423 l 941 278 q 930 278 940 278 q 902 279 920 278 q 860 278 884 279 q 806 276 835 278 q 821 197 806 227 q 864 149 836 166 q 934 125 893 131 q 1028 118 975 118 l 1040 118 l 1040 0 l 1028 0 q 884 15 947 0 q 777 62 821 30 q 709 144 732 94 q 685 265 685 194 q 549 240 618 257 q 415 195 479 224 q 382 177 402 188 q 340 150 362 166 q 296 113 318 134 q 257 65 275 92 q 227 7 239 39 q 211 -62 214 -25 q 211 -82 211 -72 q 226 -171 211 -128 q 274 -252 242 -215 q 351 -313 306 -288 q 447 -351 396 -338 q 554 -365 499 -364 l 565 -365 q 666 -354 614 -365 q 767 -318 717 -342 q 856 -255 816 -293 l 934 -347 q 844 -410 891 -385 q 748 -450 797 -435 q 649 -471 699 -465 q 551 -478 599 -478 m 661 -69 l 563 -168 l 464 -69 l 562 30 l 661 -69 z "},"خ":{"ha":995,"x_min":57,"x_max":938,"o":"m 524 -354 q 687 -329 611 -354 q 838 -251 763 -304 l 906 -348 q 716 -444 816 -410 q 501 -478 616 -478 q 327 -452 408 -478 q 186 -379 246 -427 q 91 -260 126 -330 q 57 -99 57 -189 q 82 33 57 -29 q 152 145 107 94 q 258 236 196 196 q 392 304 319 276 q 546 346 465 332 q 713 361 628 361 q 675 380 693 370 q 639 400 656 389 q 604 420 621 410 q 572 438 587 430 q 522 465 545 452 q 477 488 499 478 q 429 505 454 499 q 373 513 405 512 q 322 502 348 513 q 272 474 296 492 q 227 436 248 457 q 191 392 206 414 q 165 409 177 401 q 141 424 153 417 q 118 439 130 432 q 94 455 106 447 q 143 522 115 492 q 205 576 171 553 q 282 614 240 600 q 374 632 324 628 q 511 606 445 630 q 641 540 577 582 q 729 485 689 508 q 803 444 768 461 q 871 415 839 426 q 938 396 904 403 q 928 358 932 375 q 918 324 923 341 q 908 290 913 307 q 898 254 903 274 q 858 254 873 254 q 828 255 844 255 l 813 255 q 685 246 754 255 q 545 217 616 237 q 409 167 474 197 q 294 100 344 138 q 212 15 243 62 q 176 -84 181 -31 l 176 -89 q 204 -205 176 -155 q 281 -288 232 -255 q 393 -338 330 -322 q 524 -354 456 -354 m 474 860 l 376 761 l 277 861 l 375 959 l 474 860 z "},"ﺥ":{"ha":995,"x_min":57,"x_max":938,"o":"m 524 -354 q 687 -329 611 -354 q 838 -251 763 -304 l 906 -348 q 716 -444 816 -410 q 501 -478 616 -478 q 327 -452 408 -478 q 186 -379 246 -427 q 91 -260 126 -330 q 57 -99 57 -189 q 82 33 57 -29 q 152 145 107 94 q 258 236 196 196 q 392 304 319 276 q 546 346 465 332 q 713 361 628 361 q 675 380 693 370 q 639 400 656 389 q 604 420 621 410 q 572 438 587 430 q 522 465 545 452 q 477 488 499 478 q 429 505 454 499 q 373 513 405 512 q 322 502 348 513 q 272 474 296 492 q 227 436 248 457 q 191 392 206 414 q 165 409 177 401 q 141 424 153 417 q 118 439 130 432 q 94 455 106 447 q 143 522 115 492 q 205 576 171 553 q 282 614 240 600 q 374 632 324 628 q 511 606 445 630 q 641 540 577 582 q 729 485 689 508 q 803 444 768 461 q 871 415 839 426 q 938 396 904 403 q 928 358 932 375 q 918 324 923 341 q 908 290 913 307 q 898 254 903 274 q 858 254 873 254 q 828 255 844 255 l 813 255 q 685 246 754 255 q 545 217 616 237 q 409 167 474 197 q 294 100 344 138 q 212 15 243 62 q 176 -84 181 -31 l 176 -89 q 204 -205 176 -155 q 281 -288 232 -255 q 393 -338 330 -322 q 524 -354 456 -354 m 474 860 l 376 761 l 277 861 l 375 959 l 474 860 z "},"ﺧ":{"ha":958,"x_min":-12,"x_max":946,"o":"m -12 118 l 119 118 q 280 134 199 118 q 438 175 360 149 q 590 232 516 200 q 733 300 664 265 q 653 331 691 314 q 579 365 615 348 q 523 391 550 379 q 471 413 496 403 q 424 428 446 423 q 383 434 402 434 q 336 423 358 434 q 294 396 313 412 q 260 360 275 379 q 234 325 245 341 q 218 297 223 308 q 212 285 212 286 l 103 334 q 108 345 104 335 q 122 368 113 354 q 143 402 130 383 q 171 440 155 420 q 271 525 219 496 q 383 553 324 553 q 442 546 412 553 q 502 529 472 540 q 565 503 533 518 q 630 473 597 489 q 702 440 665 457 q 775 411 739 424 q 849 390 812 398 q 923 382 886 382 l 946 268 q 862 230 904 250 q 775 187 821 210 q 633 121 709 154 q 473 61 556 88 q 300 17 389 34 q 119 0 210 0 l -12 0 l -12 118 m 477 763 l 379 665 l 280 764 l 378 862 l 477 763 z "},"ﺨ":{"ha":1007,"x_min":-12,"x_max":1019,"o":"m -12 118 l 75 118 q 247 134 165 118 q 404 175 329 149 q 550 232 479 200 q 689 300 620 265 q 609 331 647 314 q 534 365 571 348 q 479 391 506 379 q 427 413 452 403 q 380 428 402 423 q 339 434 357 434 q 292 423 314 434 q 250 396 269 412 q 216 360 231 379 q 190 325 201 341 q 174 297 179 308 q 168 285 168 286 l 59 334 q 64 345 60 335 q 78 368 69 354 q 99 402 86 383 q 127 440 111 420 q 227 525 175 496 q 339 553 280 553 q 398 546 368 553 q 458 529 428 540 q 521 503 489 518 q 586 473 553 489 q 658 440 621 457 q 731 411 694 424 q 805 390 768 398 q 879 382 842 382 l 902 268 q 847 243 874 255 q 792 217 820 231 q 814 178 799 194 q 850 151 830 162 q 893 134 870 140 q 937 124 915 127 q 977 119 959 120 q 1006 118 995 118 l 1019 118 l 1019 0 l 1006 0 q 894 11 946 0 q 801 43 842 22 q 730 95 760 65 q 685 164 700 126 q 555 104 623 133 q 412 52 487 75 q 253 14 337 28 q 75 0 169 0 l -12 0 l -12 118 m 429 766 l 330 667 l 231 766 l 330 865 l 429 766 z "},"ﺦ":{"ha":1028,"x_min":90,"x_max":1040,"o":"m 551 -478 q 424 -463 485 -478 q 311 -422 364 -449 q 215 -357 258 -395 q 144 -273 173 -319 q 101 -173 115 -227 q 91 -93 91 -135 q 93 -60 91 -77 q 121 52 98 -2 q 179 153 143 106 q 262 239 214 200 q 366 303 310 277 q 519 357 441 338 q 675 385 598 376 l 609 417 q 493 472 546 449 q 406 500 441 495 q 383 502 394 502 q 254 440 312 502 q 222 398 234 418 q 201 361 209 377 l 90 406 q 97 420 91 409 q 111 446 102 431 q 135 482 121 462 q 167 521 149 501 q 284 604 220 580 q 380 621 330 621 q 421 618 400 621 q 530 586 472 612 q 662 524 589 560 q 802 457 728 492 q 964 394 876 423 l 941 278 q 930 278 940 278 q 902 279 920 278 q 860 278 884 279 q 806 276 835 278 q 821 197 806 227 q 864 149 836 166 q 934 125 893 131 q 1028 118 975 118 l 1040 118 l 1040 0 l 1028 0 q 884 15 947 0 q 777 62 821 30 q 709 144 732 94 q 685 265 685 194 q 549 240 618 257 q 415 195 479 224 q 382 177 402 188 q 340 150 362 166 q 296 113 318 134 q 257 65 275 92 q 227 7 239 39 q 211 -62 214 -25 q 211 -82 211 -72 q 226 -171 211 -128 q 274 -252 242 -215 q 351 -313 306 -288 q 447 -351 396 -338 q 554 -365 499 -364 l 565 -365 q 666 -354 614 -365 q 767 -318 717 -342 q 856 -255 816 -293 l 934 -347 q 844 -410 891 -385 q 748 -450 797 -435 q 649 -471 699 -465 q 551 -478 599 -478 m 486 839 l 387 740 l 288 839 l 386 938 l 486 839 z "},"ذ":{"ha":681,"x_min":62,"x_max":623,"o":"m 329 1 q 261 8 300 1 q 182 26 221 14 q 110 51 143 37 q 62 79 77 65 l 112 193 q 165 165 134 178 q 232 141 197 151 q 306 126 268 131 q 351 123 329 123 q 389 125 365 123 q 444 139 414 127 q 495 176 474 152 q 504 209 504 187 q 499 246 504 225 q 477 308 492 276 q 442 373 463 341 q 396 436 421 405 q 343 493 370 466 q 287 540 315 519 q 231 572 258 560 l 280 682 q 352 640 316 666 q 422 582 388 614 q 488 511 457 549 q 544 433 519 473 q 588 352 570 393 q 616 274 607 312 q 623 213 623 240 q 618 164 623 185 q 604 127 613 143 q 586 100 596 112 q 535 55 565 74 q 472 24 506 36 q 402 6 438 11 q 329 1 365 1 m 377 896 l 279 798 l 180 897 l 278 995 l 377 896 z "},"ﺫ":{"ha":681,"x_min":62,"x_max":623,"o":"m 329 1 q 261 8 300 1 q 182 26 221 14 q 110 51 143 37 q 62 79 77 65 l 112 193 q 165 165 134 178 q 232 141 197 151 q 306 126 268 131 q 351 123 329 123 q 389 125 365 123 q 444 139 414 127 q 495 176 474 152 q 504 209 504 187 q 499 246 504 225 q 477 308 492 276 q 442 373 463 341 q 396 436 421 405 q 343 493 370 466 q 287 540 315 519 q 231 572 258 560 l 280 682 q 352 640 316 666 q 422 582 388 614 q 488 511 457 549 q 544 433 519 473 q 588 352 570 393 q 616 274 607 312 q 623 213 623 240 q 618 164 623 185 q 604 127 613 143 q 586 100 596 112 q 535 55 565 74 q 472 24 506 36 q 402 6 438 11 q 329 1 365 1 m 377 896 l 279 798 l 180 897 l 278 995 l 377 896 z "},"ﺬ":{"ha":762,"x_min":77,"x_max":774,"o":"m 774 118 l 774 0 l 762 0 q 692 6 723 0 q 639 24 662 13 q 598 49 615 34 q 568 80 580 64 q 517 45 542 60 q 462 20 491 30 q 398 5 432 10 q 321 0 364 0 q 189 29 249 0 q 77 112 128 59 l 145 208 q 218 154 181 174 q 291 126 255 134 q 339 121 315 121 q 373 123 351 121 q 429 138 396 125 q 479 164 460 150 q 509 188 499 178 l 318 647 l 428 693 q 481 565 457 623 q 526 455 505 507 q 569 352 548 403 q 613 247 589 302 q 636 194 625 218 q 663 154 647 170 q 702 128 679 137 q 762 118 726 118 l 774 118 m 475 899 l 376 800 l 277 899 l 376 998 l 475 899 z "},"ڈ":{"ha":687,"x_min":62,"x_max":623,"o":"m 329 1 q 261 8 300 1 q 182 26 221 14 q 110 51 143 37 q 62 79 77 65 l 112 193 q 165 165 134 178 q 232 141 197 151 q 306 126 268 131 q 351 123 329 123 q 389 125 365 123 q 444 139 414 127 q 495 176 474 152 q 504 209 504 187 q 499 246 504 225 q 477 308 492 276 q 442 373 463 341 q 396 436 421 405 q 343 493 370 466 q 287 540 315 519 q 231 572 258 560 l 280 682 q 352 640 316 666 q 422 582 388 614 q 488 511 457 549 q 544 433 519 473 q 588 352 570 393 q 616 274 607 312 q 623 213 623 240 q 618 164 623 185 q 604 127 613 143 q 586 100 596 112 q 535 55 565 74 q 472 24 506 36 q 402 6 438 11 q 329 1 365 1 m 310 781 q 250 785 277 782 q 199 793 223 788 q 154 803 176 797 q 111 818 133 810 l 130 866 q 164 854 148 859 q 197 845 181 849 l 231 891 q 236 931 234 913 q 238 965 237 948 q 237 1002 238 982 q 234 1047 236 1021 q 230 1084 232 1068 q 227 1116 229 1101 q 224 1146 226 1131 q 220 1178 222 1161 l 271 1187 l 272 1173 q 276 1138 274 1158 q 281 1095 278 1118 q 284 1056 283 1072 q 287 1025 286 1034 q 288 1008 287 1015 q 288 989 288 1000 q 289 954 289 978 q 408 1021 351 1012 q 426 1022 417 1022 q 453 1019 437 1022 q 487 1006 469 1016 q 516 979 504 996 q 529 940 528 962 q 530 932 530 935 q 527 910 530 921 q 519 886 524 898 q 506 863 513 873 q 492 845 499 852 q 445 810 469 823 q 398 791 421 798 q 352 783 374 784 q 310 781 329 781 m 254 835 q 278 833 266 833 l 279 833 q 319 833 298 833 q 364 837 341 833 q 410 851 387 841 q 456 882 434 862 q 476 913 472 896 q 478 925 478 920 q 473 947 478 935 q 454 966 468 958 q 430 972 443 972 q 417 970 423 972 q 293 884 363 962 l 254 835 z "},"ﮈ":{"ha":687,"x_min":62,"x_max":623,"o":"m 329 1 q 261 8 300 1 q 182 26 221 14 q 110 51 143 37 q 62 79 77 65 l 112 193 q 165 165 134 178 q 232 141 197 151 q 306 126 268 131 q 351 123 329 123 q 389 125 365 123 q 444 139 414 127 q 495 176 474 152 q 504 209 504 187 q 499 246 504 225 q 477 308 492 276 q 442 373 463 341 q 396 436 421 405 q 343 493 370 466 q 287 540 315 519 q 231 572 258 560 l 280 682 q 352 640 316 666 q 422 582 388 614 q 488 511 457 549 q 544 433 519 473 q 588 352 570 393 q 616 274 607 312 q 623 213 623 240 q 618 164 623 185 q 604 127 613 143 q 586 100 596 112 q 535 55 565 74 q 472 24 506 36 q 402 6 438 11 q 329 1 365 1 m 310 781 q 250 785 277 782 q 199 793 223 788 q 154 803 176 797 q 111 818 133 810 l 130 866 q 164 854 148 859 q 197 845 181 849 l 231 891 q 236 931 234 913 q 238 965 237 948 q 237 1002 238 982 q 234 1047 236 1021 q 230 1084 232 1068 q 227 1116 229 1101 q 224 1146 226 1131 q 220 1178 222 1161 l 271 1187 l 272 1173 q 276 1138 274 1158 q 281 1095 278 1118 q 284 1056 283 1072 q 287 1025 286 1034 q 288 1008 287 1015 q 288 989 288 1000 q 289 954 289 978 q 408 1021 351 1012 q 426 1022 417 1022 q 453 1019 437 1022 q 487 1006 469 1016 q 516 979 504 996 q 529 940 528 962 q 530 932 530 935 q 527 910 530 921 q 519 886 524 898 q 506 863 513 873 q 492 845 499 852 q 445 810 469 823 q 398 791 421 798 q 352 783 374 784 q 310 781 329 781 m 254 835 q 278 833 266 833 l 279 833 q 319 833 298 833 q 364 837 341 833 q 410 851 387 841 q 456 882 434 862 q 476 913 472 896 q 478 925 478 920 q 473 947 478 935 q 454 966 468 958 q 430 972 443 972 q 417 970 423 972 q 293 884 363 962 l 254 835 z "},"ﮉ":{"ha":762,"x_min":77,"x_max":774,"o":"m 774 118 l 774 0 l 762 0 q 692 6 723 0 q 639 24 662 13 q 598 49 615 34 q 568 80 580 64 q 517 45 542 60 q 462 20 491 30 q 398 5 432 10 q 321 0 364 0 q 189 29 249 0 q 77 112 128 59 l 145 208 q 218 154 181 174 q 291 126 255 134 q 339 121 315 121 q 373 123 351 121 q 429 138 396 125 q 479 164 460 150 q 509 188 499 178 l 318 647 l 428 693 q 481 565 457 623 q 526 455 505 507 q 569 352 548 403 q 613 247 589 302 q 636 194 625 218 q 663 154 647 170 q 702 128 679 137 q 762 118 726 118 l 774 118 m 413 796 q 353 801 380 798 q 303 808 326 804 q 258 819 279 813 q 214 834 236 825 l 234 882 q 268 870 251 875 q 300 861 284 865 l 334 906 q 339 946 338 929 q 341 981 341 964 q 340 1018 341 998 q 337 1063 339 1037 q 334 1100 335 1083 q 331 1132 332 1117 q 327 1162 329 1147 q 323 1193 325 1176 l 374 1203 l 376 1188 q 380 1154 377 1174 q 384 1111 382 1133 q 388 1072 386 1088 q 390 1040 389 1050 q 391 1023 391 1031 q 392 1005 391 1016 q 393 969 392 993 q 511 1037 455 1028 q 530 1038 521 1038 q 556 1035 540 1038 q 590 1022 572 1032 q 619 995 607 1011 q 632 955 631 978 q 633 947 633 951 q 630 925 633 937 q 622 901 627 914 q 609 878 617 889 q 595 861 602 868 q 549 826 572 839 q 501 807 525 813 q 455 798 478 800 q 413 796 432 796 m 357 851 q 381 849 370 849 l 382 849 q 423 848 401 848 q 467 853 444 848 q 514 867 490 857 q 559 897 537 877 q 580 929 575 912 q 581 941 581 935 q 576 963 581 951 q 557 982 571 974 q 533 987 546 987 q 520 986 527 987 q 396 900 466 978 l 357 851 z "},"ز":{"ha":446,"x_min":-78,"x_max":374,"o":"m 298 393 q 315 337 307 364 q 330 281 324 309 q 345 223 338 252 q 359 165 353 194 q 370 109 365 136 q 374 54 374 81 q 358 -47 374 2 q 316 -143 343 -97 q 250 -230 288 -188 q 168 -309 213 -272 q 75 -377 124 -345 q -25 -432 25 -408 l -78 -326 q 45 -253 -14 -295 q 152 -163 105 -212 q 227 -59 199 -114 q 255 54 255 -4 q 252 101 255 77 q 242 152 248 126 q 228 204 236 178 q 214 255 221 230 q 184 356 200 306 l 298 393 m 337 640 l 239 542 l 139 641 l 238 739 l 337 640 z "},"ﺯ":{"ha":446,"x_min":-78,"x_max":374,"o":"m 298 393 q 315 337 307 364 q 330 281 324 309 q 345 223 338 252 q 359 165 353 194 q 370 109 365 136 q 374 54 374 81 q 358 -47 374 2 q 316 -143 343 -97 q 250 -230 288 -188 q 168 -309 213 -272 q 75 -377 124 -345 q -25 -432 25 -408 l -78 -326 q 45 -253 -14 -295 q 152 -163 105 -212 q 227 -59 199 -114 q 255 54 255 -4 q 252 101 255 77 q 242 152 248 126 q 228 204 236 178 q 214 255 221 230 q 184 356 200 306 l 298 393 m 337 640 l 239 542 l 139 641 l 238 739 l 337 640 z "},"ﺰ":{"ha":493,"x_min":-74,"x_max":503,"o":"m 377 42 q 344 -109 377 -37 q 254 -243 310 -181 q 126 -356 198 -305 q -22 -446 54 -408 l -74 -339 q 13 -290 -30 -316 q 94 -232 56 -263 q 164 -167 132 -201 q 218 -95 196 -133 q 251 -18 240 -58 q 258 42 258 11 q 257 64 258 54 q 244 138 253 98 q 225 216 236 178 q 205 287 215 254 q 187 343 194 321 l 301 378 q 345 259 324 308 q 390 178 367 210 q 438 133 413 147 q 493 118 463 118 l 503 118 l 503 0 l 493 0 q 471 1 484 0 q 442 5 458 1 q 409 19 426 10 q 377 44 393 28 l 377 42 m 337 640 l 239 542 l 139 641 l 238 739 l 337 640 z "},"ڑ":{"ha":452,"x_min":-78,"x_max":464,"o":"m 298 393 q 315 337 307 364 q 330 281 324 309 q 345 223 338 252 q 359 165 353 194 q 370 109 365 136 q 374 54 374 81 q 358 -47 374 2 q 316 -143 343 -97 q 250 -230 288 -188 q 168 -309 213 -272 q 75 -377 124 -345 q -25 -432 25 -408 l -78 -326 q 45 -253 -14 -295 q 152 -163 105 -212 q 227 -59 199 -114 q 255 54 255 -4 q 252 101 255 77 q 242 152 248 126 q 228 204 236 178 q 214 255 221 230 q 184 356 200 306 l 298 393 m 245 499 q 184 504 211 501 q 134 511 158 507 q 89 522 111 516 q 46 537 68 528 l 65 585 q 99 573 83 578 q 132 563 115 568 l 165 609 q 171 649 169 632 q 172 684 172 667 q 171 720 173 701 q 168 766 170 740 q 165 803 167 786 q 162 835 164 819 q 159 864 161 850 q 155 896 157 879 l 205 906 l 207 891 q 211 857 209 877 q 216 814 213 836 q 219 775 218 791 q 222 743 221 753 q 223 726 222 734 q 223 707 223 719 q 224 672 223 696 q 343 740 286 731 q 361 741 352 741 q 388 738 372 741 q 421 725 404 735 q 451 697 439 714 q 464 658 463 681 q 464 650 464 654 q 462 628 464 640 q 454 604 459 617 q 441 581 448 592 q 426 563 434 571 q 380 529 404 542 q 333 510 356 516 q 287 501 309 503 q 245 499 264 499 m 188 554 q 213 552 201 552 l 214 552 q 254 551 232 551 q 299 556 276 551 q 345 570 322 560 q 391 600 368 580 q 411 632 407 615 q 412 644 412 638 q 408 665 412 654 q 388 685 403 677 q 365 690 378 690 q 351 689 358 690 q 228 603 298 681 l 188 554 z "},"ﮌ":{"ha":452,"x_min":-78,"x_max":464,"o":"m 298 393 q 315 337 307 364 q 330 281 324 309 q 345 223 338 252 q 359 165 353 194 q 370 109 365 136 q 374 54 374 81 q 358 -47 374 2 q 316 -143 343 -97 q 250 -230 288 -188 q 168 -309 213 -272 q 75 -377 124 -345 q -25 -432 25 -408 l -78 -326 q 45 -253 -14 -295 q 152 -163 105 -212 q 227 -59 199 -114 q 255 54 255 -4 q 252 101 255 77 q 242 152 248 126 q 228 204 236 178 q 214 255 221 230 q 184 356 200 306 l 298 393 m 245 499 q 184 504 211 501 q 134 511 158 507 q 89 522 111 516 q 46 537 68 528 l 65 585 q 99 573 83 578 q 132 563 115 568 l 165 609 q 171 649 169 632 q 172 684 172 667 q 171 720 173 701 q 168 766 170 740 q 165 803 167 786 q 162 835 164 819 q 159 864 161 850 q 155 896 157 879 l 205 906 l 207 891 q 211 857 209 877 q 216 814 213 836 q 219 775 218 791 q 222 743 221 753 q 223 726 222 734 q 223 707 223 719 q 224 672 223 696 q 343 740 286 731 q 361 741 352 741 q 388 738 372 741 q 421 725 404 735 q 451 697 439 714 q 464 658 463 681 q 464 650 464 654 q 462 628 464 640 q 454 604 459 617 q 441 581 448 592 q 426 563 434 571 q 380 529 404 542 q 333 510 356 516 q 287 501 309 503 q 245 499 264 499 m 188 554 q 213 552 201 552 l 214 552 q 254 551 232 551 q 299 556 276 551 q 345 570 322 560 q 391 600 368 580 q 411 632 407 615 q 412 644 412 638 q 408 665 412 654 q 388 685 403 677 q 365 690 378 690 q 351 689 358 690 q 228 603 298 681 l 188 554 z "},"ﮍ":{"ha":491,"x_min":-74,"x_max":503,"o":"m 377 42 q 344 -109 377 -37 q 254 -243 310 -181 q 126 -356 198 -305 q -22 -446 54 -408 l -74 -339 q 13 -290 -30 -316 q 94 -232 56 -263 q 164 -167 132 -201 q 218 -95 196 -133 q 251 -18 240 -58 q 258 42 258 11 q 257 64 258 54 q 244 138 253 98 q 225 216 236 178 q 205 287 215 254 q 187 343 194 321 l 301 378 q 345 259 324 308 q 390 178 367 210 q 438 133 413 147 q 493 118 463 118 l 503 118 l 503 0 l 493 0 q 471 1 484 0 q 442 5 458 1 q 409 19 426 10 q 377 44 393 28 l 377 42 m 245 499 q 184 504 211 501 q 134 511 158 507 q 89 522 111 516 q 46 537 68 528 l 65 585 q 99 573 83 578 q 132 563 115 568 l 165 609 q 171 649 169 632 q 172 684 172 667 q 171 720 173 701 q 168 766 170 740 q 165 803 167 786 q 162 835 164 819 q 159 864 161 850 q 155 896 157 879 l 205 906 l 207 891 q 211 857 209 877 q 216 814 213 836 q 219 775 218 791 q 222 743 221 753 q 223 726 222 734 q 223 707 223 719 q 224 672 223 696 q 343 740 286 731 q 361 741 352 741 q 388 738 372 741 q 421 725 404 735 q 451 697 439 714 q 464 658 463 681 q 464 650 464 654 q 462 628 464 640 q 454 604 459 617 q 441 581 448 592 q 426 563 434 571 q 380 529 404 542 q 333 510 356 516 q 287 501 309 503 q 245 499 264 499 m 188 554 q 213 552 201 552 l 214 552 q 254 551 232 551 q 299 556 276 551 q 345 570 322 560 q 391 600 368 580 q 411 632 407 615 q 412 644 412 638 q 408 665 412 654 q 388 685 403 677 q 365 690 378 690 q 351 689 358 690 q 228 603 298 681 l 188 554 z "},"ژ":{"ha":459,"x_min":-78,"x_max":465,"o":"m 298 393 q 315 337 307 364 q 330 281 324 309 q 345 223 338 252 q 359 165 353 194 q 370 109 365 136 q 374 54 374 81 q 358 -47 374 2 q 316 -143 343 -97 q 250 -230 288 -188 q 168 -309 213 -272 q 75 -377 124 -345 q -25 -432 25 -408 l -78 -326 q 45 -253 -14 -295 q 152 -163 105 -212 q 227 -59 199 -114 q 255 54 255 -4 q 252 101 255 77 q 242 152 248 126 q 228 204 236 178 q 214 255 221 230 q 184 356 200 306 l 298 393 m 268 597 l 366 695 l 465 596 l 367 498 l 268 597 m 3 598 l 101 696 l 200 597 l 102 499 l 3 598 m 149 780 l 238 869 l 328 779 l 239 690 l 149 780 z "},"ﮊ":{"ha":459,"x_min":-78,"x_max":465,"o":"m 298 393 q 315 337 307 364 q 330 281 324 309 q 345 223 338 252 q 359 165 353 194 q 370 109 365 136 q 374 54 374 81 q 358 -47 374 2 q 316 -143 343 -97 q 250 -230 288 -188 q 168 -309 213 -272 q 75 -377 124 -345 q -25 -432 25 -408 l -78 -326 q 45 -253 -14 -295 q 152 -163 105 -212 q 227 -59 199 -114 q 255 54 255 -4 q 252 101 255 77 q 242 152 248 126 q 228 204 236 178 q 214 255 221 230 q 184 356 200 306 l 298 393 m 268 597 l 366 695 l 465 596 l 367 498 l 268 597 m 3 598 l 101 696 l 200 597 l 102 499 l 3 598 m 149 780 l 238 869 l 328 779 l 239 690 l 149 780 z "},"ﮋ":{"ha":491,"x_min":-74,"x_max":503,"o":"m 377 42 q 344 -109 377 -37 q 254 -243 310 -181 q 126 -356 198 -305 q -22 -446 54 -408 l -74 -339 q 13 -290 -30 -316 q 94 -232 56 -263 q 164 -167 132 -201 q 218 -95 196 -133 q 251 -18 240 -58 q 258 42 258 11 q 257 64 258 54 q 244 138 253 98 q 225 216 236 178 q 205 287 215 254 q 187 343 194 321 l 301 378 q 345 259 324 308 q 390 178 367 210 q 438 133 413 147 q 493 118 463 118 l 503 118 l 503 0 l 493 0 q 471 1 484 0 q 442 5 458 1 q 409 19 426 10 q 377 44 393 28 l 377 42 m 271 597 l 368 695 l 467 596 l 370 498 l 271 597 m 5 598 l 103 696 l 202 597 l 104 499 l 5 598 m 151 780 l 240 869 l 330 779 l 241 690 l 151 780 z "},"ش":{"ha":1626,"x_min":65,"x_max":1560,"o":"m 1466 558 q 1477 536 1469 552 q 1496 498 1486 521 q 1518 446 1506 475 q 1538 385 1529 417 q 1554 319 1548 353 q 1560 251 1560 284 q 1547 153 1559 199 q 1511 74 1536 108 q 1448 21 1487 40 q 1354 2 1409 2 q 1318 7 1338 2 q 1280 22 1299 12 q 1243 47 1260 32 q 1213 82 1225 62 q 1131 21 1176 39 q 1035 1 1086 4 q 1022 1 1028 1 q 995 3 1008 1 q 966 10 981 5 q 940 22 952 14 q 914 38 927 29 q 914 17 914 28 q 907 -70 914 -25 q 882 -162 900 -116 q 832 -247 863 -208 q 755 -317 801 -287 q 629 -374 699 -355 q 471 -398 559 -394 l 447 -398 q 185 -307 287 -398 q 110 -210 139 -267 q 70 -86 80 -154 q 65 -11 65 -48 q 68 53 65 12 q 87 151 72 95 q 125 258 103 207 q 173 349 147 308 l 269 278 q 250 248 261 268 q 229 200 240 228 q 209 141 219 173 q 194 73 200 108 q 185 2 187 38 q 185 -18 185 -8 q 188 -69 185 -45 q 197 -107 191 -85 q 214 -151 202 -128 q 244 -197 226 -175 q 290 -238 263 -220 q 356 -267 318 -255 q 446 -278 394 -278 l 466 -278 q 778 -98 723 -267 q 795 2 793 -48 l 795 15 q 788 103 795 59 q 767 190 781 147 q 738 269 753 233 q 713 319 723 301 q 702 338 702 336 l 803 403 l 841 315 q 875 242 857 277 q 915 179 893 207 q 965 136 937 152 q 1024 122 991 122 l 1030 122 q 1081 135 1061 123 q 1112 167 1101 147 q 1128 213 1124 187 q 1134 270 1133 240 q 1135 310 1135 290 l 1135 393 l 1257 405 l 1260 353 q 1262 315 1260 338 q 1267 265 1263 292 q 1277 213 1271 239 q 1294 165 1284 186 q 1321 130 1305 143 q 1359 117 1336 117 q 1395 128 1379 117 q 1422 160 1411 140 q 1438 206 1432 180 q 1441 248 1441 226 l 1441 259 q 1430 333 1440 297 q 1409 400 1421 368 q 1383 457 1397 431 q 1361 502 1370 483 l 1466 558 m 1196 711 l 1294 809 l 1393 710 l 1295 612 l 1196 711 m 931 711 l 1029 810 l 1128 711 l 1030 612 l 931 711 m 1077 893 l 1166 982 l 1256 893 l 1167 803 l 1077 893 z "},"ﺵ":{"ha":1626,"x_min":65,"x_max":1560,"o":"m 1466 558 q 1477 536 1469 552 q 1496 498 1486 521 q 1518 446 1506 475 q 1538 385 1529 417 q 1554 319 1548 353 q 1560 251 1560 284 q 1547 153 1559 199 q 1511 74 1536 108 q 1448 21 1487 40 q 1354 2 1409 2 q 1318 7 1338 2 q 1280 22 1299 12 q 1243 47 1260 32 q 1213 82 1225 62 q 1131 21 1176 39 q 1035 1 1086 4 q 1022 1 1028 1 q 995 3 1008 1 q 966 10 981 5 q 940 22 952 14 q 914 38 927 29 q 914 17 914 28 q 907 -70 914 -25 q 882 -162 900 -116 q 832 -247 863 -208 q 755 -317 801 -287 q 629 -374 699 -355 q 471 -398 559 -394 l 447 -398 q 185 -307 287 -398 q 110 -210 139 -267 q 70 -86 80 -154 q 65 -11 65 -48 q 68 53 65 12 q 87 151 72 95 q 125 258 103 207 q 173 349 147 308 l 269 278 q 250 248 261 268 q 229 200 240 228 q 209 141 219 173 q 194 73 200 108 q 185 2 187 38 q 185 -18 185 -8 q 188 -69 185 -45 q 197 -107 191 -85 q 214 -151 202 -128 q 244 -197 226 -175 q 290 -238 263 -220 q 356 -267 318 -255 q 446 -278 394 -278 l 466 -278 q 778 -98 723 -267 q 795 2 793 -48 l 795 15 q 788 103 795 59 q 767 190 781 147 q 738 269 753 233 q 713 319 723 301 q 702 338 702 336 l 803 403 l 841 315 q 875 242 857 277 q 915 179 893 207 q 965 136 937 152 q 1024 122 991 122 l 1030 122 q 1081 135 1061 123 q 1112 167 1101 147 q 1128 213 1124 187 q 1134 270 1133 240 q 1135 310 1135 290 l 1135 393 l 1257 405 l 1260 353 q 1262 315 1260 338 q 1267 265 1263 292 q 1277 213 1271 239 q 1294 165 1284 186 q 1321 130 1305 143 q 1359 117 1336 117 q 1395 128 1379 117 q 1422 160 1411 140 q 1438 206 1432 180 q 1441 248 1441 226 l 1441 259 q 1430 333 1440 297 q 1409 400 1421 368 q 1383 457 1397 431 q 1361 502 1370 483 l 1466 558 m 1196 711 l 1294 809 l 1393 710 l 1295 612 l 1196 711 m 931 711 l 1029 810 l 1128 711 l 1030 612 l 931 711 m 1077 893 l 1166 982 l 1256 893 l 1167 803 l 1077 893 z "},"ﺷ":{"ha":1001,"x_min":-12,"x_max":934,"o":"m -12 118 l 1 118 q 65 133 37 118 q 116 170 94 147 q 154 223 138 193 q 182 287 170 254 q 203 353 194 319 q 217 415 211 386 l 337 390 q 325 353 332 376 q 312 303 318 330 q 300 250 305 277 q 295 199 295 222 q 298 167 295 182 q 309 139 301 152 q 329 120 316 127 q 361 113 341 113 q 416 130 391 113 q 459 174 440 147 q 492 236 478 201 q 517 306 507 270 q 533 375 527 341 q 543 433 539 408 l 659 412 l 656 393 q 648 345 652 373 q 639 285 643 316 q 636 228 636 253 q 639 186 636 206 q 650 150 643 165 q 670 125 658 135 q 700 113 682 115 q 722 112 712 112 q 757 116 740 112 q 788 135 774 121 q 807 170 801 149 q 813 217 813 191 q 804 292 813 252 q 782 370 795 332 q 755 441 769 408 q 731 493 740 474 l 836 549 q 848 526 839 543 q 867 483 856 508 q 889 427 878 458 q 911 361 901 395 q 927 290 921 326 q 934 219 934 254 q 919 125 934 167 q 876 54 905 83 q 803 8 847 24 q 705 -7 761 -7 l 700 -7 q 654 0 678 -7 q 610 20 631 7 q 571 49 589 32 q 540 85 553 65 q 458 18 504 42 q 361 -7 412 -7 q 314 -2 338 -7 q 269 16 290 4 q 229 44 247 27 q 202 83 211 61 q 163 49 184 64 q 118 22 143 33 q 65 6 94 11 q 1 0 36 0 l -12 0 l -12 118 m 585 711 l 683 809 l 782 710 l 684 612 l 585 711 m 320 711 l 418 810 l 517 711 l 419 612 l 320 711 m 466 893 l 555 982 l 645 893 l 556 803 l 466 893 z "},"ﺸ":{"ha":1118,"x_min":-12,"x_max":1130,"o":"m -12 118 l 1 118 q 50 130 26 118 q 95 160 74 141 q 133 203 115 179 q 164 252 150 227 q 187 306 178 280 q 204 357 197 333 q 215 401 211 381 q 223 435 219 421 l 339 403 q 329 361 335 388 q 319 302 324 334 q 312 238 313 271 q 311 215 311 226 q 314 174 311 196 q 331 135 318 152 q 368 118 344 118 q 424 134 399 118 q 467 177 448 150 q 499 238 486 204 q 522 308 512 272 q 537 378 531 344 q 546 441 543 413 l 664 418 q 656 367 661 397 q 649 304 651 337 q 646 257 646 280 q 647 226 646 247 q 656 179 648 205 q 682 136 664 153 q 729 120 699 120 q 777 137 758 120 q 807 183 796 155 q 823 245 818 211 q 829 315 828 280 q 830 350 830 333 q 829 390 830 367 q 827 435 828 414 l 945 445 q 949 405 947 425 q 954 363 951 385 q 963 317 958 341 q 977 266 968 293 q 1037 155 1001 191 q 1115 118 1072 118 l 1130 118 l 1130 0 l 1115 0 q 1054 9 1084 0 q 997 34 1024 18 q 947 73 970 50 q 909 125 925 96 q 879 74 897 97 q 838 34 861 51 q 787 9 815 18 q 729 0 760 0 q 624 31 669 0 q 556 116 579 62 q 520 69 540 91 q 476 32 499 48 q 425 7 452 16 q 368 -2 398 -2 q 314 7 340 -2 q 266 31 287 15 q 229 69 245 46 q 206 118 214 91 q 166 70 187 92 q 120 33 145 48 q 65 9 94 18 q 1 0 36 0 l -12 0 l -12 118 m 633 655 l 731 752 l 830 653 l 732 556 l 633 655 m 368 655 l 466 754 l 565 655 l 467 556 l 368 655 m 514 837 l 603 926 l 693 836 l 604 747 l 514 837 z "},"ﺶ":{"ha":1745,"x_min":65,"x_max":1757,"o":"m 1757 118 l 1757 0 l 1745 0 q 1681 8 1713 0 q 1622 33 1650 17 q 1571 73 1594 50 q 1533 126 1548 96 q 1503 74 1521 97 q 1462 34 1485 51 q 1412 8 1439 18 q 1353 -1 1384 -1 q 1318 5 1337 -1 q 1279 21 1298 10 q 1243 46 1260 31 q 1213 80 1226 60 q 1131 18 1177 37 q 1034 -1 1086 -1 q 997 2 1013 -1 q 967 8 981 4 q 941 20 954 13 q 915 36 928 27 q 882 -165 915 -83 q 790 -297 849 -246 q 650 -372 731 -348 q 472 -400 568 -396 l 448 -400 q 310 -379 374 -400 q 196 -318 246 -358 q 114 -220 146 -277 q 71 -88 82 -162 q 65 -13 65 -50 q 69 52 65 10 q 88 149 72 93 q 126 256 103 206 q 173 347 149 306 l 269 276 q 251 245 261 266 q 230 198 240 225 q 210 138 219 171 q 194 70 200 106 q 186 -1 188 35 q 185 -21 185 -10 q 189 -71 185 -46 q 197 -109 191 -87 q 215 -154 203 -130 q 245 -200 226 -177 q 291 -240 263 -222 q 357 -269 319 -258 q 446 -280 395 -280 l 467 -280 q 778 -100 723 -268 q 799 15 796 -41 q 800 41 800 28 q 792 131 800 83 q 769 231 785 179 q 733 335 753 283 l 833 400 q 843 373 839 385 q 856 342 848 361 q 884 264 870 304 q 916 192 897 225 q 962 140 935 160 q 1030 120 989 120 q 1084 131 1062 120 q 1119 163 1105 143 q 1140 210 1133 183 q 1150 267 1147 237 q 1155 329 1154 297 q 1157 392 1156 361 l 1280 383 q 1278 332 1279 360 q 1277 293 1277 312 q 1277 263 1277 283 q 1281 215 1277 243 q 1293 165 1284 187 q 1317 130 1302 143 q 1356 117 1332 117 q 1408 135 1388 117 q 1438 181 1428 153 q 1453 246 1449 210 q 1457 317 1457 281 q 1454 384 1457 353 q 1450 436 1451 415 l 1568 444 q 1574 378 1569 414 q 1586 306 1578 342 q 1607 236 1594 269 q 1639 176 1620 202 q 1684 134 1659 150 q 1745 118 1710 118 l 1757 118 m 1234 655 l 1332 752 l 1431 653 l 1333 556 l 1234 655 m 969 655 l 1066 754 l 1165 655 l 1068 556 l 969 655 m 1114 837 l 1204 926 l 1293 836 l 1204 747 l 1114 837 z "},"ض":{"ha":1761,"x_min":101,"x_max":1698,"o":"m 500 -392 q 290 -354 375 -392 q 158 -247 205 -315 q 103 -85 112 -179 q 101 -37 101 -62 q 122 120 101 36 q 143 189 131 156 q 165 248 154 222 q 186 293 177 274 q 201 319 196 311 l 301 255 q 271 194 286 229 q 244 119 256 159 q 226 35 232 79 q 222 -28 222 3 q 223 -66 222 -39 q 238 -130 225 -92 q 278 -198 251 -168 q 348 -247 306 -228 q 454 -270 391 -266 q 493 -271 474 -271 q 600 -260 545 -271 q 702 -216 655 -249 q 777 -131 749 -184 q 807 -3 804 -78 q 808 21 808 9 q 805 77 808 46 q 795 144 802 108 q 780 213 789 180 q 762 274 771 246 q 745 324 753 303 q 731 358 737 345 l 842 405 q 875 336 861 367 q 905 280 889 306 q 938 230 920 254 q 981 184 955 207 q 1006 228 992 204 q 1039 278 1021 252 q 1080 330 1058 304 q 1129 382 1102 357 q 1246 466 1183 434 q 1375 512 1309 498 q 1438 519 1407 519 q 1474 517 1449 519 q 1537 502 1500 515 q 1604 465 1573 488 q 1656 412 1635 442 q 1689 346 1678 382 q 1698 284 1698 316 q 1697 270 1698 277 q 1660 146 1693 200 q 1568 54 1627 92 q 1500 19 1536 33 q 1428 -4 1464 5 q 1358 -16 1392 -12 q 1295 -20 1324 -19 q 1269 -21 1282 -21 q 1092 -1 1178 -21 q 927 75 1007 19 q 928 31 928 53 q 927 -12 928 9 q 886 -180 921 -109 q 795 -298 851 -251 q 663 -369 739 -345 q 500 -392 588 -392 m 1086 126 q 1145 111 1112 117 q 1215 101 1178 104 q 1269 98 1242 98 q 1304 99 1280 98 q 1367 106 1329 100 q 1439 124 1405 112 q 1502 154 1474 136 q 1579 278 1572 197 l 1579 280 q 1561 339 1579 315 q 1515 379 1543 364 q 1455 397 1487 393 q 1433 399 1444 399 q 1396 394 1413 399 q 1300 359 1347 382 q 1211 296 1253 335 q 1169 252 1188 275 q 1135 207 1150 229 q 1107 164 1119 184 q 1086 126 1095 143 m 1542 758 l 1443 660 l 1344 759 l 1443 857 l 1542 758 z "},"ﺽ":{"ha":1761,"x_min":101,"x_max":1698,"o":"m 500 -392 q 290 -354 375 -392 q 158 -247 205 -315 q 103 -85 112 -179 q 101 -37 101 -62 q 122 120 101 36 q 143 189 131 156 q 165 248 154 222 q 186 293 177 274 q 201 319 196 311 l 301 255 q 271 194 286 229 q 244 119 256 159 q 226 35 232 79 q 222 -28 222 3 q 223 -66 222 -39 q 238 -130 225 -92 q 278 -198 251 -168 q 348 -247 306 -228 q 454 -270 391 -266 q 493 -271 474 -271 q 600 -260 545 -271 q 702 -216 655 -249 q 777 -131 749 -184 q 807 -3 804 -78 q 808 21 808 9 q 805 77 808 46 q 795 144 802 108 q 780 213 789 180 q 762 274 771 246 q 745 324 753 303 q 731 358 737 345 l 842 405 q 875 336 861 367 q 905 280 889 306 q 938 230 920 254 q 981 184 955 207 q 1006 228 992 204 q 1039 278 1021 252 q 1080 330 1058 304 q 1129 382 1102 357 q 1246 466 1183 434 q 1375 512 1309 498 q 1438 519 1407 519 q 1474 517 1449 519 q 1537 502 1500 515 q 1604 465 1573 488 q 1656 412 1635 442 q 1689 346 1678 382 q 1698 284 1698 316 q 1697 270 1698 277 q 1660 146 1693 200 q 1568 54 1627 92 q 1500 19 1536 33 q 1428 -4 1464 5 q 1358 -16 1392 -12 q 1295 -20 1324 -19 q 1269 -21 1282 -21 q 1092 -1 1178 -21 q 927 75 1007 19 q 928 31 928 53 q 927 -12 928 9 q 886 -180 921 -109 q 795 -298 851 -251 q 663 -369 739 -345 q 500 -392 588 -392 m 1086 126 q 1145 111 1112 117 q 1215 101 1178 104 q 1269 98 1242 98 q 1304 99 1280 98 q 1367 106 1329 100 q 1439 124 1405 112 q 1502 154 1474 136 q 1579 278 1572 197 l 1579 280 q 1561 339 1579 315 q 1515 379 1543 364 q 1455 397 1487 393 q 1433 399 1444 399 q 1396 394 1413 399 q 1300 359 1347 382 q 1211 296 1253 335 q 1169 252 1188 275 q 1135 207 1150 229 q 1107 164 1119 184 q 1086 126 1095 143 m 1542 758 l 1443 660 l 1344 759 l 1443 857 l 1542 758 z "},"ﺿ":{"ha":1159,"x_min":-12,"x_max":1094,"o":"m 469 114 q 563 110 509 111 l 589 110 q 680 113 630 110 q 784 126 729 116 q 881 157 838 136 q 950 210 924 178 q 975 289 975 242 l 975 291 q 966 338 975 318 q 942 372 957 358 q 908 395 927 386 q 868 408 888 404 q 828 412 848 412 q 792 408 808 412 q 695 372 740 397 q 611 309 650 347 q 537 223 572 272 q 469 114 502 174 m -12 118 l 2 118 q 63 124 37 118 q 106 138 88 130 q 134 157 123 147 q 151 176 144 167 q 182 244 172 205 q 202 329 193 283 q 213 379 207 355 q 226 427 218 403 l 340 393 q 327 338 333 368 q 321 277 321 309 l 321 273 q 328 213 321 243 q 355 154 335 183 q 428 280 386 220 q 520 389 469 341 q 634 473 571 438 q 771 525 696 508 q 839 533 806 533 q 870 531 847 533 q 930 517 894 530 q 997 482 966 504 q 1050 431 1028 461 q 1085 364 1072 401 q 1094 295 1094 331 l 1094 283 q 1066 169 1092 217 q 1001 88 1041 121 q 909 36 961 56 q 803 5 858 16 q 692 -9 748 -5 q 589 -12 637 -12 q 479 -10 528 -12 q 389 3 430 -8 q 313 37 348 14 q 245 103 278 60 q 148 25 207 50 q 5 0 89 1 l -12 0 l -12 118 m 952 758 l 853 660 l 754 759 l 853 857 l 952 758 z "},"ﻀ":{"ha":1167,"x_min":-12,"x_max":1179,"o":"m -12 118 l 2 118 q 63 124 37 118 q 106 138 88 130 q 134 157 123 147 q 151 176 144 167 q 182 244 172 205 q 202 329 193 283 q 213 379 207 355 q 226 427 218 403 l 340 393 q 327 338 333 368 q 321 277 321 309 l 321 273 q 328 213 321 243 q 355 154 335 183 q 428 280 386 220 q 520 389 469 341 q 634 473 571 438 q 771 525 696 508 q 839 533 806 533 q 870 531 846 533 q 930 518 893 530 q 997 484 966 505 q 1050 432 1028 462 q 1084 365 1072 402 q 1094 292 1094 331 l 1094 283 q 1074 190 1092 230 q 1028 118 1056 149 l 1179 118 l 1179 0 l 769 0 q 676 -10 722 -7 q 589 -12 630 -12 q 479 -10 528 -12 q 389 3 430 -8 q 313 37 348 14 q 245 103 278 60 q 148 25 207 50 q 5 0 89 1 l -12 0 l -12 118 m 469 114 q 563 110 509 111 l 589 110 q 680 113 630 110 q 784 126 729 116 q 881 157 838 136 q 950 210 924 178 q 975 289 975 242 l 975 291 q 966 338 975 318 q 942 372 957 358 q 908 395 927 386 q 868 408 888 404 q 828 412 848 412 q 792 408 808 412 q 695 372 740 397 q 611 309 650 347 q 537 223 572 272 q 469 114 502 174 m 943 758 l 845 660 l 746 759 l 844 857 l 943 758 z "},"ﺾ":{"ha":1732,"x_min":83,"x_max":1744,"o":"m 482 -392 q 272 -354 357 -392 q 140 -247 187 -315 q 85 -85 94 -179 q 83 -37 83 -62 q 104 120 83 36 q 124 189 113 156 q 147 248 136 222 q 168 293 159 274 q 183 319 178 311 l 283 255 q 253 194 268 229 q 226 119 238 159 q 208 35 214 79 q 204 -28 204 3 q 205 -66 204 -39 q 220 -130 207 -92 q 260 -198 233 -168 q 330 -247 287 -228 q 436 -270 373 -266 q 475 -271 456 -271 q 582 -260 527 -271 q 684 -216 636 -249 q 758 -131 731 -184 q 789 -3 786 -78 q 790 18 790 7 q 787 76 790 44 q 777 144 784 108 q 762 213 771 180 q 744 274 753 246 q 727 324 735 303 q 713 358 719 345 l 824 405 q 857 336 842 367 q 886 280 871 306 q 919 230 902 254 q 963 184 937 207 q 988 228 973 204 q 1021 278 1002 252 q 1062 330 1040 304 q 1111 382 1084 357 q 1215 459 1156 426 q 1336 507 1273 492 q 1423 518 1379 518 q 1482 513 1441 518 q 1577 471 1523 508 q 1622 432 1602 454 q 1655 385 1641 411 q 1675 330 1668 359 q 1680 284 1680 308 q 1679 270 1680 277 q 1638 141 1674 198 q 1653 133 1643 137 q 1676 126 1663 129 q 1704 120 1690 123 q 1732 118 1719 118 l 1744 118 l 1744 0 l 1732 0 q 1677 5 1704 0 q 1626 18 1650 10 q 1584 37 1603 27 q 1555 57 1565 46 l 1550 54 q 1482 19 1518 33 q 1410 -4 1446 5 q 1340 -16 1374 -12 q 1277 -20 1306 -19 q 1251 -21 1264 -21 q 1074 -1 1159 -21 q 909 75 989 19 q 910 31 910 53 q 909 -12 910 9 q 868 -180 903 -109 q 777 -298 833 -251 q 645 -369 720 -345 q 482 -392 569 -392 m 1068 126 q 1127 111 1094 117 q 1197 101 1160 104 q 1251 98 1223 98 q 1286 99 1261 98 q 1349 106 1311 100 q 1421 124 1386 112 q 1484 154 1456 136 q 1561 278 1554 197 l 1561 283 q 1545 341 1561 316 q 1502 382 1530 367 q 1428 402 1469 402 q 1405 401 1426 402 q 1341 386 1383 400 q 1260 347 1298 371 q 1193 296 1221 322 q 1151 252 1170 275 q 1117 207 1132 229 q 1089 164 1101 184 q 1068 126 1077 143 m 1520 758 l 1421 660 l 1322 759 l 1421 857 l 1520 758 z "},"ظ":{"ha":1097,"x_min":55,"x_max":1030,"o":"m 517 0 q 381 6 443 0 q 263 24 319 13 q 156 52 207 36 q 55 87 106 68 l 98 199 q 178 171 139 183 q 254 149 216 158 q 334 256 280 185 q 345 349 341 308 q 349 430 348 390 q 347 515 349 470 q 341 620 345 560 q 330 741 336 685 q 320 838 325 797 q 312 902 315 879 q 309 926 309 925 l 427 947 l 429 932 q 434 891 431 916 q 440 833 437 865 q 447 766 444 800 q 454 700 450 732 q 459 641 457 667 q 463 587 461 607 q 465 553 464 567 q 466 528 466 539 q 467 502 467 517 q 468 463 467 487 q 470 402 469 440 q 612 510 543 472 q 748 560 682 548 q 795 565 771 565 q 857 557 820 565 q 935 525 895 550 q 1002 460 975 499 q 1030 370 1028 421 q 1030 353 1030 361 q 1024 300 1030 329 q 1006 244 1019 272 q 976 191 993 215 q 943 150 960 167 q 835 69 891 99 q 724 24 779 39 q 616 4 668 8 q 517 0 563 0 m 387 126 q 415 123 402 124 q 444 121 428 123 l 445 121 q 509 120 475 120 l 521 120 q 582 123 549 120 q 653 133 616 126 q 727 152 691 139 q 797 186 763 165 q 859 235 830 206 q 881 262 870 246 q 899 294 892 277 q 911 330 907 312 q 912 348 912 339 q 911 364 912 356 q 891 406 906 389 q 856 431 876 422 q 812 443 835 440 q 792 443 801 443 q 766 442 779 443 q 632 382 705 432 q 478 241 560 332 l 387 126 m 896 848 l 797 749 l 698 848 l 796 947 l 896 848 z "},"ﻅ":{"ha":1097,"x_min":55,"x_max":1030,"o":"m 517 0 q 381 6 443 0 q 263 24 319 13 q 156 52 207 36 q 55 87 106 68 l 98 199 q 178 171 139 183 q 254 149 216 158 q 334 256 280 185 q 345 349 341 308 q 349 430 348 390 q 347 515 349 470 q 341 620 345 560 q 330 741 336 685 q 320 838 325 797 q 312 902 315 879 q 309 926 309 925 l 427 947 l 429 932 q 434 891 431 916 q 440 833 437 865 q 447 766 444 800 q 454 700 450 732 q 459 641 457 667 q 463 587 461 607 q 465 553 464 567 q 466 528 466 539 q 467 502 467 517 q 468 463 467 487 q 470 402 469 440 q 612 510 543 472 q 748 560 682 548 q 795 565 771 565 q 857 557 820 565 q 935 525 895 550 q 1002 460 975 499 q 1030 370 1028 421 q 1030 353 1030 361 q 1024 300 1030 329 q 1006 244 1019 272 q 976 191 993 215 q 943 150 960 167 q 835 69 891 99 q 724 24 779 39 q 616 4 668 8 q 517 0 563 0 m 387 126 q 415 123 402 124 q 444 121 428 123 l 445 121 q 509 120 475 120 l 521 120 q 582 123 549 120 q 653 133 616 126 q 727 152 691 139 q 797 186 763 165 q 859 235 830 206 q 881 262 870 246 q 899 294 892 277 q 911 330 907 312 q 912 348 912 339 q 911 364 912 356 q 891 406 906 389 q 856 431 876 422 q 812 443 835 440 q 792 443 801 443 q 766 442 779 443 q 632 382 705 432 q 478 241 560 332 l 387 126 m 896 848 l 797 749 l 698 848 l 796 947 l 896 848 z "},"ﻇ":{"ha":952,"x_min":-12,"x_max":875,"o":"m 228 118 l 286 118 q 382 119 332 118 q 486 130 432 120 q 594 163 539 140 q 704 231 649 186 q 751 293 738 260 q 760 339 760 316 q 758 362 760 350 q 738 403 753 386 q 702 430 723 420 q 657 442 681 440 q 641 443 649 443 q 611 440 626 443 q 476 376 548 426 q 322 237 404 327 q 294 205 307 220 q 228 118 281 189 m -12 118 l 89 118 q 118 167 98 132 q 179 254 138 202 q 189 348 185 292 q 193 482 192 405 l 193 504 q 189 635 193 568 q 179 772 186 701 q 168 878 172 844 q 165 914 165 913 l 287 935 q 315 492 315 725 q 314 400 315 446 q 592 558 461 536 q 646 562 619 562 q 723 553 679 562 q 814 499 768 543 q 856 440 841 472 q 874 368 871 408 q 875 352 875 361 q 869 298 875 327 q 849 240 862 269 q 820 185 836 210 q 786 144 803 161 q 678 66 734 94 q 567 22 623 37 q 459 4 511 8 q 361 0 406 0 l -12 0 l -12 118 m 755 848 l 657 749 l 558 848 l 656 947 l 755 848 z "},"ﻈ":{"ha":956,"x_min":-12,"x_max":968,"o":"m 228 118 l 286 118 q 383 120 332 118 q 489 133 434 122 q 598 166 543 143 q 704 231 652 188 q 751 293 738 259 q 760 339 760 316 q 758 362 760 350 q 738 403 753 386 q 702 430 723 420 q 657 442 681 440 q 641 443 649 443 q 611 440 626 443 q 476 376 548 426 q 322 237 404 327 q 294 205 307 220 q 228 118 281 189 m -12 118 l 89 118 q 118 167 98 132 q 179 254 138 202 q 189 348 185 292 q 193 482 192 405 l 193 504 q 189 635 193 568 q 179 772 186 701 q 168 878 172 844 q 165 914 165 913 l 287 935 q 315 492 315 725 q 314 400 315 446 q 592 558 461 536 q 646 562 619 562 q 723 553 679 562 q 814 499 768 543 q 856 440 841 472 q 874 368 871 408 q 875 352 875 361 q 869 298 875 327 q 849 240 862 269 q 820 185 836 210 q 786 144 803 161 q 757 118 772 130 l 968 118 l 967 0 l 809 0 q 724 4 765 0 q 652 12 684 8 q 600 21 620 17 q 579 25 580 25 q 464 4 520 8 q 361 0 409 0 l -12 0 l -12 118 m 755 848 l 657 749 l 558 848 l 656 947 l 755 848 z "},"ﻆ":{"ha":1127,"x_min":55,"x_max":1139,"o":"m 517 0 q 381 6 443 0 q 263 24 319 13 q 156 52 207 36 q 55 87 106 68 l 98 199 q 178 171 139 183 q 254 149 216 158 q 334 256 280 185 q 345 349 341 308 q 349 430 348 390 q 347 515 349 470 q 341 620 345 560 q 330 741 336 685 q 320 838 325 797 q 312 902 315 879 q 309 926 309 925 l 427 947 l 429 932 q 434 891 431 916 q 440 833 437 865 q 447 766 444 800 q 454 700 450 732 q 459 641 457 667 q 463 587 461 607 q 465 553 464 567 q 466 528 466 539 q 467 502 467 517 q 468 463 467 487 q 470 402 469 440 q 612 510 543 472 q 748 560 682 548 q 795 565 771 565 q 857 557 820 565 q 935 525 895 550 q 1002 460 975 499 q 1030 370 1028 421 q 1030 353 1030 361 q 1024 300 1030 329 q 1006 244 1019 272 q 976 191 993 215 q 943 150 960 167 q 925 133 934 141 q 907 118 916 126 l 1139 118 l 1139 0 l 957 0 q 875 4 915 0 q 803 12 835 7 q 750 20 771 16 q 727 25 729 24 q 617 5 670 9 q 517 0 564 0 m 387 126 q 511 119 447 119 l 518 119 q 640 130 579 119 q 758 165 702 141 q 859 235 815 190 q 881 262 870 246 q 899 294 892 277 q 911 330 907 312 q 912 348 912 339 q 911 364 912 356 q 891 406 906 389 q 856 431 876 422 q 812 443 835 440 q 792 443 801 443 q 766 442 779 443 q 632 382 705 432 q 478 241 560 332 l 387 126 m 896 848 l 798 749 l 699 848 l 797 947 l 896 848 z "},"غ":{"ha":925,"x_min":62,"x_max":866,"o":"m 500 -426 q 384 -414 441 -426 q 277 -378 327 -402 q 185 -319 226 -354 q 114 -238 143 -284 q 72 -136 85 -193 q 62 -54 62 -98 q 64 -15 62 -35 q 98 121 71 60 q 166 229 124 182 q 263 313 208 277 q 379 372 318 348 q 312 443 335 403 q 284 534 289 482 q 281 571 281 553 q 296 651 281 608 q 349 733 312 694 q 436 796 386 772 q 540 823 486 821 l 552 823 q 730 765 639 823 q 761 744 747 754 q 784 725 774 733 q 799 710 793 716 q 806 704 804 705 l 719 621 q 682 652 701 636 q 641 680 662 668 q 596 699 620 692 q 559 705 579 705 q 546 704 553 705 q 487 691 515 702 q 439 659 459 679 q 408 611 418 639 q 401 568 401 591 q 402 546 401 557 q 427 489 406 511 q 481 453 448 466 q 556 438 513 440 q 582 437 569 437 q 644 441 612 437 l 783 463 l 809 347 q 796 345 807 347 q 763 340 784 343 q 714 332 742 336 q 653 321 686 327 q 561 304 600 313 q 491 286 522 296 q 434 265 460 277 q 381 241 408 254 q 347 223 367 234 q 306 194 327 211 q 264 156 285 178 q 226 107 243 134 q 197 48 209 80 q 183 -22 185 15 q 182 -41 182 -32 q 209 -153 182 -103 q 285 -239 236 -204 q 400 -289 335 -274 q 502 -300 450 -300 q 562 -297 519 -300 q 673 -270 605 -295 q 796 -199 741 -245 l 866 -299 q 769 -365 816 -340 q 675 -403 721 -389 q 585 -421 629 -417 q 500 -426 542 -426 m 649 1033 l 551 935 l 452 1034 l 550 1132 l 649 1033 z "},"ﻍ":{"ha":925,"x_min":62,"x_max":866,"o":"m 500 -426 q 384 -414 441 -426 q 277 -378 327 -402 q 185 -319 226 -354 q 114 -238 143 -284 q 72 -136 85 -193 q 62 -54 62 -98 q 64 -15 62 -35 q 98 121 71 60 q 166 229 124 182 q 263 313 208 277 q 379 372 318 348 q 312 443 335 403 q 284 534 289 482 q 281 571 281 553 q 296 651 281 608 q 349 733 312 694 q 436 796 386 772 q 540 823 486 821 l 552 823 q 730 765 639 823 q 761 744 747 754 q 784 725 774 733 q 799 710 793 716 q 806 704 804 705 l 719 621 q 682 652 701 636 q 641 680 662 668 q 596 699 620 692 q 559 705 579 705 q 546 704 553 705 q 487 691 515 702 q 439 659 459 679 q 408 611 418 639 q 401 568 401 591 q 402 546 401 557 q 427 489 406 511 q 481 453 448 466 q 556 438 513 440 q 582 437 569 437 q 644 441 612 437 l 783 463 l 809 347 q 796 345 807 347 q 763 340 784 343 q 714 332 742 336 q 653 321 686 327 q 561 304 600 313 q 491 286 522 296 q 434 265 460 277 q 381 241 408 254 q 347 223 367 234 q 306 194 327 211 q 264 156 285 178 q 226 107 243 134 q 197 48 209 80 q 183 -22 185 15 q 182 -41 182 -32 q 209 -153 182 -103 q 285 -239 236 -204 q 400 -289 335 -274 q 502 -300 450 -300 q 562 -297 519 -300 q 673 -270 605 -295 q 796 -199 741 -245 l 866 -299 q 769 -365 816 -340 q 675 -403 721 -389 q 585 -421 629 -417 q 500 -426 542 -426 m 649 1033 l 551 935 l 452 1034 l 550 1132 l 649 1033 z "},"ﻏ":{"ha":687,"x_min":-12,"x_max":611,"o":"m 529 365 q 492 396 510 382 q 453 422 474 411 q 408 440 432 434 q 352 446 383 446 q 290 434 317 446 q 246 403 264 423 q 219 357 228 383 q 210 304 210 332 q 227 235 210 266 q 272 182 244 204 q 337 150 300 161 q 400 141 367 141 q 414 141 407 141 q 465 146 442 143 q 510 151 489 148 q 552 158 531 154 q 597 167 573 162 l 611 53 q 534 34 577 43 q 433 18 491 25 q 301 6 376 10 q 132 1 227 1 l -12 0 l -12 118 l 171 120 q 110 205 127 160 q 92 304 92 249 q 111 404 92 357 q 166 487 131 452 q 248 544 201 523 q 352 565 296 565 q 429 556 395 565 q 493 533 464 548 q 550 498 523 518 q 603 456 576 478 l 529 365 m 456 792 l 357 693 l 258 792 l 357 891 l 456 792 z "},"ﻐ":{"ha":691,"x_min":-12,"x_max":703,"o":"m 703 0 l 691 0 q 512 17 594 0 q 364 74 430 34 q 280 42 325 56 q 188 19 236 28 q 92 5 140 10 q 0 0 44 0 l -12 0 l -12 118 l 1 118 q 66 121 31 118 q 135 129 101 124 q 199 141 169 134 q 251 156 229 148 q 204 204 228 178 q 155 259 179 231 q 105 318 130 288 q 55 377 80 348 l 61 461 q 125 507 92 489 q 191 538 159 526 q 255 556 224 550 q 311 565 286 562 q 367 568 339 568 q 444 562 400 568 q 538 535 489 556 q 590 504 570 521 q 621 470 610 487 q 636 439 632 454 q 639 413 639 424 q 640 401 640 407 q 628 345 640 377 q 593 277 617 313 q 538 207 569 240 q 476 150 507 173 q 573 126 518 134 q 691 118 629 118 l 703 118 l 703 0 m 365 216 q 400 239 382 225 q 435 272 418 254 q 468 309 452 290 q 495 347 483 329 q 513 381 506 365 q 520 406 520 396 q 447 438 489 427 q 362 449 406 449 q 272 438 317 449 q 188 405 226 427 q 280 297 238 344 q 365 216 321 251 m 472 791 l 374 693 l 275 792 l 373 890 l 472 791 z "}}}
